<mxfile>
    <diagram id="wBvv6QiWDdtzBYFPzNsj" name="ページ1">
        <mxGraphModel dx="1118" dy="520" grid="1" gridSize="10" guides="1" tooltips="1" connect="1" arrows="1" fold="1" page="1" pageScale="1" pageWidth="850" pageHeight="1100" math="0" shadow="0">
            <root>
                <mxCell id="0"/>
                <mxCell id="1" parent="0"/>
                <mxCell id="2" value="" style="shape=image;verticalLabelPosition=bottom;labelBackgroundColor=#ffffff;verticalAlign=top;aspect=fixed;imageAspect=0;image=data:image/png,iVBORw0KGgoAAAANSUhEUgAAAggAAAGRCAYAAAAAfUt1AAAgAElEQVR4XuydB3wUVdfGn91NLyT03ougUpWmolixYkVFBXvvvX76ihUV7B2xSxHFgmJFRaUpYgOl9xpIQnrZ8v3+d3bCEgMJJNTc+V6+mN2ZO/eeO5nznOc0TygUCskeVgJWAlYCVgJWAlYCVgIREvBYgGCfBysBKwErASsBKwErgdISsADBPhNWAlYCVgJWAlYCVgL/kYAFCPahsBKwErASsBKwErASsADBPgNWAlYCVgJWAlYCVgLlS8AyCOXLyJ5hJWAlYCVgJWAlUO0kYAFCtdtyu2ArASsBKwErASuB8iVgAUL5MrJnWAlYCVgJWAlYCVQ7CViAUO223C7YSsBKwErASsBKoHwJWIBQvozsGVYCVgJWAlYCVgLVTgIWIFS7LbcLthKwErASsBKwEihfAhYglC8je4aVgJWAlYCVgJVAtZOABQjVbsvtgq0ErASsBKwErATKl4AFCOXLyJ5hJWAlYCVgJWAlUO0kYAFCtdtyu2ArASsBKwErASuB8iVgAUL5MrJnWAlYCVgJWAlYCVQ7CViAUO223C7YSsBKwErASsBKoHwJWIBQvozsGVYCVgJWAlYCVgLVTgIWIFS7LbcLthKwErASsBKwEihfAhYglC8je4aVgJWAlYCVgJVAtZOABQjVbsvtgq0ErASsBKwErATKl4AFCOXLyJ5hJWAlYCVgJWAlUO0kYAFCtdtyu2ArASsBKwErASuB8iVgAUL5MrJnWAlYCVgJWAlYCVQ7CViAUO223C7YSsBKwErASsBKoHwJWIBQvozsGVYCVgJWAlYCVgLVTgIWIFS7LbcLthKwErASsBKwEihfAhYglC8je4aVgJWAlYCVgJVAtZOABQjVbsvtgq0EqrcEQqGQEYDH4ykRBJ9F/l5RCZU1VkWvjTwvcpzIuVTV+NszJ3uNlYAFCPYZsBKwEqhWEkDpFhQUKCYmRj6fT64SLiwsVFRUlPlX0SMYDGrNmjWqWbOm4uPjK3SZe78tnVwWQPB6vZudzjlZWVmKi41TTGzMFsFNcXGxWWPp6ys0UXtStZeABQjV/hGwArASqF4SQGkOGTJE5513nvbZZ5+SxT///PM68MAD1bNnzwoLJDs7WxdeeKGuueYa9e3bd4vXuaBg3bp1mjFjxn8UeufOnRUXF6dp06Ztpsy5LiEhQYcccogBNArxv5Dy8vJ033336YQTTtBhhx1Wcg3nBwIBrVy5UosXL9aff/6po446Svvuu2+F18SJ28uobNNN7Mm7vQQsQNjtt8hO0ErASqAqJTBz5kzdfffdevnll9W8efOSoe+55x71799f3bt3L9MiR/HyL9IV8emnnwpg8eqrr6pp06ZlTpPzXaZi3LhxeuyxxzR48GBFR0fL7/frqaee0r333muAwBNPPGGAi8tizJs3T8x3/Pjxql27dglAWLp0qa6//no9+OCDatiwoTIyMvT7779r8uTJBhgARHJycsxYZ511llq3br3Z3IqKivTuu+/qgAMOUKdOnf4zb+aZnp6uSy+9dLtcL1W5X3asXScBCxB2neztna0ErAR2sgRwLaBUc3NzdeeddxqrnQMK/n//+59OPPFEdevWrWRWWNK4DlDmP//8sz7//HPz3yh9lOyXX35plDlWurHwIw6uBQDAUqCkuW7UqFF67rnnNHDgQHMd3wNUbrvtNrVt21a33nqrOdcFCPPnzxeuD0BFYmJiyeiMw3xgLlD0ycnJBiTw3xdccIHOPfdcM+969eqVrDFybpmZmYb5uPzyy3Xsscf+ZxcAKpzzwAMPWICwk5/R3el2FiDsTrth52IlYCWwwySAwkbhDhgwQPfff79R9uvXrzd0Osp7+vTpatKkierXr18Sl0CMwRVXXKHjjjtOGzZsUFpaWgmdP3XqVGP9869Ro0b/mbdL9yclJZnvARUo9ldeeUVnn322YRVwd/D7TTfdpP33398ABOYXCRDy8/M1dOhQwzBwAG4AGO68AAaAh4ceekgLFiwwAASGYfjw4brjjju03377/WduxE2ceeaZeu211wwwKR0MCUCAgcCNwbE9AZw7bCPtwDtNAhYg7DRR2xtZCVgJ7EoJYPEDDFCiKGWUJAAAVgH2gNiAY445xljzKESUJgoc14Gh9yOOjRs3GgaiQ4cOJg4AZV9aiTIuFnxqaqq5knu99957evPNN3XRRRcZEMD4zz77rK6++mrDArz++usl4IH7//vvv8ZdAIMAQIBN4Py33npLY8eOVatWrQwjwjlLliwx59WpU0e33HKLYTQACbVq1fqP2P/44w/93//9n5FDgwYNhCsDwMMcuS/MCC6Ggw46SH/99ZcefvhhtW/ffldun733LpCABQi7QOj2llYCVgI7RwKRlvF3331n6HeCCd944w0zAb4nMPCSSy4x1D7BfyhDXA4o3O+//94o7MgMhRUrVujpp5/WwoULDQX/0UcfGcXqAgTAwty5czVr1ixjpRPvEAkQUMqDBg0yrAX342BO/P7hhx+asVDaHChushVcF8OUKVMMuODcDz74wFj/c2bP0eNPPK7Vq1cbQAAAIXgS4JCSklJmVsaYMWP0448/lgAPxgVwAKKYPwACQEIMAoxK1y5dlZi0ycWxc3bP3mVXS8AChF29A/b+VgJWAjtMAi5AQNHilyfmAEuYoEIO6HnofWj4o48+Wk8++aSh82EIbrzxRhPEiHLGuucgSPH99983Fj9sANdA+QMoAAiwBnPmzDHUPJkJN9xwg5o1a7YZQMBS5z5cg8sBgPL4448bRY67gnvcfPPNJXEPo94bpccef8wobgAOAYcAEIBMu3btTOBiVnaWcSd88803JmMBNwMAZ8KECWZ9MBmRB/NCFoAI7ls69RIXA+tiHda9sMMez91+YAsQdvstshO0ErASqIwEsMgnTZqkL774wsQCQNsTGAgtj8vhhx9+MN+hMLHOSSkkc4DofixolKvrcvj222+N8sZaZxyXvkfB8u+FF14QTMXJJ5+sk046qcS94LIVo0ePNsGFKPe3337bKHGYAGIKqKUwYsQIwyYAWIhFgKUARABScEfw/TkDz9Gtt91qMh9wf3Bf4gVwk2D587NGjRpau3atuY7xYDHcGAbmAtAAuLB+94gEAjARMBcWIFTmydvzr7UAYc/fQ7sCKwErga1IAAUKSMAyRyljseN/x+JetWqVoeEJ1iNWAAseax7XAUrUzUzgeqxxfPtdunTR33//bSh6N/XRLUQEeCCjgcwAF1TgnkBhMw+UPXQ+LAXXMy7/8PnzPde5Fn3v3r01e/bsEoBAICJZD7gBLrvsMuO+GDlypLkPrgrmhOuB9RAY2bhxY+Me+Oqrr0zwI24U9zj99NNNvQfWw/WlWQIA1Pq09br7Hsc9Yo/qKQELEKrnvttVWwlUOwmggFGosAB169Y1FP/FF1+sF1980VjSBPfBCpA6CC1P5oKrOMkkIIUQSx3r/rrrrjOWP8ACdwT0PwdsBC4ALHsXPBx66KGmHgHn4JbAxYCC//XXXw0YQKmTUYGFj7UPYIAtYBzGIDYA0AJAYA2AAZgNwAgsASwGbAjplO+9+568Pq/JcAAw4E4BkDAOsRTuccYZZ6hjx46GUeFzxqa4EmthzdRB4F6WQah2fyabLdgChOq9/3b1VgLVRgIoPLIEoPgpilS7Vm1TlRD6HVoegMA50PgUQCJOAQucg8+JL0CZw0CgoBkHkOH67/lJZsPxxx9vqhu6zAWuC5R/JIOAK8OtqEiqJa4JDuoSUPgIhU4AIgCCmIfIOgjEBsAGMGdAwW+//Wbmw9q+/vprwzJcddVVBvzAQlx55ZWblZBmHrgvYEeY17BhwwxTgUxatGhhzsXlgmsFIART4daLqDYPi12okYAFCPZBsBKwEqgWEnABAgqeTAJ+x8+OqwHliIVPbAGgwLWc8fND1btMAtdgkaN8qZuA68C8SD0eY/kT2EjswZFHHlniYoi81nUxuEGK1FUAiBA7QEDkokWLDIPRtWtXMzZzhXVwGQTuFQkQYCpuvulmNWnaxLAeAA0AAuwCwZL8BEgAFCJdCcyf7AtKTgM2Hn30UQN2uHcoGNLwJ4eb73FVwDS48Q7V4kGxiyyRgAUI9mGwErASqBYSiAQI+NhR6NREuPbaaw2djyWPYoaeR3GTqYACJl6BegPuAXOAgoUBcGMLXJaB7AACFAEIpQ+XQeB6LHNcHQQ0wlyg3AEmKGVSKynKROEj5vTII4+ItES3noILEFDaP/30k4kxAEAQdEj6JTEKAAMAAb/DKjBWZIVIUiEZl5gM1ky5aOIgKDXN+LhPYDl69eplGBXWdPjhh1eL58QucpMELECwT4OVgJVAtZCACxCIAUC5oqSXL19uLOdzzjlH/fr1U8uWLUvo9GXLlhl6HkWLIiXLgAMFj9UNg0D6I/EJfMZP4hlgEUh/LB345wIEN06BmgewF5zrxhdwDXEApCvyk0BGriNtEWs+kkEgroFsA9gP4hw4CLJ0GQQYEWIm7rrrLjN34izcOVFpkXnCZMBcUFaZOAhiD3A9UKfhiCOOMPUfKM7EWNvS5bJaPFDVYJEWIFSDTbZLtBKwEnDiCD777DP9888/uurKqzTxi4mmtDLpjCjCshQ6IIHYA+oNuN9D3VMngIqG+PABBgQS0iQJvz0ZAvwsq0UzjAHBg8QaoHDd+gml94f7AkqYMzEN1FRwAyG5H3ED559/vmEVABeMQ9wClj8AgaJPkee7wZAu08G4nBfZP8JN1eQc2x7a/sUgAQsQ7HNgJWAlUG0kgDWMInUrI1akCBCKM/I8MgxQ0lj0riJF2eKy4Hc3TbGssaH/OZegv7LSC92N4J7ch/FKl3HmPmQysAYXBLiKn/VxRAYVlp6/G1RZkbVXmwfDLrRMCViAYB8MKwErASsBKwErASuB/0jAAgT7UFgJWAlYCVgJbF0CIfhmK6TqJgELEKrbjtv1WglYCWxRAtD6/HOrIHIifvqyAvRKU/eR7gG+25off0vXlp5YRc/b1i3dFjeDG5uwJ8QlbOtc3fO35u7ZVtlu6/nbshfbOnZlz7cAobIStNdbCVgJ7BUSwLdPZgEphaQcuh0aKRRE4aPSB8GGBAiS+eAexBeQeUCxo621R6buAZkDbvZBJCCJjA0gk4GMAxowVWUWATEM3J8x3fuVFaTpFnui3TVForZ2uDEY2/MwENMBAAGMVSY2gmqQkydPNr0tKnIABskYoW032RyRNStKz4O+GMR8RJ5XkXts7Rzkyx6z/vL21wUSVAHdkowqswdlzdMChMrusL3eSsBKYK+QAMGLpP1RA4EaAK7FTEYC/Q0iD4AA6YVUMrzwwgtLvuJFTwoknSPJPijr4D7UJaA8MvUUKNaEcmBMshJcYMFnpETSF4LsBLcxVFljRjINFWEd6AUxceLEkkZUkeyAq4i4D/9NOWcKMAFStnRvZEb6KH0oAE3bcqCkycqg9DS9Ibp3775Z8OW2jEVhKYo/kbJZkQPlzF5R+pp6FOwNypefAD+Anqt0qYfB5xSVigwO3dp+lMdokIZKzw9qT5R+xkqPi5x4RsaPH18mO0VnUvb0xBNPLCngVREZbO0cCxAqK0F7vZWAlcBeIQFe/tQRQFlSPGlrFh0KkVoBdGWk0BAHioWUSAADIKGsYkmcRxEkCipR4plaBIAMFBEW6ooVK0zRIuobXH/99eZ3zqP0c1kAAQWEkqECI+CEg9oMFE1yW1SXtTmsD0aA0tBbAgdch0yorsh5kYWWIsdkDtSBoKYD7AuVJyt6uGCE1FGqWwIyqEmB/Ny6DxUdi/O4HgX+8ccfb3bZlkATLBCAghoR1JU47bTTzD7CAh100EGmQBQ1KABUnMczsSWAwD0obEWKquumAnSQShsbG1vmMgAoffr0MXtcVu2MyItoLEZBLcBPaYDCvefPn29AKYWzIgt7bYv8Sp9rAUJlpGevtRKwEthrJOACBF62KPAtAQS+R2nQH+GYY44xigxgQG0DrGzYBxQchYbKOiiwhDKkqBLX8NKH4saCfvDBBw04oIESJZhR+rfffnsJQHDdHozLd7SxxqKkBgMggYqQKCNcAqeeeqop/kSthtKUNEr/l19+MSWYOWAxsPzdFE0sVaxaKkXOmjXL1HygFkNZB/KgLgSgCUUaSdMzztZcEy5A4Cf3AwihAJ955pmtMibIgSqSv//+u3FLcA/GoDImY7B/HIAfUj9R2DTZwlXkzofzqTWBQme/AGs030IGL730kpkPyhvAR3ltgAHfUYHSBVXu/NPT003PDOpc0MKb39u0aWPuBfijVwbyKy0LAMLBBx9s9g2lzrr4LLKNOPvsshiMTS2PsupnABBOOeUUIz/cIFVxWIBQFVK0Y1gJWAns8RJwAQIvYxTMlhQb1ReJS0B58NLHnw/zQA8GKjSibFAIpUsTo0yog4C1ihKHskb54FJo0KCBsQD/+usvQ7fzOUwC7EAkQEDIjAOdDJBAKcE04HOHWkaxwki88cYbxi0Ay0HFyNK0P2WkqZWAmwTliRuDglF0eeRAIcIGAIJQRlRiLEseyAoFBigCbABsYqJjlFoz1TAllHTG7cDYZQU5InMaRSEDFH1Fgwa5LwqbeIO2bdqWPHt//f2XkSHFqkrmG5KWLltqXAZc48oCRUxBKZgPgB1UPwwC8yQugTkDKGh8RblqgEFZAAFQcttttxlQANOCS4rqlfTdQDbsE1Y94O+EE07YzPpnDtyD85ETbifYBEAjgAZ5ABR5xthHDvairBgEnh9AIQDCAoQ9/nVkF2AlYCWwO0kAZUXvAn5uCSAUFhRq2PBhxnKFBSBmAAWBElmzZo25ns8BCKUZBF72UOAooVtvvdUoAaohui6GuXPnGmWJQtkaQMAqR1lxLuCBZkq4J+i/AEBAEXIOjATKBiBSGqzAIMB8AHJgHvDdc3+ABkqQa6HL6c3AGgEfrssCkIOVynUoagATMRJYyvSuQHkBQA488ECjFOnx8NZbbxmFW1qxAXRYK2wKICkyWJNnw/299HXsESwOihA3gDlC0v/u/5/pagkDQLtuF1AxhwkTJpR0xQQUAV5wG1AFE+sdFwPAj4NulgcccIBR3pTbpm9GWQAhOzvb7D1uFc7DtcN4AAqeBcAIyv2dd97RJ598Yp4NWmy7hwsQABacx+8wQsicPcOVgGx5RnBlsbewVhYg7E5vDjsXKwErgb1eAuUBBBT8lJ+n6MabbjQNnVCeUMG80KG7YRNQDlDTsAR9+/bdTGa8/GEX8NcDDviHckGZYi3StpnOi+UBBJpEcX8UEAqeA4qfzIgXX3hRSclOzwbmC0BASWElR9LSzAM3BAwFin3//fc35wNgsGJhQzgfMIByhWFwYwtQZChWXA9Y3oAT2ALoeuQB8wFogq7HdTF48GBDoeN+wKqPVG7MmYBNAALXuoAgsuJkWXS6CxBoT80+cJCVgZVNhUmAx8iRIw2oYV0obOIS3LbZ//7zr07qf5IBUlj6KF72w3UxYLWzX2SZuAwC80dhR7oYACKwODA2xBowf9gL3AYwO26sAHIAgHCPyOeCOcO8APSYBwyOKwcABcAFAOgGi8ISwDBZgLDXv47sAq0ErAR2JwlsDSDwHdQ1VPKxxx4r0unwufPCxyrkJY+iwo+NDxzrFAs28kWOJQhtj7IkVQ2WAhcA7gZoYyxyFCOZFNDdKFrABsodZYHiQKHxPWACJYbyR8mTDYGSI2gyMoCNeQAoUIyRsQgDBgwwFj5rQEnhL+cgaI/fDznkEKOUmA+f4UKJDD4EJOCi4FwAAMFxZAKgzLGWARUoaNbG/V3/funUTxQr68aCJggPRY7bAHbDDfRjfOYT5YsqKdYEc0FchAsQmCcgg2sBMyhcZIvCZU4lAGHoY4qLjzNyAtTMmzfPtPZGdpwLa8C6mTMgCWUOM4DLoTSDgNyh9GFXDP0fklasXGHiPgB6yNjdf+IgmFPbtm0NIHQP3BIAAJ4h2J8uXboY9oDnDdCJzNkbxmG+jAMwtABhd3pz2LlYCVgJ7PUS2BpAQDGjzKD1oexROli++JZR0tDavPyxnLEUsc5pwQwz4L7MCTDjHm6EPQABS97tIgkAoQ4DAADXAzEEKCEAgpvFgGIGpDAubgzcAcyJMbBAUaSRygNqH6XJmK6LAAWI8urRo4dhC2ABCJLkQCmhtFCOHCgkxiW2Ags58kBJwzig+Mz6iQXwyDAJUPQuQMAPzxqgzHEHRM4PKxuwhPsBEAJFT9oh92J8ZEUL7HfffdfI1z1cgICLAQU9evRo486ASQHAkYWAxQ/wIBuBFtqMw2fsFzKDOQFYcQ5AA1YG1w/zG/f+ONWtV9e4GPi8LBcDIJEYBsAX90CuADLiHLgfLhP3AMAgA9YFqHSDG1H6ME/sNdcCsggM5Xlj7YAH3AucD4DCFcRzZQHCXv86sgu0ErAS2J0ksDWAwAvajSR3aXCyAFAQKHk3XZBsBj4jPRGQABOAwooMLEMRMh7KEf87QAEljdWKcsHFQCzAyy+/bBR0JIMAQEAhY2kCIpgLCgMLGXaCtLpIJUrwG8F/BCO6nRuhu7GumSexFFjwFIZylRB+dVcpuU2oAEORCo97hIIhA5JWrlpp2A5XaQEMUND8BEgxLkxDjeQa8vq8myk3ghthKFCgUPms23ULMB41GFDiMDS4S9zDdTFQO4B1IVNkiTLnfm6MAVY51j3sCYGXyCqytTYMAHsH0OC8ESNGGAbGzSABIAD4AEIAAb5zWRoAAkGZ7Be1G1gjawB4cJ/IoExcHsgc9gBmyQUIxH0A1pg/MmTtsCc8a+wL82Y8ZAFYxOUAWLMAYXd6c9i5WAlYCez1EqhoFgOCQKFBOdM6mpc7CpaXNgodxQ1djTJHyaN8OBfrmHMiAQLWMtfiPsBC5BoocoACAAIXQCSDgMLmehQw/nK+hwKHwnfjBtxMAJQPLAPFhyItd2IHuAbfOTEBWK8osNIdIJEH60Gx4Y4oncWwetVqDRo8yDAqbkVIZIMVD5OCf74sRRb5IDFnaH6ULMF3kfdgHbAZpILiAkDpRgIEroEdQZkC0lC8kWvAPQNwQunDEDCeG4NgAE4oZFwEgCj2iHW6rhViI1gTtQnYO9wZgKFIgMD4KHfiQAB5ZA8QOAkwiqxDAFiBGWIMGJ3I72BGYA5wP1ExE1cDrJDrJop0UfAZ9+E5KuuwWQx7/SvKLrDqJEB3GY49ucOMu4Y9fR1Vt6s7cqSKAgQUEi96lAEAgAJCkS9yLFmoYvzXUMi4Jij+gyXIgYJnDJQ6bgcsaGhmfqKIa9WsJV+Uz5xLQGPpNEeUF5YrCozvYRNQLFibHICImTNnGqACM4GCjMyrJ54Bqh3lyTxgOPC9cy7rcNcCCIK6B7CUzoJA6QEAUIrvvfeeGR+FiwxR6MyN2IHyAAJjIBcX3ETuL+NRGZCMC+SN8i7NIAAciH8orVAjx2GNUP4oadfFUBogsIe4HQhMJMuAfcEFg0XvrgGgFRmkyPyItyBgk/kDuMgkAdi51wD4yJ5gDXwO2HPnyj7hFqEOA2APsMm+8g/2yT0YC3aCfRs3btx/mBz3PAsQduTbwY69l0kgEiBEKlpH2TrN6UJhqs9DPpWz/lBI/mBQwYBfIX6G/wWCQUOputaZ89NcYM5hNJdSZCj3RevxeOXxSj6vV16vT16vx7wgoFr53SOPguHpmetKdoEP+eeMLXn3cLCzfY+XWxioPEWzfaNvflVFAAIvfBQ+Sh7FScR6ZEElLO5IgFDWvFyAAKUNwEDJY50yXq9evYxbwq0JQExAJIPgKjY+RyGhXDmfn1i0FGHCqqZgD24CrHtSD90DFwhKDDAAHU98AFYywXCuW8F1oaDAUNDQ9KUBAiAFVgIFhwyohIh7AyUHBY+MUN4V2TeXbmeO7DcyJmWUNUD1UzsAkER2QmmA4AYpbuk+zt+mDBhCwUYyCHxOYSFcDARPuq4G6hEQuIhLA5DgZlEgN/7braToAiJYAFwQxCEgC1wYxHbA8hDciEyIkwA4RVa3hDHAJcG+k8LIecyH+xOo6LpnWBsMD/EHgA0XaJZ+tixAqIq3gB2jmkrAVbhgABQudHCBsrKzlLExU3nZ2cbHl52TY/6416etU/qGdKWnZxj0vjErW7m5+eblxUu1sLBIxf4iAyIUChod7vFg9XkVFeVTQnyCEhLiFZ8Qr+SkRBN4VKtmTdWsVdP8bNiggerWqaX4xCQlJScruUaKaqSkGj8t14fRSvjnnsyCbP/jxgsYmhzFTVDejj7cXgzct6w6CDwXWHoE7ZFqhtIsXW2xIgCBKHSUL2wB0e5Q51iwxDTgb+d7fN88Z9QbgJp2sxhcGTBHxkB5uHMg7gELmeeYUsqAAIBGpC8cJUOQI5Y73wMqoOZRwqVLKcMSsF6s30iAwL0J+MMiZ64obsZEeRHf4FrKbsxDRfaNMek7gV+fcVC4ABtcMFD/patBRqY5ltRBKONG1HJAccIgUK/BjUFwT0Uho/hxuwBICLZEwQNwUPz8DqPA3z3BhQRU4nKIzBRBTsyfz9zPkTPAiowV4ixYS+Szwvxx7QAiYEfI9gBkwfrAVMAguACBsV0mivlsDSBQYwP52UJJFXnq7DnVRgKuFeIGk/EHWFxUbABA1sZMZW3M0tp1a7Rs+RItWbJUq1au0cbMjfL78+QvzpPXX6igv0jBUFD05amdEqvU5BSD+JOTkpSUGK+YuCiTIhUXG6eYmGhFkXXlk7wej2ETQkECsrwqLvarqLBQhQUFyi8oUEFBkbJzspWdnaucnFxlZWUrI71Y+QVBBb1Rki9WioqVNyZB0THxqlevrpo2aWZeKk2aNFXdenWUnJxqQAQBTNHRjo9yE2OxdwIIXspYWFhx/NzRB88OSoSfbrxA5D3JJOAFjULBWizLanVLLqMUyuoAyXgEo2ERQmnjA4Jke7QAACAASURBVOeljvJwfdUoBwICcWFAP5M+yXhlKVzm6s7DsFrBkDxe53koa36kR6K8ACIoJWQMRc9z7vrG3euYDwqMeUTGGLh/Y4ABLF2O1atXm3oIXMN+bWsfBcYEjJAtAFDBouafS7WXXid/3yhwsgIoSLUlBoG1UpOCfcHtQ8yAq6gZEzof9wBgB7YFd40bEMh8AE6wMmSrsBeMRcxBecyIyzRGumwinyXmzz0BPsif82AQmB8Bj65c3fcaRgrfk9nAs8HnrInPigqLjIHC/GA+yCCxAGFHvy3s+HuMBHgpbczM0Ib0dK1ZvUazZ/+tOXP+1fKly1RQmC1vIE/RwSIlJYfUoFGKGjesr8b1Gyg1JUE1aiQoPi5GNRKilZgQp9jYaPm8AXm8XkWFXQK4IvgdV4HHwwsZuj/kuAMiXBO4C4xTwDAUThAUH7gvVOhO98WBW6G4OKjcgkLl5hUrJ69IefnFys0v1Lp1mVq1ao1Wr16nVatzlVvokScqwQCJhJTaate2rfbbb1+1adsmHOBWx7AQhhdx57PH7N6WJ4pFTdQ3FnTPnj13+Yp4IcMQoPy21M2PPYZ+B2BE+pEjJ0/fBM4js8EBfJuKB8EKcPA9jAAgEIUQGXxXGUEY4FxcXDIevyPnJo2bGHartBIDMHH/La2lMnMpfS3zQr4AIZR4WaWZ3Wv4OyJeANltrXskYwJkGIvzIkEWYwCY2Cu+Rylvcg16TCAq+wzLQjYF18MgRLbIrsz6GZ/7uYGZMD+kuuLqKd3ciXN5bmDS3O9gFWAhYEmYJ3vJ3HCVRGazVGaOthdDZaRnr91BEggZ9RsZRYDyc+IBnMjqnNxcLV68xFCDf/4xS0sWzdfq5YtVkJOu9m3rq/0++6hVq8Zq0qSWmjeupcYNaiopkY5qIXkVxPPvuAbM4TWK3Phew1EAIXOOc5jPTXyA18zBVcIGEJR4LkLy+DxmnAApcd6QPNCOEeEPBihwBzMe1zp347JNHAC/wEQ48+J+6zOztHJ1tpau3KCly9dpwbzF+mfufK1Y51edug3UsFkbtWrbQV07d1bXzl3UoGF9xcXHKzo6xgE2BJ4ZxOJENewJGAJFibUG7YrVjotmbzsireLItbnplDtzvWXNZUvz2xnzqsi9Xeu6PFBc3liR42zpXPfz8sbaVtmUHq+y41f2+tLztwBhW3fUnr8DJbBJm7oAoQg3QWaGSQGb8/cc/fPPHK1YvkBpa5Yrypunxo1qqUn9OmrZvK6aN6mlRvWTVSMx2TABMbHQ8K6id/36W5++OwPz0+MEJpr/RJHjDnCZAYcaCP/O90R/hxQ0wYshhQzd4DAOYZhhQIYJdCwZkWscF0VYhTssgDNqxESdgEhkEiT1rMCvvIJCZWQXaPnKDVqyIk3Llq/XylXrtXZdvuISUlS7WUu1bNlOHffrqHb7tFOd2nWVnJTsWL57gEcC6hs/OVSp24J3Bz54dmgrASuBMiRgAYJ9LHa5BBzU6+hbN4Ia2mzq1GnOvx8nafnif9WmeV3tv18bdenSSt26NFXTBrUUFw0IcCxxwzmYNK3oUgp225foWNqFmjpjhTLypCMPbaXYSNM7GNSqlWv187/pOu7QDkrilh5p8ZxFWrwqSz2P7KkET1EEDyIDEHA/uGDAnZXXIAkHZJR9uC6LzexMk+EQVHHYjeGR3+9Rbn5Q/y5Yphl/LNKffy/RnNkLlZ3rVaeuvdTzkD46qPdB6tS5kwmedMFOeRbYtkuv8lfwTMAiQP1uic6v/F3sCP+RgAGim+IarISqtwQsQKje+7/LV+8G22RkpGvBgkWaM+dv/frLz1q2cK7wCDSqm6ie3dqrc8emalg/WSkpSfJFQfOH5A1nIwRMtTYcAF5hsDtAIdIK33aTOeAJyadcPT58iuZv8OqJ+w9Xso+0xPARCGjqlN80ZNRfemXoxWqaEIAK0DejvtAXMxbrtuG3q54nx3FllDAGDguwiUGQma97bFFRO8EOjkIvGS0QBgiOM8RZt5MKyR2C8pvgyPT0XC1ZlqYZs5boz39WKD0jX77YFO3XuZu6dOuh9h06qGmTJkoM+8J3+QMRnkBF6ePdZb5VMQ9cCwSjkRUQmdJXFWNXdIzqKPeKyqY6nmcBQnXc9Z2y5ghqvUS1oR5RYk7g3uo1a/TH73/oh+++1Yypk+VVgZo3raMe3Vqqe+eWalwvRSk1YhVlagY4lL1L64fjtM1nQcf1Hz68Bjg41H6kct42kECkgieUrWFPTtH8DJ+GPdBXCY4jwblP0K+pP/+mIaP/0iuPXKKmiQAEGYDw9fQlum3Ynart2xgxB2f+m2bljON1sYzBAP91LjjQwF2Hqz2dIElQAeMFwlUdzOzcAEn55SOa3US2BxUIBFVQGFBaZr4WLVuvKdNna9ZfK5WWmacGDVroqKOPV89eB2mfDu1NeqYDRpygBWda2ya/7XnEXOVEUBmBfkTDV1VwXlnzqYwyjPT1uoGnZj95TrdyUMaYugesC0AIS0KRJILKqIpILwBKIFO8yGXTnEfDkb9b+nhbWB93neWlHXIebZ4JdHOj+bd3HwE7lvnZHuntXtdYgLB77cdeNJuwfz4cyOcPBlRUnKecjBxTWvXTTz/QrzOmKydzgzrv11AnHn2AuuzXVI0a1TF1ADxBormdMYIE7YUlw2vSvIIjXfQ7QneFCFzM0bCnftbcTJ+eHHK4qFO3CSAENfWnmXpg1F8aMfRiNUr0K2QYhIkOQBh+t+r6sowtv6OP/4jC+Eci7uoGY0YGYQb9ys7N0/yl6/XTtHn65ps/tTFHatisuY49rr8OPfxI06yGyO3SJXZ31HrcAFBKz5LLTQxCVUVjbwkgEPntZg5wDkqtvCh1FCnpZUS3k9lAWWGKE3FQ+Ghrivjff/81ef1ufQLuR+EkQAIBt6S5UZwosjGRC0YABdRFQD5bSp+LXCdsBDIlhZHUPAozbQ1YcC6pgNybugblgRDmRSQ92QTUbCDSnjoGdHIkhZOaDKTslTfOjnqe7LiVl4AFCJWXoR1hSxIgoj8YUFraev3995/66vNPNefvPxUVylPHfRuq9wGt1WGfxqpXp4Zio2Pk9QTkifKSruAQ5UbJkXMQSa2HAcKOlvo2AYRL1CixWCGfR98CEKYt1e3D7zIMghuSuKOnu63jh0IBU9gJGRcXFyonp9gEOv4xe4UmT5urletyVadec/U59Cgd0vcwtWrVUvHxWL1bt5C3dR6R56NwUGo0x0GhUTCmdCGiyowfeS2ggAI6WPPk+hMUSZobKWbcm3QywFFZyo1A0zvuvMPk/mNpk66I0kbZU9BoS2l33AMwAUPiWvX85HpqEFA0iXLLrNtlTviecbkPbgcqDJL+GFkHoyyZMG/mQm48NRQAWm5L59LnAwwASoCdq6+6Wt17dDf1GfjMTc1lH0r3AOA7QByghf8GWFDDgNLLyJY6AtSCKI9Vqao9teNUvQQsQKh6mdoRob0DAa1bu06vj3xZn06YoOVLF2nASd112nFd1alDY9VITnACCuUT3n4KFHk8fofED5vEkQBhU3T/ThLv9gKE9ybqm+lLdcewO1UTBiEyyGAnTb0it3GsUrItnJRST8hL0oZCXspMe7R8TZq+//EfvTnmRy1ekateB/c0JYT79j1asWF6fEek41HxjhLAlBGm1e2OOFg7JXyxcCkABENCPjz0PrnmKD1K5vJ9RQAKrgEK7lCa1604WBawoHMilQEBQW4pZVgIFDcsAtUPKfpDXQIscZQ0Vjl571Tx21Y2BRnC1kXW/2fPqBhI8R9K/ZJ7D1jiH+4P5sjcAC3cm79j5AVwAgiUBnQZ6Rkq9hebubFmCvlQFpneEIADyx7siCd4541pAcLOk/VefyeHYlyhGVOn6IcfJmnunN/VolmKDuneQgd176AmDWorLj5KXgXkMZ5zr0JkHJj8P6OmJI9TKCbsVi9hEHYlQJiX6dPwEhdDmL8PBjTlp9/04Ki/9OrQS9U4qUhgim/f+1LfzFim24fdoVrejWEWZHfeeicIIihfOB6C1E6voWn8gYA2Zudpzj/L9N2Uf/X77OXyxtZRj159dFjfw7VP+31ListUxQpRXigh6Hoa4OyI+AOUM9XmoMABBBRgolwwFDl1F1Bof/75p1H2nTp1Mp+5TZDKWiNz/vqrr/XU00+ZkrkoSpQqY9ClkR4H7kHRHgruUHyIg3u55XTpEUAzIsDR22+/bUoD0xUQ5cw9YA8iLXGUO42UImMhUPLEbdBbgaM0QOBc5kaDIVwk7pgUQaJ8L3PHRUIJaNP9kf/zesz9y2IQXBaEezEujZvojEilSdwoO8s1VRXPnh2jbAlYgGCfjO2TgLHyHeVCANzsv//U+2PH6tuvJyo1ya9+ffdV30M6q3mT+kpKoDoh5mlEU6RwE6ISytplDTYLLti+qVXJVaZsshODMD/Tp2FDjlSicXkEFKSaYjCoqT/O1JDRs/XaI5epcY1cBT0efffe1/pmxlLdPuzOMEDYEQESVbLCkkH+Y+VFxjCEqP7oVXEgqPSNOfpl1lx9/u0c/fbnUjVt3UlnnnWm+h1znFKoT232tHIuCGhuFN2W6P3KrByFRg8BwAcMArQ9yg/fPM163C58bvc/WiXjOojsIuje31WOzBULHRDhAgwscfoX0M0R1sWVL9cADijtC/hB4dMFERcAPSdoWUylPgpDYeUDFLZ0AKLcgEY3GBB3Sbt27UwDpbIAgjsWhcaYU2TJYdKKWQtloHETwKCUZ/274ISfACLiFohhYH2R1SErs2f22l0rAQsQdq3899i7QytmbNigv//6U598+rF++/VHtawTp1OP766Deu6nWrUT5fOZfolbjX+PfAmZiPxw8aGKlTXageILMPcsPf7MD1qQHq3hQ44xAMHMEcsvKE35YZqGvP+XXnv0MjVNznMAwrvf6NsZZDHcpZrejXtE2cLyFAFSRvUHQn7TfCIvP6iF81fqk4lTNH3WSsWnNNIJ/U/RwYccqmbNW5RE6O9u0AiGCxqfDoDQ4KwbRgEFDUhAobuygPqnAx+uA5RepIwAEIAAXAu0BWbMe+65R8cde5zp1QEbceWVV5rr6MwXCSpQzmRouIGQ/GQ+jOkGN8JE0LgIH76byYDCjbTIiZsASLgsA/egwRDzAahsDSBE/tWwThpPoeCZCyDj8cce19kDz67QHxfMAWwMrauJ4cBFQrAl64SdoREU8RUVecYqdEN70k6VgAUIO1Xce/7NeJGtWkWk8hf67LNPlZ+5Uod0b6rD+nTUvm0aqUZirHy0MXaLCm2DltgaQNg8LmEnyJEyA55sPfP8V/rxn4167smLVTfWL6/Hq0DIJ0/Ar4/GTNSIaWs18rFLVT+2UCFPUJPe+0qTpi/VbcPvVOpeBBDYG0NRAxWoGBmUAsUhrV2drWkz/tEXP8zS6gyfDujVV/1P7q8uXbsqPjauQhvlpgnSwrhDhw7Git4RB8qQxkcoXpQyB7EHWL4fjPtAKamwIM6B4gMg9OvXr4RZ4HNABi18UcywHFwPIDj44INNACFxE7Q5RnnDALCeSIDAOQAK4gqw/Ckh7TYL4jNYBZQ1MQikOvI7romTTjxJ/Y7tVzIWAAFAMGLEiJK/Ne65rQBh0qRJpjshIAEFj6Jn3bSQLk+pu8wBnS/pIYBs6Y4Im4RMWD8AjH4BVdU8aEc8F3bMLUvAAgT7dFRIArykMjMzDEX71hsjVbhxtS469zAd16+HGtdPVpTHb6xMrGhTsigUbeIMtiV9frcCCCZCslDffP6zbn1kvG55+Ab179VYiRRloj/CukzddcMLit2/kx77v7OU5CkwpZm/GfWVJk0LAwRfpumrsLsf5SmCSAVH5IjTUcLxQ/gUo1DAr6JAQNOnz9Orb07UP8vy1Ouwo3XNVVerVcvWxqou7x4E05G9gC8eS76qD5QZWQRnnHGGiRUAhPBMX3755apXr54eeugho4xLMwikHcIGuJ/TKe/RRx81TaTw2aMccVn07t3bBASSnokfHxcC7X7pBoiv370exUl/CZctgBWgxffceXPNkrHix48fb0AC3QW5DlAOoHGVLJ/hYuA+/HPHZl0AkG1hEOgoCNDgH/NkXWQr3HvvvVvNPmBOixYtMvIjK+Phhx822R+AHNf1QLzFmWeeaQIz6R5ZkYDPqt53O17lJGABQuXktxdebWxFp3BxyGMilBfMn6/PP/tYP0z6QslxhTr68I46sndnNaibqKhot0wwokBtcC0OAgoIl3IvVIBNcF0MZalVWIRwHaAdLncIBOoMZaWla9gTH+ijafN0ZL9eOmjf5kpPS9dHX0yXLypO/3fXOeresYm81BoIBfX1e1/pqxkLdcdTd6i2N2vPAgiRBRXKkLADC9yT3EAFCkoRdEpBJikvt1i/zV6szyb9rj9np6ltxx468ZTT1b3bgUpNTdkEFCIKW+D7pqUw7ZTHjhmr2nVq75D9BSAQfDd8+HCTxjhlyhSjuLi3G9jnsge09yUmgIA+NxofxXfkkUcat8P5559vgAJZD3SbpNYAB758Ch2hQFnXvvvuawCGW3iI4MInnnjCdEcEkFBDAPdGZAohTACWPRa462Jg7EiQhQuCOIfIPhUUOaKeAmCHY9y4ccadAdDYUm0GUiYBZtyfc2i3DHsAQNgSqEMOrBPFD+vwwAMPmEyMyCBKrsXNAOBbt26dyQjZWrDnDtlwO2ilJWABQqVFuDcMUEozhChF4LwESFd6f+zb2q9lvC4Y2E/dOrVSzZRo+UzxIje3wJQ43LxucBliKc+KNBAjHIOwK6XqVjs05ZyDHuVkZOvrybP1xU+zlJ2+QQmJCdq3S1f169ddbRsnKipMk9C9cfHsxVq6KkO9juqteG/hHhWDUGnZm71zClwVFIe0cPEGjf3kJ439dKY6d+uj666/UT169nD87yUAIaT0jExdfNFFxl9PFP+OqMBn3CP+gKlfkJ6ebu5DcCEuAJQXbZfd5w/LGOCAqwDl79Y1wO1AwCLfYTWT7w99jq/dld3XX39tggdxWRQUFhgwQgAkaYqsG5cEChy3BuwB7AP1DwAQ7v0rGqQIsCEDw/27GjVqlImLwJrnIIsBhf/444+XAJjSf1fMe+HChZr560zD9nHN8ccfv1lwZVnX4GoBpJDpQUokTAZr43eCOwFMBJySDQIw4OeOyErZle+J6nBvCxCqwy6Xu0anA6FrPS1etEQTP5ugryeOV42EAp1y4oE6vPe+qlXTsZKg2HkpmRdTuB/C3gQQIgszmToGjttdhXmFKiZOL8qr2PgoxTitD8JLh0kJKRjgZI+84b4N5Rjl5e7MzjghMsq+UvdzAhUU8oYU9AQNA1OQ59e/i9M0ZvxP+uWPVerc7RCdfvpAde3a1QAt0uiWLF2qRx951AQOQqVXBEhuzzx5xgmgI6AwbV2aASsoLlL8cDegXKdNm6Ynn3xSrVu3NtkATZo02cyKf/HFF00qJsp98KDBxl8fHRNt/n7IUHCDHYkzwKKmzgCHyzCgRIkbQLHzPdY6aYFlAQRcBluSBSCGWgYDBw4sEQX3AsQQ18B1KHsAC/EF7v3LUvacy3WMB3MAI4DLZEsHhaLYNw6YEgoyIRcAHrER7CEgheBFXBaMiZxswaTteWp37TUWIOxa+e8Wd3fAQUhp69P0ztvvaOInH6px7YBOObGHendrpXq1a4Rf+uhA3AdOweFN/ZBcLbn15Wz+sossnrzpukpbsVUgUZdBKF3emUJCro+DUgEcxo3ish74iznJBGiGZbQHIISqBQgApaApuOS2jyJmgcyHf+at0xdfzdIPU+er7f7dddFlV6hrly4mOyIjY6Oh3Xe0nxqFRgXErI1ZatS4kQmoc9MfscixcokbgLpv0KDBf54mt5YBdLxbHIiTSFOkBgCfoRxZS1nKHYBAdgP34HuUK0GTACYDvkOhkjTHrQGELSrv8LPI2GNJO/72W+PS2BpAABxQ3hkmA0UOs1LRZlFcC3OBOwNgxfyJ2yCOhKBTgjdhSVyGpgr+PO0QO1ECFiDsRGHvjrcKBgPKytqoyT98r5GvPK/M9ct0wcAjdPIxnZWSEmM6IdE+OeR1ChgRgEhDoO2JBdhUPjnccdH4syOjDci5r0Cgwg4WJPEH7mF6P5S43cNzi2wQhaVsZETrZadnhFvbgSZLu2khxc16WziNrWCRKh9QadJaTdErKeA1T8umqldBr/yFQf3+zxI9/9oELVlZqBPPGKhTTx+g5s2aKSoqZlN9rB28x6WHx50Gg4Bid7MotuaDN38L9LYIhUwcAdH/WPAwA40aNSpz9pxLTAAKmEJCgCHcFChQYgdcgECGBP0M3n333W0uNgSLQVVGgMzUqVN1zNHH6N777jXBg2UdKHgACtUjyaagzPOWwMSWtoQYA8CFWwCK4ETqO1ADAnfFto63k7fe3m4rErAAoVo+HigDavD7NWnStxoz6g2lr/5Xxx3eWccf2VGNG9ZyOgGaI9woyaULUCIlWm9TQKNz7paVe7igr0yRvqBPHiLajJWJ/tikmDZjEMx9KgcYyuYpqmbTHSBh+j6Gmzi7c3XYg921D0NY6CXz8xpqBOvVYYeq4nCqYpYxEv05FFBefpEmT56rYa98qlBsbZ0+4FwNOOMs1a1fdwullqpmXlWxttJjEIwInU6gH/74LR082xkZGSawEcYAgIGrAKbCjXPgHHz7M2fONO6KbalGyLVkSVBkCbDCtZ07dVbrNq23OicCJwFHuDm25X6RgxKQSMAj9yfmALeN27FyR8jcjrlzJGABws6R8251F2jWpUuX6bGhj+in77/UGcd106WDDlW9ujVIUJQ8AZPv77zhnRdziWFvqiFGRrJHcuhbtkDJnzeKNBRUIBgtj9crn6fYifIvaVFMfIMznltGobImuEN0V5Xa23wbXabBlZT7rdvxcbcGCCBEQCIWv0+KIrgwFF1lktqS9c1zEKSagj+oonyPbrhrhOn7kFsUpej4+sYSPejgQxQTw1wij90XILizdLtRlhdDYUCw+R/9MMKxPBFL5Xu3z0V5Y0VKyE0vLO+z0t87f2+Vk69by4I4g4rKYbd6KdrJlCkBCxCq0YPBH/GqVav02WcT9On4sapfs1jnnXGQenRqq9i4GAV9pl6eseAMbV6FACH8RtSKRav05Q//6MRTj1B9jC1jvYZfTrw0S7IYeHGyOaXV77ZtmDN6uM/Dtl1aztkUDXLmXdYMHU5hWwMQKs+YVHyJIYUCxZo06XdtyA3phOO7KSGGfIzKKYoSkLQFhRPwBBQMBeSjPO/sVbr0xlf0yP2D1LxJbY0eN03Tfluqjt0O1YCB56jj/h0j0vOqZl4Vl48900rASsAChL3uGSiLVA+ZnOyff5ysp54apqyNy3Xl4CN15EEdlJIUb4x4FIMpgmM6KlYNQNjceg8oc+163fV/76tTr44afN6hio8uUm5+kbILHeaB/2/KCXi9Sk6KVXw0LYSYTUThZZfKMEURSq5yWI1gmNaOcPw7c3DaR5cc4cyLAGmMJcGWDjPiDmuIki0+G45rBYDgOhd8IdetEF61YWDCLpRynrGS2YUCTtMq2jC7CRJmWkEFQk5aaVTJpJw+GE5/CzfvAjYmLBMCBZmT6dboHJHrMV0cA0VaPHuebr1ttAbeMEj9j95XMR6/U8ECt09J8MW2/5Fs2SKlO6DTl2Pkm99q0tTZeuaxS1UzNV6FBSHNnbdKI0f9oN/mpuuc887XoMEXKikpudIW7ravwF5hJWAlYAHCXvUMlLZYnSpsSxYv1KjRozTxk7E66qDmuuyik1S3VgJNlnfYi9epqhgSihPV5C8q1Ng3PtfbX8/RSy/erKZ1ouTx5+mZF7/U429OVa0a8SbaAQKB1s89euynwWf3Ue8uTRWLojL6HwUY4yg7T7G8hm1w1D/YwBv0OjEOpNrxeygYgRlQqGZWDpUe4tyAaXfsMykJBF4GzSkBKuqFnOiLgNcJNDQQxqzFVfx8J/mCIQU8UfKGfPKaCoNF2rAhT+lZeWrWvI7ifD7jRjGZEWZODhgzwZgGkADLAEAsMKD8rAKlpeeoQZMGio12aksU5mfrjdHTVL9lEx3Xdz/FmL7MuGuYMx0x/aa6oePCcdbiN0jHZ/aY+zqxEpsOiH6F/PIUF+izj2bog2+W6n8PDlSzetHyII9gtCOvSoCELf1pce+Q36vhT32glq0b6tT+veTEQThcD/EJn02aqdff/Ul1m3TUZVdcY7oUxsWy9+GGGJWPp9yr/vLtYqwEdoQELEDYEVLdHcY0AUsFmjDhE73z1quqmVig807trV4HtlNCQoyCAX+4IM2OoW4du9UJTfSGPFq5fIWuum+szrmov047pJW8+F79OXrsya81+qtlGv7wKUrwFRvFuWHden34wc/6K61Irz5/nfZvugk8EOCI7wGlaACFyapwLG5iJ7inUZyhGAcAUA4YqzwEGKL0M752n0KhKIW8sCZE2ofkBTCUqKggKMXcBxAABDEcBla8wSRBo5jN+R4s4mjHLWMARLZGj/xW0/9ep1sePF+NElHbqGn+ObEVDsERnj1KmjsQFBrM07Qv/9KHE37XdQ9epKapXOtX5vo09T55mLofcaCeu+8cJUc7LI9xnAR9BhQxKG4hgAOgxzSUCjlAJ2hQScDIwGVGDMYIj5K7MVu33/2aOh/XT5f0by+fn5ki08jum1X4UAfZH2ntuvVKTIxTUlJ8ONPBIUBCUR4FAx4tXrJGH06YpsnTV6nXwcfpossuUaPGTeT1VpUjpArXZIeyEtgLJWABwl64qbAGK1et0jNPP6WJn43Vpef01uAzD1NqbKJRHuSoG7veu+N6JroV+01fhmBIP3z2vZ6d8K9eePp61YvJV9AXo5A/U48M/0YTp27QZ2MuVko0bZSZU5FWLlusPD9jzAAAIABJREFUC694Wyecf4wuP7evooMwBlHyBKlUFDQsg7xeY+1Hmd4PQfkDfkNfe33xjsLH321cBSjSIlPcxdDbWN1+nzDuQ4ANVGEwSjKAIih/MCCfx2dAjJO0wRrADKZKkqNog+T6OzS8F2Vqyg2jqXM18vEPNeWP9Rry6o1qEE/BIKf0dNCk/1GCt1DeKEAFtf/D5IEBCLma9P40vTfuF9372g1qnkwAYZSCRQEtWp6lxKRUNaidJI+n0HFwBAlmCyjEWOGEEoYBvBSHCDyUTN0mijYBavxFxofDmB4fYCcon2FTivTme5P17k9pGvPMQKVEFTn1LgyaqcI/EAfFmUBUL50+gwSpuqmu4RuZWhIGbslHEKW/WNOmz9EDwz9WTK2WuvPue9W9Rw9FsYYqCK6rwtXZoawE9joJWICwx2/p5oFt2Tk5+nrilxrzzmuqkZCjQef0UY9OLRXD+x7L2bx8nfj7HQkQsAUh3IVSDxTq6fteUUHdZrrh+gGK85jYeYUCGXo4DBA+H32pUkzgOusJKCNtla68/A31OLmPrr6on5RH18AFatGyodYtW6iVmQEdekR31UwIqbigSDNnzNNfc9YqVwG1adNSh/duo6R4hwUwVe5WrNOPMxYpbUOeYmPj1Xm/xurWqaniowEFMQoFfVq3dq0mT5mrFRvyFZeQoIN7d1T7NrUVHba+ly9bq1lz1unAbs302/R/tGhNjmLjE3TMEV3UvGGKQsVF+vXXP/Tiy99q3socnX/ZCWrdIEGH9dlPUQoqPy9fU6f/q3nz01Qkr2rXr6nDDt5HjWunGMZi1qy/Nfr9GZr8yyKdd/lxalk7QX0P66ikWK9mTflbqY2bqUXT+qaJVNBTqDXL0zX5p7lan1uomIRE9Tlof7VvkVLiqlm+fI3mrsxXh5Y1NeuXf7VkdZZi42vo0IP2UdvWtQ2zwv5Q4+L3Gf9oyAPj9b/nrtN+zVMVRbvGHZH+QapfVq5Wrd2odi3qyheDa2bzME8afrnxIMZNFPRobVqeRo76RpOmL9YR/U7T+YMuUOMmTTdlu+zxf8d2AVYCu58ELEDY/fakwjNyUougzh0mYEP6ej359FP65tP3delZPXTyCT1Vs1aCU6ympMKaCQV07rGDOw06MCRAj1xdc86zOmzgUTrltANFyRYTFOnP0tAnJ+nzqev02ehBSonDFeBVoDigmbPm6qq7PtJtd52nU49sp41rV+vKm19SsxbtNHPSDO3Taz89cP/FSo3J17hRn+vRN2fo6IPaq1FqgiZ9+4cOPqWPrrmwn5J9RSrMzdflt76iZVkBnXxYR839Y77+nrta19x3vk47rJ1hANJXp+uy29/WxvxCnX5cN035/g/NT8vT0KFXq0/n2vKGivTB+Km67ZFPdehB7bVi2XLt16aRfp22SDXattQrT12r+r48vfXmGL0z+letyvCrx2FttV/zWrrx+vMU5S/Qm69N0Avjf9MJR3dSzcQ4ffbpDLXo2lIP/9+Fqh0rjRr1sUaNnqH5K/LU9bA2alM/UTddN0i1kqI05Non1eG4Y3TqCb3kC+QpM32NrrnzTaXnB3V495aaOXWuCjwJumvIheretqa8gZA++fBLPTrqL7VtUlcrlq5Qm5bJ+nvaCrXv2UEPPHCRGqfAfEQr6A1q4/LlGnL76zr8sgE6oe/+ig4B4ox/pUoPcMfHX8zUy69P0OgRtyolBfdCKZeBoVWcAE/jAArHmhQWBTV91nwNf368FNdC9w55SJ06dpTP57VlfKt0l+xgVgJhFRHaHWrb2t2ohASCKirya8q0KXrhmWEqzlupGy4/UQd3aymPx6+AN0qujVaJm2z7pSauEDBSpKK8fJ0x8F2dd83ROq1fa0UHnII8wUCWHn5ygt6eOE//d/PxSooKKVQsLVi4XJ9PmqlazVvphYcvUL1kvzLSNujMQY9qwQaf7r5ugM46vacSEoJa8vdi3X77uzpo4HG69KzeSvIWa9LEn3XD4z/oyWGX6chutZU2f77Oveld/e/p29W7ZQ0V5mTrkcfeVUq7drp+cB+FCgs0cthojfplnYY+fq26t0lRZtpq3Xr7awom1dSwxy9TrZgijfnwZ118xzgDvP5325lqUS9Bn7z/pa577me9+uJ1OmH/FAUDAb06bLymzk7TAy/dqkbxQXm8xUpftU533fGiup90vC4Y0Nso+ak//aIbhn+lZ5+6Tr1aJZkGWV+9P0Vvj5up/718i1rWjpE3VGzcIw9e+YTanni8CeiLKszUy4+N0pf/Zur+oVeoU6M4pa9cpVvufkexbTpr2N3HKjFYrM/e/0oXP/qN+h/fQ/fceLIa14nTpPFf6c6Xf9JTL9yoPq1SJMUYaz1r7UrdccNL6njyEbr07CMV7VRIqPJmU9m5xbrn/jdUu35d3XHNSYqJdQM/Nz1iW8vJDwSCWrUuQy+89oW+n7FcF11+vU4/fYBq1ay17c+ovcJKwEpgqxKwDMIe+oC4/RM25mzU22+9rU/GvaUjezXXwNP6qnHDZPlMsL0TzQ9TUMWGYPlSMwCBqHq/CrKzdNq572nwNf102rGtFYPbQV4FApl66MmP9eKYPzSgfxclExtRHFIoOlYt9mmlw/u0U6uGifKG/NqwdoPOunC42hzcV4/f1l9J0QQbFujjD6br2Xdn65mnB6t2EjcNKnNtui66+l2dMbifrhjUXQWrF+m0S0bqqDOP0znHdlXNmvEKFBTIE5uglAS/Mtes0+2XPKfWx/XR2WcepiSP31jVM7/5Wa+O+UVDnr5ZHRtHaeyHM3TToz/o07G3qHPLBPk8fv3z5zz1u+ZzDX3kHJ19cF15An69+tgHmjJ7vR586SY1jAMgSIEiv1auSJM3PkHBokKtz0zXgkVL9ejb0zT0oat09L7JJmBy0tifNGrcr7r31RvUvEaUodBDQb8evHKY2vY/Qaee1EO5a5bq7ItH6OjTjtb1F/VWjIpNgOO3E/7Ui6Nm6bFXL1eLJI8mjPlaD4xbqBcevVgHtk4wVvmaRXN12g1va8ij1+qo9nXkiQAIt13/ojqfcoQuHXiUokNFYQah6p4cntl5S9J12z2v6P67B6pzh2ZOamspJmtrAMGwZkR65ORr8tS5GvHeZNVt1knX33CL9tlnHxN4W9miP+U/3PYMK4HqIQELEPbQfaaG+tKlS/T4sEf0+9Svdcc1p+i4I7ooKobANxQz7odwrb+Sqog7b7Emn8ATVFTQr1Bhka469yUdNehYnXRKZ6PQiOwP+LP16PCv9PGUNH06+gqlmuh1v7zeKEX7AiZDIOilLLOUvmaNLrjpDZ1x6fk6v28dyRst+Yv0+ttf6/anvle92KCiA0Tvk5HgUXFBsc6++CjdePVJivcV6pU3J+nVdyabCP2u3VrpwF69dezRndWkVkjrVqzUxYOe15/p+aoRF6XYUMg0LY4LBBVfM0mPPn2tenZI1vsfztJtw2bopy9vVJNUJ71w8exFOvqKT/XoQwN15iG1TdbBiKEfaOpfGzTk5RvUMN7pXVFUVKBJ3/+ql17/RhszslW3QW2pqFgz1hXp1Wev0zH71TBz/3rMFI0ZN133EaSYSOAIboAiPXDlcLUzAKGnNixeoP6Xj9VlNw/Qpf0amhLJnmCuFs5YrGFDP9TVL96i9g1jNGHMlxo+cbleG3qJ2taln4a0bskCnX7D6/rfg9fpyA7M12EQNqxYqvtuGaGDzz9FA447UNECIIQDFavwsZn00xy9//FPeuKR8xUbHSUfZbdLYZAKKXjSQ4MhzVu0XkOeGKO0nDjdec8DOqRPn+0uF1yFy7RDWQnsFRKwAGEP3MaCwkL99OMPevX5p1QzqUCXDTpUnTo0M9aT8dyGU+mIdHeCvSg3VHWWYEVEZvIBvAGTXeANSE/c/KKS2u2rS688UVGhHHk8UQr4czR0+Hf65Od1+vz9i1UjhowCJ8c/KpxtEIQKCYaUsXaNLr5phM68/CKd06deOD2xUG+9/Z3e+DZdD990mGIC+SadENYkGPCqYaPaatIwRfgtiooLtHzJWi1fnqPZ/y7XB5/N1P49euuxu45UzuplumjwS+o76AT1PKC54k1tAqeSoy/ap5atmyg1rkjjPvhVtw6fph++uFlNU1GeQS2Zs1hHXf6RHn3oTAMQsNJfe2y8pvy5Xg+8fJ0aJjjzn/Lzb7r0jtEaMOBwDTi+k+rWqaH1q5bp0gfG6/57rzIAIagifTN2mkaNm6l7R16vFolRChFfEirQ/VcO1z4nOQAhY+lC9b/8fV103cm69IRG8gadQNB/pi3Q8Kc+1V0v3KoWdTz6eNznevLzlRox9CK1q0uWhldrly7S6de/rvsevk5H7QOD4JQ0nvvHP7rvvlG6fugV6r5vfUUZcMm9IwoObEfnKVOsyeRWMl5Q6Rm52phToObN6oRjYUwuR0UeqVLnUJ/CqZuxPjNbb74/Rd/8uETHnDBAgwZfoDp12QsnkXPzhmDbcSt7iZVANZWABQh71MaHVFRUrLfeelPPPPGQzjmlqy4ZfIxSk6PlxdIO5+ZvKpfkBCSGqwTs1JWSwWBa/ppEgmh98c5HGv3TOj3z1BVKjSk20fNBf5YeHf6tPpmSponvX6Ka0SGTlhhZ7sljiiQFlblqrS65ZaTOuPx8nXNIw3BsRaE+Gz9ND7/2m95+6xq1qOWkO9IwZsKkBerWtYNaNo5XzoZ0rUjPVYs2jZVgouILNfW7hbrj+bka83Z/JRas1x2XvqgGRxyk667ur1RPgQFUSxeu0qKlaerWq7NqxBfr/Q+m645hM/T9FzeoaWqU8c8vmrNER105Xo88dKrO6k17YADCB5o6J10PvnyNSXOEFXnxhXEaNcujUcPOVrNUXD8h/f7rH7rsoQl68KFr1W+/VPlDfn03eopGf/Cr/vfajWpagyBBAEax/u/KJ9XhxON1+kk9VJS+Qmde9IoOPKan7ry6r+LJsggENObtSXrnq7l65fmr1CDJp/EffK6nP1+hEY9erLb1wgBh2QKdfv0b+r+HblS/DjUVDESZGIlPPpqqF0bP0ah3rlRKbIFRqhR/ctp7u4dTuGlbDioyOpdQbcoBCf9V2JWvepRfVKTJ0+frgaGj1Kl7Pz3w0KOqXadWuNKlk8q6fUBkW1Zrz7US2LskYAHC7ryfERmM1DZYsXKFRrz6kn756UtdcEZ3nXjsgYqLcSLN3eZKbtFdZ1m7DiDwQjY1F0wNH68W/btANz/0oW67Y7B67VtXpsZfcb4eeQqAsE4Tx16iWgYgbN7BwJSBDgaUvnatLrz1dZ15yfk6D0vdmyCFAlqzcIXuuftNJezTXpdeeKQa1IjVpC+n6t7nv9UDQy7VyYc316xvpuj+p77S4JvO1WFdmyiQs1Hvvv29vlvg0XuvnK0UX6E+fucrPTFqhq6/4Swd0bOVMtas1XPDP1JOyKcHH7pSjWp59P6HM3T7k1M1+csb1MTEB3i18N/FOuqKj/XII2forF71jLU85rnxeu+zv3TLU1erQ6M4JSfE6uMPvtE9r/6mp+8/T706NtDcPxfopefG64d1QT3z9NU6qVOqqVkw9bOpeva5b3T1E9do/6YJSkxMVqwnpPuuelztTzxBp/c/UNGBDH341kS9+enfuuD609VjvwZaOGexHhz+sQ45sZ/uurCn4QU+GouLYYVGDL1E+9QjnTGktcvn69Tr39R9D92kfh1STSqqPz9H99zzphK79NKdFxykqBAAAbnDPFUOIJhMVw+1H6TVa9erdp0UJcRGl+IMKg8Q3N6Z/8xfo2EvfKbMwmTdcOsd6tm9l6JjnDbSO67qx+78ErFzsxLYfglYgLD9stvxV0YU0Z8ze7YeevB+5Wcs0B3X9FeXjo3ki4I12Nx9sDlAcAjWXcEgmBuH2yPAAxfn5mvEcx9o2uoMPfYI1Dsd/fL14qs/6vs/NmjkM4OVHE11Qqf8sXv4TMngoDakrdeNQ97TyecO0Ok96ynkiXE6LBQX6s+ZczXs+c+VHvKpXmKsVq7K1FEn99Fl5/ZRSqyUn52rp4aP17ezlql2/RRF5+UqI6tYl9x0jvof1tKUg87Ly9K773ynURP/Mu2uizKzVBQbp+tvPFt99m+qqFCeJnz1qx4bOV2jX79KDZPjTHGixYuX69x7PtXtN5+ikw6oZ9iSxb/P1ZW3vKFgvVpq3zJV1117upI8hbpnyCgtWJWr1g1SVZhXqCMO7agv/krToHP76qQDUdbR2rhmja6/+S2t8saoXaNUXXvl6erQvK6evP05tTq6j044tquiAgXKz83VyBETNH7yPKXUSlF6+kbtf1B33XLRUWpeM9aktX7+0SSNnLxKQ+8ZpDZ1Het/7YqluvTeD3Xb7Zfo4DapCnmK9euPf+q5lyfp5ocu0b6tUuQJUkAJpV26/fO2MwjG3xMKaenKDP3fgyN1yw1nqWP7xqZHxKajKgACbiEeFZ/WrM3Wm2O+19fTl+rqa2/RSf1PUUxM7HY5Mnb8H7m9g5XA7isBCxB2370xMysuKtKvv8zQg0PuU4u6Id1/2wDVqhNn/NUUlKESnlPBzznCBfVKfv9vEtnOWzA6IOCWzg+GtHTBIg265Q2df9kAnXf8/orzBJWXG1BBcUApyfEKUfvPBCdumiMMApUYQ/6A0rPyFZ+UqMRo6hE6a6ZYMkooKydPsxcsV0FRsVq1aKbGDWqaLAMPEyClMhTU8uWrtXxVmrzRPrVu1051kuNMUKFT398pabhkySotXZ2mGjVS1L5NcyXEUWkQH3qRigoLtTHfr5o1qS0RY4BXcVGh1uUElZoaq4QoyhlTdIly0Rmat3iFYhNi1b5DcyXGeJWTl6+5c1coN7dALZo3VpPGNZWZHVBiXIxiowIKUAbRE9TG9Vmau3C1vNEx2n+f1kpI9Ck7M1vRifGKi4H2d5o6+YuDmr9gmdIyslS3Xn21bdtCPvJETcVGjwryC5VTKKXWiFNUVLFhPPyhoDIy85SSWFPRvmKtXrVaN98xQr1POFZXDOiu6Ci/ASpuT4fNowO2HSAEiUEISp988YfeGD1Bzw+/Sg3rppiuC5ue2c0BwvZEJJguXyUX+hQIePTWmK/1yntTdO7FV+ncc89XrVTiEuxhJWAlUFEJWIBQUUntpPNKSIOQVFhcrHFj39NrLw3XMYe01QVn9VWD+jWMJUiBJCxoNwwr3NrP6cRY0kWwKiyzyi28pKOj6UVUpF+mz9En383RZVedoaa13SA4Og+i17wE7W8q5GRK6TpZAGFfhaMDTPOB8HnGEg3/MzEY4Sp8pifDpr4HTpvGTc2dnLpRrhvEccXQ5CncMzHssTaRFE7gpCcgU8bYDX3DpW5yEB3vttNk0ikb7DaXdvQVcRjhgDpzCsGPBB/SM4F+FJsgHS4AtClhe2QmAAABRwR7OmWFw7vtNok0FQddcOMEeJoZm4ZQkcrcY+ZeAiSZM+MGijR2/E/6fWmubr78eNVNjnK7Zzigyay7kvvPOoM+3XnfG6pTL1k3X9VPPm+46VJ4aLdttnunzesqbsv9N1FurD8/v1iTp/yrF978Vu0OOEw33Xin6terz8btkCKR2zJTe66VwJ4gAQsQdqNd4vVmQrhotFRQoNffelMjn31Yd117ok4+toeionjpEz2PXnJehptcCm77nkiAEPnK3fULpRcBUfGBoE9eYuZIYwyvw12PCUqMOAAIm/1uLFJXa0UqwU2dKU1yZ0TnRCcSn2ucPg4mfS8QLXmLwgrcyUhwLW/3fiY/3+h35z7gksgIiZKZRbiC/hv17yhZtxGU01eJwIqocAdKpz9DCfAgTZNeEeZm4Xl7C82UStL/3PU7qKGEAXGKVLtPxObWvuOI2gSsSIGlF0KxPyhPVJIpxR0MOAvZlGZYFQAhqLyCoAYNelh33jVQ3SngZfptbEIe4WTckm3efoAQ8aTQtMqwR9LClet0412vyFejvZ5+5lk1a97MWedms9j1fx92BlYCu5sELEDYjXYEZckrekNamp5/9hn98MUY3XLVcTrq8G6i022kstwEEFyy1rH4NmcQdh+AYFRPkOZKABhUArEGIB1HHVQYIATDaXNmaRUDCFQoNLUhwteASQIBqThQJH8ooKKioLI2ZmtjVp42bsxTVnahMnOKlZWdr6yNBeb3nPwiZRUUqrCoSIVFxaZ6ZdAfVHEg3PgRYOf1yuf1KCY6SrGxMYqNiVJ8nFdJCTFKSopWclK8atZIVHJSglJqxCglOVGpSbGqlRqnhHifoqJiFR0daxoRIQ+jqB3KxOEtSnCRy6i434e7OCJVw6hEqlxH6VNNc1OqK4yNwyIYksDFIiYdNhKQVRYgmKbS8hf5NW/+crVo1UAJcTHyemgjteMAggO0nefEtP5WsRYuSdPQZyYoW3V1y+13q2uXroqiW5c9rASsBLYoAQsQdqOHg5f22rR1uvuuO7VxxSwNuf00tWldX76YeGNl8rIrnSIWwFIqWcPuCxBQWcwUAt6oO5MXj2IrFQiHJR9x/IdBKA0QSlbvMgjhVEnT7jhc7jnkN2AkJ6tA6WnZSkvP0eIV6/X33JX6Z9FqLV25QUVFHnl90fJ4o+SNTlR0XKKSU2sqJaWOUlPqKiEpWbGJyYqLjzf/YmNjFRUdbZQMwMCoZT/R+gEF/H4VFxYqPy9HeXkblZ2VoezsdGVmZSorM0MFWVkKBgoULC6QgoXyBopVO9Wntq0bad92zbVv2yaqXzdBtWolKjW1hmKiY003Rjewz/GqhN0LRs+6boYwQCiR4aYnw7R+jnhODJlj2AyGcmTmDXJOFQAEM3YY4Bh3h8NrGDyHr2Oze2wOZzitKhgEByTgrgmnVQaDysgo0FOvfaEvpyzX0MeG69A+h8rnA6zYw0rASqAsCViAsMufC/OGNhbd/AUL9OCD92vj6t/08J3nqn3b+k4/pXAzJucFvznlvikGwXkDu1by5suqpCO5CmTkqCpnfpucI2Wpg627GJxghfCE3DiCcIAaFjcVJouDfmXnFSs9o0DLV2Zq7vzlmrtwrVasyVZ6Rp4ys4vlS6ijRk1aqm7DxqrXsLFSa9ZWSkotJdVIUXKNFMXGx5ekjmKJGraDuTsO/s3J6U2L2tQHq2Sljvsg0p/vL/YrNydbWRszlZ+7URnpaUpPW6s1a1Zq7crlyly7UnExBUpJjlXd2klq07ye9m3XUG1a1VOd2kmqnRxv2AmvF1DjqtMwYW6AlxMFQUyH20+69BPgNkByYw0MQHACKSKOzfeiQo8Be2Hk5RSbyt7oV5TPo4TEaMOIOAWoNh+3rLtU9ol1XDYOI2e4k/CzkpmVp+ff+FzfTlulW26/X0cdebQBe85R2btWSEL2JCuBPUYCFiDs0q3ireU3dPfcufN1/733qFZcum69ur+aNalJ4bsy2tnu+sDDnSmyEn94iRZxSuxuAkp++YNBZWb7tWpNpv74e7Fm/D5fy9fkKCM7IL8nVQ2btFKjxs1Vp0FTpdSqp5q1YARqKCYmWlFR0fKGqeaQYQLCfngTC7KjV2rsbKPKADaBgN8wEAUFBcrZmKGNAId1q7VqxSLzLydzpWrEh1QvNU4d2zfSAV3aqnXz2qpXJ1Hx8SjgcFEiQIIBUtEKmYBIt6JmRD1No0HD4AJlbgIgt64gy+/rBhMRcNwjIbp1Ss+++qUaN6ilM/ofKE8UVS5hdsq7UxXI3eydw+yUrMoAoGLl5OXo7XE/67X3Z2nwhVfq4osuUVJSUhXc1A5hJbB3ScAChF2yn5s0TyAY0B9//K6brr1GHVrE6YFbB6p27URTXAbw8N+69NUUIBjrnc3yKxgKqLhQysr264/Z/8/eWcdZVXVv/HtrmmFm6Bjp7pDukJASCUVAukM6pBGkxUBCRUQELERKQhSQUASkh+5mmO5777m/z9773JkB+b3EMDDIPf7B+8I5+5y99r57P3utZz3rLDsPnOXPA6cJOn2b9BleIm+hkhQsUobCRUuTNcdLmM2CwCGe13RPgL5ByVLZylUvNrVE7qOTwKYTKFN3ioh3Ky+DOOlqOsPeoalwkcpSUORU4XE4f+oYJ47v41TQIS6fCyLAO56KpQpTqXw+KlYoQPas3qTzNMkMC1FnQXMYpUCS2i7F3+l9l51N8jqI+XZ3eOHfvX4YgKAktoWOgoGwsAS6D/yQft2aU7tqAeyyaJjI0XgKlw4QnG9SnAsNg0lkedhY/uNeps35mRiHhfET3uOt9u2xuN3NjXgKX+l6hcsCadoCLoDwzIbHgd2qse/AfmZPm0j+7A76d29Mlgzp1EItZIqdcfq7vvGpLK/PzCr3vli6yvXQQURENOevhPD3obMcOnaRU+fuoFky4Jc1L/nyFydvgaIEZM6Kt7e/9AzIvT9ZREIFwfUYh/6nkz8g3itI7zLTUH6E2EhS3YVwd3f11zld8CKG7nT9GxxmxdcwaGgOwW+IITw0hCsXz3H29FFuXjlJZOhlsmeE4oUCqVg6P0UKB5LB3x1PN2daoSpklZgamVhnwS5lsR8EEB5mUoiwhvAiCDtu2nGSL75az4LZvQhI7y69GTK75GEaSuk9dwEE3bBChjveypqN+1iydAdvNmuC0c2NFT//xmvt3qZt+3b4+vqm9M2u510W+M9YwAUQntFQapqdvXv30r9nT5rUzseQAU3w8BDCtoK0dzdR7+5PfCrLa+pbJXHvVdFiuW2I064gMho1HJpwi4v/78H5y7fYvvs4azbs4OjZKAJy5KN46YpUrFaHLNlewmRxw2wSRD6jTJtU8XeHJMQlSyDUz67ODABFkkwiQSqyZ5KT/RkCBKeyg0iPlKBF6CiI063Sa1DsSxuiEJKgfYq55LDHERMZxuF//mLvnt+4cOoY7qZQmtYvQ6O6FSlbMjce7sK9L4CnCYOe0pgoQGwQKaApn1vCqoJMa7da6TOnlf0LAAAgAElEQVRsEfnyBzK4dxMsJqUPIQDOvUDkiXMQZINOD4k+v3QvzYYthxg9/hsGdW3Haw1rYXJobPv7CENnLqLHwKH07dMHD08noHJxElJ/IXC9IS1bwAUQnsHo2DWNvXv/5L0JoyiX35eBvZqQPsDDSSmXX6SWfudC9ww+MrVfmeykLs/rupKhqDkRZ7Vx41YER45d4pdtRzh2OhzNnJ5i5WpSslxlsgW+hJeXt4q5y03t7q39wZ+uBJLEpWpYOOPxyZ98BgDB+fpk3Xn4nimBJBGusNqs3Lp1i9NBB/jnzz8Iu3WODL7x1KteiBoVi5HvpSz4ehkleRBR7lnMNAkQUrohivqhKrwg3PnHTlzF19eLnDkCVJrp/wNAUksHwZkGKxMdbTb27DvHzFk/0bhKNTq0bIjFQ/RdZJ84+P3AUeYt+5kWb3ak/dsd8fHx1kFGykHTg+ej6w6XBdKmBVwA4WmOi8i/d2js27ePd0cMoV7F7PTt3ABPbws2rDKHPvnp6kmkez3N7j3yu+ThTm2BIk4uJIgPHbnEqg272f3PTUzeWSlarg6lylYiW7YcuHulw2JRcWKVTaDHCR4jFCCKQolL6AOo698M/qceYnhkA/77AelVkBWuRC0rkW5pJST4NufPHmb/ni3cuniUwIwGWrWoTLUKxciZJT3GRDamqnr4/23kD/w8iVD09FXhB5McD92+TxsgJMuVsTrs7P7zNMNHLabNK/Xo3qYFnl4mMLqrTA+HILra2bb3EDMW/0Czdm/Ru1dfvL0VCHVlNzxw5F03/Ect4AIIT2lgJUnKAQcO7GNA397UfjkrQ/s2J52vJw5RM8CZ+pUYF34y+eBPqXuP9xoNEqw2giNi2LX3GN/+9DdBF6LJXagi1es1I2/Rorh7+kjgJOoeyFx+SSxQm47cinTewON9wL+fcsIEmSL3GMDjSX3H47cjwNM9WQK6npItIZarl8+wd8/v7N6+CT/3GJrUyk/rplXJmsUPD08LJlk2/PE8CQY5x+0yq8RqtePp4ZnUjf/RZOp4EFRwyWqAo8cuMGrMV5QpVoohnd4knZfw1glPh6h5acAu1TUTcNgMbP/7OO99voIOPfrQtWt3LO5uD8zuePyxcj3pskDatoALIKTq+OgOYuE50DSCTp5g7MihlCrgTr9udfH39cEhhWP0XPm7xGyeP4BwbyxZRvUTc+v1077MzjASG69x+vx11m/Zx/a/zxNvyEjhUjUpUrIcOQLz4eXjp9T+hCZeYhxeuKnVbicVA0VqnsOopyM+3qbmHP5EV77+vTKLRCgwJnoX1PukMLJBvPN/8UQeZlLdT3Mgab7oiftJvIOHadJ5T2KZbadSpeJ2CEVBga2EDkPYnWBOnzjE4X07uH3pICUK+NOkXhkqli+Cf3oPTFLHIElZQ9bDuI+Gwd2fpQDCgSMX2LJlPwP7tMbDQ4C6//3xTwIg6H4o+SI5ahKsaBw8eZmJk7+heN4iDOzyJj4eFpndaRSqkbr2g6xpYrBhtIPNZmTb/iPMW7mOlm91oV3H9nh5eSWTvkjZPHuUYXTd67LAs7aACyCk4gjIRUtn0R8/dZIO7dpSq3RmJgx/DU8fMBuEQEtyJcTEJLRU/KrUaVr0NfmWKYhqCiCI075y00qXs8nBmQvX+fyrrazafJgMuUvRoEkbSpSujpe3HwZd6EcWQpKLvapiIPGAzEJQC7vVJNISHZg03bOQzPPyKD10JjWIU6TwUIgyx3aRPy9S9TRnzUjx/SKnwI5msGAzmjBpNj3L/lHelvxenUSnKxkqHoVelMkhtAtsskiT0S7mSCJh4yFelkx+OplNxGYpBYil6FaSn8Rus3PlygW2/vITO7f8QPF8PvTpVIdXG74MjgSpEWG3C7Bkkra5t1bGvQBBALfpH/xMRGgIUyZ2TVa66iE+PQW3JAIEQZAU5FZRYvpSMD36f0ieHPmYOLAbmXzTSW6ErFwlwY4Cm2qmqgwP8ZwA85v/+IdBsxYybsYMOrzRFoueKusKN6RgkFyPPncWcAGEVBkydV5TAMHA2bPnmTBhNN6O64wf3JKsmX1URbl/Ha2czOtU+ahUbfS+AEEWORIVG01ERcVy9NQF1v56kN0Hr5MuoCAVajSgcKny+KTzA1HqWQgVaaL8sihY5AQIyoYyH0EaVOX1i1x7sbCrTf3xT3UKIDiwmYQCoAmzXWyIcTJ84WayyP1AVFVUWgTObAtlSiXD87iXelbCH30jl+BIz0wQpEFVxFL18fF7qL7PIctai+7cLW0tuiWIoVZrPDeuXmLPH5s5e3gHWf3iaNGwFDWrFCJzgC9Gs6rTYNRVPe/Xa2HHG3fC6DZwAf27NaJhzRKqKuaDXAiPa8Jkz8lKoLpFBRi6eiOK8dOWY7J5MaJ3O7JmDMCkiaqWySzprIaptyP1t3Rga7U62LDzbz5f9xs93xlKs1ebYXETpdVdl8sCL44FXAAhVcZaOWfFwns7OIShgwfjzRWmvtuB9D7uKm1NuIGl1kHyD/gPAQQdHNlsNo4EXWbJiu3sPHiFPMVrUqNOC3LnLYjF0wODiHmrHSzp0m0iQYcgt2kOIq6e5M+/9pG3ZFXyFCqAwRGnEtkcbpjuke594JDKdyVnpzuwm2xqM7M7OLLjJ0Ks3lSq0QgPi9AdsGKNi8Fg8sTLzSQV/vXCAo9FYFPcBsVxENwKceJVgRdVYCghIQGb3Sblni1injyB9ENZrVLa+R6pbumKV8YXf1rtVsKCb3Bg727++u1HfMzBdGlbnYb1yuDn66WXq77/Nqk5DPz0yx4+/3Irn33UjxxZvHWPT+pvqxIgSABp59rNSIaOWQJ2dyb170LObBl0L9S93AxdE0KfMMJEOk1Tjo8gN65cv41PfvydCdOn06hBfSwmswskPPAH5rrhv2IBF0B4IiN5v2Q0B7du32TypElcDdrOzAmdyZsnq75Ii9Ookr+9+3p+AIKzwoDz3Ob0IDhd9gnxVq5cu83K1X+xbusp0mcrSv3mb1KkeFlMJnfpxhc2MEqyWDLZX3XMTbwE4U6zRrDxsyl8veIHqrbqQ/eB43AzRMhwhAMLCmL8/5uQM/SRuDXeAxDESV0JC9pAs/Hr/IGcj8xM2/4T8XazcvXAWlZ8tpS8jXrRpmltDHqBn8dluCvCqqwjzfnDf2P1CCCwSHEsJOBuj2HZwjkEnb9Gj2EzyJXBV9Wz+tflnDv36jf8PxP6fwAE5UORaQeysJKsmWAwcev6VXZv28jfO34mfw4Tnd+sycul8+KXzkPKgKsrye4CZ1y+GsKFC9eoXLEYZpNdAsDUdcuLmSgAlggRwJ2QKKZ9uJajB68xfWRfCufKJuGcCEdJfYzkOFTP9kiabLqnSNflEBW3Y2LjWLRyHb8ePsOkqe9TuXJVWZzLdbks8CJYwAUQnsgo68uOrJ6rqtjFx8UxY/o0jvy1gYnDXqdQ/sx6Lri+qN53P0v9k9YT6a449co6wSpua9DMauEVK7Rm4PLVYFau+ZOffzuKf47SVK/zGvkKlcLd2xOZei/j7kIVUIQSROw/eV2AZOAAAzbMxASfYdaUOZh9Ne7cCufdGcvI4qMgiTxd6+9VbgghKiSKGJkRZZ7lf/IWZ7qd+EYHTp0gJcwk5H/FSd2OnQR2LujL+ahctOw3mXQWO5eP7uDbZcsoXvtNXq1XHYcokCT6YRIhAUFYFOqBIgRiUe+W36Wh2R2YhHdAVmIUm5P4e9E/h6ycaLOHs3zqu/jkq0ydN7vjZYzGwxHHquWLOXX2Oh37jSKTrxcOswOzZpL9EG1IUKaTCMWpXWyQyobKQWAU4RpN8BlUiEe+V278zpLhSizKCeakxZ2EUIl11UZq1wxodju3r19i766t7N+znpK5POjQpgoVy+XBwyzGUH6UTrYxK6aG0HISBEDZ71RKE5TpnJIyqhRDHBohETFM/3ANZ0+HMnFgTwpkE7853VuTCGSSfmMy2pAcjEog4cTtSsHTaHcQEx/Lwm/XsffsDSZPn0XRYsVl/5KOBc/L7/bJ/Ppdrbw4FnABhCc81uJ0KFzES79ewpKFs/nwvQ6ULZ5L6r8nluuVp+fnx1twPxOpAr7SKS9j6GKxjInX2Lz1EDM/XUOcOTutOrxD8TJlMFksCGe66H9S+Ry1qEoBHblB6YtsMq+K2ArjHUZO//UDn362ns4DevLDgs+p89ZgXqlSSIINTQANoZhoFwRCAQRicNjEdihKMVvkPeK9YqMSJ1xREEnGobUEbBrYTW5YTCbMRquM99sddnZ82ofzsS/Rqt8E0rmJvceOlhCLweKBWWykJrHpGrAKL5A1Vikamk24mTwxiyJFBkFnFGrZDozWeERJbrvcJx24m4XcsPAemLElhLFyyjC8C1alVtvu+BjicLOIb7NjsxslcBEnX3GSFYBC02xotgTJwNfMZsT+LOs3GExSmVuUmcYitDiNaNZYbFKM0oLFTWzkKldA8QFUKCP5paCUMwyh7hGqlDp2kIJSd25fY/XKL/nr9+94o2lJ+nVtRvYsXshaVw4HNqsZo1loWui+BTneqUO8VZhESVGLrsRExTNl7s9s3HSI+ZOGUbZQPr3ct94HPaQk79c7LudGMiOokNbds11kNgjyaFhkPFPmfcWZ8ATmfb6Y3LlekmBUedBcAOEJL6Ou5tKIBVwA4YkNhDpPiJj7T6u+Z/b0sQzvXZ/G9V7GbBFOcJlMpad8OReV53dhESdFufRrEBtv46/D51n6/R5OX7VRpnJDKlR9Bf8MgRjlKVtul/rRzHnuUsAgicDmVERUy7faqsQdGluWTOKfC/H0Gf4uy+dMJDTBi4FjJuFtked/HI4otv/6PaFRFgi9xMUbYVgTInmpSGXqNnqNjOk95UnaFnOTVd9+Q7ZseTl/ZDehCQnEJyRQtvabVKpWBS+zEaNmZcf8PpyLC6RV3wn4uBmwxV7j22+WULJac4oVKijJlLbYMPZsW8v+f45jNNkwWtLzcvVXKVeuLIKl4NDiOLp3M7v++AObwwu7LQG/HPlo8OrrZM/sT/Tty6z7aTl7Nq3FLWMe8pWsTLEyZahUrTwXDu7n8IlrNGzVEncBfoyQEHaFXb/8xLGT1zEY7Zg9/KjTvC2F8udBePEt9ji2bt6KZvEhvSmU3X/tJyI0lPSZC/JKy7bky5VVpi4mlly+RyshiVabxFNQmQ+KGCoFvBwaMbFRnD55hG1bviX+ziler1+SFo3LEJDOg0+/+J2mr5YnT+6MiUAkdfwH0r+hNnqHgdh4Ox9/sYlffzvG0K4dqF6qMCaDWWeK3A0QRL0NZ2hP/CofBBASeQmag2s3gxk/bxkZ8hVhzKTJZAzw1593hRye2DLqaihNWcAFEJ7IcKiFVJwkD/2zj4EDutO93cu0fbUyZqFBL93puss38X3P88lDZ/Q7DMREw+z5q1m2dj/larWm/qutyJYjp1QxsouURD1CrLIAJETSN/7/BRDEKRzMDhvG+FDenzCB4jWaUa/xKxz46UOWfrOWAbNXUjgwk3IxW4P57IMR/PLbWapUr0Djxi0Ju3KSFd98TbXmXXj9jbcxGTXsEUEM6tWDOzHpaNakEaUqluKfPZvYveMAHQdPo1y5Mli0aHbM7ycBwuv9BEAwYg0LYmDfXjTpPJH6datK78NvqxexfOVqGrbqTMVSRdn6y2p27r1I3wlTKV0gG2Fn9jB78jjyVGtOjeq1iQu7zjfLl1CgUku6tG8H0Tc4cmAHm5d9iVv2opSr25RsObKTP19Wtq/+gU3bgxg5cwpeIqXSEc3mJdNYv3U/LTv2J5O/G7/+8hPXwt3pO2ocOTKlw8sRwYdTx/PXP6fw9vfn1eat8DHEsGr5UgrVeYsunTvhYUjQ61Pcv+SyU37a6QJIBAj6mEmmgtqViY4L5+C+nWxYuZBc/jaaNKzAqtW7mDenFzmypUsEfqkFEIS3Q5z2NauBjxZt4Ief/mT8gB7ULFtMejtEtoYiHKYMIIjemkTMRJJlDZy9do0xcz+jSJU6jBk3Hg93j3sIr09kQXE14rJAmrCACyA8kWFQTPCTJ04xZHBfKpbwY0ivxni7qxitrDMgXef3ius8Hx6EpFir01h2IqMT2PnXaT75civRhmzUb9qBYmUrYfH0xGDXMBk0mVgnxaNl6pjSM3BWmHC6ZZM8CMltoQCCCSvBp7Yx8eO1dBk0gqJ5shF5fg9D3hlB64FzaFSrnMxgMFhDWDRnBEG3Axg2eTKZPL0x2azsXDWHn7efYuSMz8ngA1pEEIP79yd/1Y506tgBLzdBgAxh8bQhRKZ/mT79+uJjjGH7gj6cjcvF633H4+MG1ogTvNOnD007T6J+ncpE3TrFoolD8SnelPbdu5HObCHy1ikWLFpBqSr1qF23MteDdvP3nv3UaNOfDN4GzLZINv28hF3nHIwZ9o4KaWjhfD9+GB6FalC3Yy+8tRgsxmi2rF4jAcKo6RPxMRtICL3IlOGDqNJmAHXr1MHdpBF/+zjvTZxB+Ubtqf9qIwIcYcydOo5jVyPpNXQ8+XLlwV2LYMOy6fx9xcLgke/ia7HLuLqYjkbtPq7/e6bj3UqSSQQ/MZVlpUk07ty4wLofv+GPTd9TsnAOPp7amfy5/DAKz4euhq0Hk1L4S9PThpOd+UXNjmXf7WTxkq307/gGr9Z4GXc3syTAGhwi1KITM5IJPqkQggINKvyRdCV5rZL+TnBJxPwV2TSSx+KwsevgUcZ8+BWd+w+mQ4dOSYqRz8fPOYXj4Hr8RbKACyA8odG+ceMmY0YNxxp1mmljOpI1UzKZ2Sf0jmfRTCJXXq6simR36dod5n+5hR3/BFOiSjOq1nqVTJmyyJi5E0w4l+ZEP8m/Ucb9uyPBlBFNsMBs4exeMYUlP/9Nzeav4+vpjhYbyvrVGyhUoRn9BvbH080oPQifzx1FnH8VenTrgkXEpo1mbp/5k6mzvqLLiImUzp0JW/hxRg0fRtMe06lZrpheB0Jj++qv+PnvG4wcPYys3rBtfi/OxgXSst8EfN00bBHHeKfPABp3fo9GtStx+dhO5k2aQftxcyhaohAW4cy2xxAcFo6nT3rc3D0wagmEXbvIgf37CY6IID4qlLMnjmINKM3UcUMwCp0DIlkxbhhehatRt30PfLQ4zIYYNq9ew+Y/TjJi+gQymO1cOPoXcz5dzTtjhpMziz9uRjN2WygrZo0mxi0nLfuNIYclnDkz5mDPWpLeHV+THAOTw8ofG5aw6fBthg4fiZ9Fk8BLDIUkl96rH/EYG5xo68qlswzv1Y7AwGwE+ifQt3Mt6tYoKTkSBidRUcgaO8mMj5qWKoiPUg7ZgclhlmEtq2ZizYa/mP/5Zrq3fk2Oi1m80MnUdCTWqUzRz0ZpZ0o9TyX35RDvtrFx1z4WrtrK0HFTqVe3jpQDd1ERUmRq18Np0AIugPAEBiUuLo65H8xmz/YfmD+tC1kzppOtinLDz/ulPMpC0liQL+3s2n+G9z9eQ6Q9G290Hki+EqUxGdx08qETTqS015KKT1zoBd7v255rsRru/umlFK4g99njQvFIn51hU5eS2d8Nh/0Oi+eMJEEAhO5dsUiSoJmIq0eZ8sFSWvceRIV8WbGGH2f0iGE06zmDmqWL6LyIBA78voGvNh9n1KhBZPMxsX1hL87GBtJywCTSWxzYI44yoG8/Gneewqu1K3Nq/zZmvr+I0XM/ITBHBswSBYkNXwAos9Dr5erpoyyaO5070THkL1uJIvnycfLY31yPz8b744ZiMljRBEAYPxyvwlWp+1ZPCRBMxLDlZx0gzJhIBkMC+7dvYPFP//Du+AFkC/CT7vMERww7PptM0NV42oyYxUsekcyZNRdylKNnu8a6BLWNHTpAGDZ8RCoBBCPRMRHs+m0jRYuXY8evazjy12o6vFaWjm1rEpBeCSwJvQqJLmVQ/9HmifRVGIV9DVLIypZgZ9Pvxxg/ZSVdW7egY/NXsFhMiggq56tCQffNDk3R1FS/A6EIKnrwycr1bNh3ik8Xfk6Rwvnv4Rel6EWuh10WSBMWcAGEFA6DyFhYufwbln3+AaOGNKRmhUJKre4pqMel8NMf+HhiBFeD69dD+Pr7bWzYdYWi5RtTu2FLfPwz4BDCMZpIExQqdSmrTyDFgGXqmmhP4+S+LUya8AWdhw+n0svFMKvyCERf/ZuZU2fSZMAHVCudD2x3WPzBSOL9K9OjWzcsBsHsNxAStJX3PlpB15FTKZErI7bwE4waMZQWPadTrVRhbIL9b4hj+49fsO5AKKNGjySLl4NtC3SA0H8S6d007OFH6d+3L692nkzDOtW5emgHc94bT6exCylRQhDiEnA4rAQHh+Dl4086QzyLPv6EC+HQuXcPcmTNiLvBxu7N37HxwB0mjhqEwWHFYYhk5YTheAsPwls98dZiMTqi+PXndWz64ySjZk4iwBDH+SN/MHfRegaPGUmuLJlkHQq7PZxvZ07F6pWT5r0HkcMUxuyZczHkKEePdo0l+DFhY8d65UFIFYCgewQEl98hsi4MBhKscRw+tJPf1y0ng+Um/TvXocrLhRGZoeqE/RjcG0l9ULwXzQ5/7DrBBx+uo06V8rzZohHpPAUJVeACldIgdTVS6ZIzXMolOLgTFsmsRd8QpvkwddYMcorMBtlHF2kxlczvavYpW8AFEFJo8N27dzKobzd6d6jEG62qSTen0Kx/rtyN/5IqVknyDqEXgIELV8IYPekrjl/RpEhRwcKlMZkt2KR2vQhoq/7K3PcUVEAUG58kymkmsEWzdskM1m+7xqSPPyW7v0jzE9wEM8a4a8yaOhWrfxFGDOiNmVC+mDOMMyH+jJ08A3ezG2Ytmi3fzGDtzjOM+/ALAjzMaFEnGDqgDyXqdqZ9uzdxmBy4J4Qxd9w7xGeuQv/+/fExxLJtQW/OxwbSor9Kc9TCjzKwX18ad55Iw9q1iL5+lI8nDMKvVFu69uyFlzGemKgrfDhrHnmKV6bFK+V5772p5K3xGm80r4+bwU5C+FW+/OR9LsXn4/2JIzBoCYLqx3cT38GjYDXqdeiDtxaH0RHNrz+vlQBh9IxJpDMmkBB+gUlDhlKn/RBq1qiB2ZSAFnaKMaNmU/nVTjRoVBs/Qpg98wMdILwqay4YsLJz/ZdsOhzMsHtCDFKvIYUhBukxcQh4IEpwq03RKjIfDA5iwm6z5vsvOLFnDUN7N6RJ4/J4e6iUWJXR8gjeNVlGWkWEDh+/TP9Bn9Gsbh26t28iPQdyDjprK6QyQLA700VF6oimEXwnkmGTP6JcvSYMGj0ai1n0zQUQUrisuh5PIxZwAYTHHQgHXLt+nZHD+pM3Sxwj+rfC3aLpynGP2+gzek4u2opEqGT7hAIeRETGsva3f/j0mz1kzlWJlm27kClzdl18R4AHlbmhit4o+mFKlkZx6ncq4sWEXmHxlMF4Fm5E+y498SZOZp3bRJa/I4a1y+excdNWRsxcQWCAgS/nvMPW3ScoWa0l1SpX5M75g2zevI06r3ek6WvNVX2eyJMM7d2FaIc/Neq/ToG8WTiy+zeOnr3D2wNHUbpYYYy2WLYuGMiluKy06jceH0+RxXCcd/r1oUmnsTSsUxujFsVvq5fz3c9/UrVefcoWz8PeP35h78FrvPXOSCoX9ee7rxfz5/5TtGzXnvQWG/t3rOfI4ROYsldj1rTRysYOG78tHM/O4zdp1Lk/Gf38yJUrK9vX/8yW7ScYO30yXmZB9bSx9ss5bP3zFK80aUnmDB7s3fwNwXEBdB88kawii0GLZM7MWZiyl6F7++ZKd4J4dvyyhK0HbzF0+Ch8LUraW56CpaDTI2zS95maQkp857ZfSeftRemKVWSbTh+S2WgkNiaSv3b8ysYfv6BO5az0ersOeXNmRJTDUumWKoXyvleiLoYQcxD6FQ72HbrApIkrKFW4GL07tSXA10uNqyTCpqwvD//LUwogMqtBT+bZf/SULBHdsf8QWrdqhdksCmy5LpcFnn8LuADCY45hTEwMo0aOIvTGP8wY3ZrMGb1lS0pa9nm7xJIntnsBEASZzEFEZBwfLFrHz39cpX6zrlSoWgcfH191j9hkhGCQWOTVKi85CCmnXAi2uKiiaCcy9Dpbf/2N4tWakDNbNjwc4sQtAg9iW3Nw7exBdm3fzssN2pM7s4nP5w4hVMtJvswZuHTpMglmd4pXqEbVylVJn85L1U+IOMHwIUOoUP8N4m6c4WZIBGbPAKo2bEbpksVxF8o5dji2ay3hCR6UqfYKHl4GrDE3WLvqJwqXa0TxQvmVYFFsPPv2bOGv3b9j0wx4+GSkXM2GlChfDrPDTlTwVbas+YYr165hMKUnT6HiFCuYl5Pn7tCoWQNlK6H+d/EIa1Z9T1h0PLmKVaFhk6bcPHOIU2dvU7dJA0R5IA0T0eE32b1tLUeOHJNj5Jc1J3UbNCfPS4FoDjtuWNn2+3YMvtmoXL6kTtS3cyroLy7cjKFWrTp4iIJUzlyaFAMEB9GRYcyYNIYadRtQq1FTVadB9yDJ7olZZbNx+cIp1q74DEP0Kd4d1IyKpfNgktKPQuNB8BMEyEwWF7irRLjgdVg5dzmEAUMXUiJPUQaLss0+XnI+KCHnpwUO7v5dSwKjIC3aE1ixeTsLftjM3E8WUr16zadSoOp5W2Vc3/v8WcAFEB5jzKwJVr7++ms+mTuRee93oGJpQVDSF7jn0r2YxB0QsdUTZ24z65N1HL0ErboOpnipCvpp0yl4pE5/dwMEwfNO2SX4B+I/oVYoaIbxmgmDURVjMgolSvkG4doVm4IVh13DbvIC+22+nDMMu38Fur3dGbs9ErvRDTcPT+XREO06zBARxPAhw2nRbzKVi+bGGi/2Wg8sHh6YRR0CwbgXG6jdhl14KoxmVVBLoAarOMl6yqKTDqyYNAFUbCTExYnMN0wWD0xubthNQm6ijJUAACAASURBVMDHgcVhwm6NJz4hTvpV3D18EIl3QsoZkxtuQhlRaGM4NOKt8STYrPLk6e4mAFoCmvDqmM1yA1ISW0I+OZ74+FgZ+jF6eOJuFt4UtROLipY2h5CKNstDuZqPAvBZZSjIZFJy0kn1KB6DC5BseEUfj/yzmwWfvM+I8XPI+VJh6RlITF/Viz/JwXIYCL0Twk8rP+fisS0M7VWHpvVLyL5K9Uvxzcmnjg46ZYowVk6fv8agEQvJlSkvo/u8TUY/HxxGi5TZFv2/OxtDjaEzkTFlM/LBTzsVRYXg1pR5S7hm9WL23I/Inj37gx923eGyQBq3gAsgPMYAHTzwD2OG9+et1qV5vWEZyTt4GiVtH+NT/59H9HBCYu06SQ/EpjnYu/cc0+dtwhFQkqat3iZnrrwIvWKZFiful0x0tZyLkIBaiJ1aBylnhwkPglj0RVqbBANSllicE5W0s0FsJnpJXqUsYcKRECyzGOz+VejevSsms5BNFvUhxAZsl7UiwALhQQwdNoRm/aZRrXRRWf5XXE5Nf7Fhi41W3G+TJaXFCVHEuFW6nuRXCDe6UaTbiW9UzDuxF5sks92B3ah4FEYBboTHQ8asVaqccPurDdMsayuIvinBH+WrFgd88R7BxVCbnipopfQI3CTIUd8q/l3UObDLtEWRn+8sdyyKLclxkWDHpFj3OnlUb1HNCT1u/0hzShe7Ej0SwGjRvLlo9mi6DxiJt4ePnCNSrjnZbm832DA6LNIecXHR7Px9DXu2LKVB1Rz06lIP//S+apPXPVPOKpey2ilw6XIwYyctw0B6xvTqxEtZ/YX50OScEPPu2QEE6SERH+BQs+1mSDijPlhMoXI1GD12LBY3t0cyr+tmlwXSmgVcAOGBI5KoBCDvDA0JZVCvbuTJHMfIEa0RsiySEHav50AnMyU1n7IT2wM/86FuUMdNZzq6qmIoiGZ2rFYH6zcfYvTEVdRs8jZN3uiCu1c6WYdAbF6ij0roSHkO7kdGTKkHIakLzvwJo6rYKDkSTiEF9RbnuwSJ0mCPZ9e2tdjdc1KrWgUMRiF1rIoUyW+XaW9u2OJCWLX6e8pUaUz+XNnvqe2nQIkCDap1u1FtQAoMKQKm83SadEpV/56870nwy3mSFaBBFRWS7vS76hOoviY+rzBI0v93ziMp0mNK+jdnyWj9XmcL0sV/VyGhpNoD937nQ02Zu25S4EOAMrs1gb179pA1S2byFiqctFHfk8KoJLkFUNEdGnY7xw7/xadzxlC/cnYmDnmdLP5CM0TxWMSJXOaxGAwEh8QyavwSIkINTB/VlxwB6VWZdAGAlGbyv2z/6H1K2RMKtgooq7wnOw+eYMzszxn53jSavdZCL9CWEmZOyr7P9bTLAimxgAsgPNB6ug8XAzExsXzw4Yfs3LiCj9/rSJ68fvpJTwCEe7gHonTwXVdaAAjig3Q6uDzNqgqGkdHxLF+1h2Wrj1O+dlvqvNISdy9PBQacBXvuKXHr3CwfaL5UvkEnuMtiWMJLIASI5F7jZMknxrNVsSZNs2M0qsJR917qNK6n6T85tJPKFniKzQutB+klsOioSVTCVHofDu0hU1wl2DNx4WIQ3y2eRa70EQztWZeCBXJgSFaS8vqtKGZ8tIoLZyJ4t19nShUUxZFUpVSF3tLK7+lu+yfY7Cz5YQO/7D/N7I8/pkixYs+Zd/EpzifXq9K8BVwA4aGGSIijwJYtWxgzZjCThzelXqUCShxId4EbDPqi6WwvLQEE5+E7eV+l4IuD0Mg45sxfzbrt12n99jDKVKolUxidfHTnNipOjsmvtAIQdMgjS/eISorOcsqJAEB2QJ3gktLhkmLld5nkHk/AQ02NF+omdV6WBbI0gwRakiEhyaoPAxDURFRkU7h97QIrFn+EMeIg44e3pmyJQIxmB3ExDt7/4GcOH7rC2P7dKJY3t5LUTjYFxfvT5uUgIiaeSfO+wj1rXqZMn46Hx39DVTVt2tv1ValpARdAeAjrilP0jdu3GTSwF+UKmOnfrSFuQvlFVCm8CyA4t1MdONzV9rM78chTn56GqOL2dowOO9dvxzJ74UZ2Ho6kTcchFC9ZXokZOOP/yb7fnsYBgnRky8wKHTLosXpFknC6eMWYif7dHyA8xFRI0S33w2kpavCpPyz4DA5u37jMkYMHqFijPr5evrqX6cH8E+WL07ksCrERExXOt0s/IfTCTkb2bUCxYtn5bMk2/vj9JGP6vU3FkgWlx+HeTIWHwiNP3T7OAB4cOXOJ0R8spmu/gbR+sx1ms/MAcXfI8hl8ouuVLgs8tAVcAOEhTCWklCdMnsz5o1uZNbYtgdn8ZBxWpQaqS/LDkx1q1Bkp+fV0AYIzMKI+TlSUFEQ6tTjZjTYuXAxm3LSfuBabkdYdB5AvfzE9vu4QlXx0YmDS9z/b3jx4kJJvvnbBFTCK0s0xxEaGcvPmbewON3z9suLn74fZrEooSy9IonCPM5r84Hf9f3fcr9iPENMR+Q6C2KjGQDydVk+/D+q7A6vNyrpVX3P86D/0HzkNXy8hK/5gcKB+I06AoFJVFSERIqLC2bp2Ofu3rSRvzvRcuxDM2L7dqFG2MCZRP0Ime4ryzUnvSbMAQYk5YrXZ+H7973y+dgfzFn1B2XLldA+ICyA8aJa5/j3tWMAFEB4wFnZNY9OmjQwd1ocPxralfuVCSttFaO7rxDlxOr93A33WagjKU+C8dLa3viBfuRHOqPe/4/QtL3oPmUTW7C89t1vW/YZPE6RRWwT7/1jP8mUriYxUKYTRkeE0fK0NDV/vSEA6Ic+rp20KRryebZCSn+bdXhYHsbfPcXDvPnxzV6Bo4ZcQHnkl6PN8AgQRSgi9fZN3h/ThtdZtqNmgFRZLygh4qgi6CaM9js1rvuObzz9keMcm9GzVAE+LInfa5A9OJIkm2S1NAwSZ/aIRHR3P6A+W4J0jH1OmTcfLW2iluABCSn5jrmefrgVcAOEB9r506RIDBvalfGELQ3s1wSJCC+J0mkh+U6w2kZrm9CWIP6Xc8jO+EumVktgusgEMBJ25xtSPNhLmyMnrnfqTPXvuhz0APuPePPzr7XaNCwd+Zvq0OZSt14Zq1RvgYbFx/vA2Vv/4My837krHdm9iMNkUWVH3sCRmJgjPgh5SEeElFWPX//wf27tk+DufdWic27uGGeMnUfK1EfTo/BruFpUJ4gQIcsZIr44QCrq7f3pG4cN3OpXuTO6ZEfNn/95dLJw7g4kzPiRHYG49J+bxX+4EsWIYbPFx/P7LOnauW0qP16vyev3qeHkIrYR/qz6mVYAgf0wii0aMql3j5KVrjJ23jPY9BtK67RvKSyczT55PkPj4I+168nm0gAsg/I9Rs9vsTJn6HgvmTuXdQS1p16YO6XyV+I4z/U1lAqjYbBJAEHnwzx4gyO+RrHPxp40T564zfOJK4j2K0r7nIDJmy4ZRlM/9Dy1WIsZts8WzY9k4ftxzkxHvzye3v5esKWGwh7Phu2VSsrfvyAn4B3gql79DBISUHJG4RLU+Ubo6aQlXKgbicoIFZVs14s7NXWxkwuPkvM8aFcbVS5fwzPAS2TOn04t46bNE8CXEPJJiQCqzJLmWhvjfEmwkk/15FguM8Io4CalCe+DUicMEBR3i1aZtcbOIuPrDkBP/95eLfop2hC6i3arx544trPl6Dv3frE+bxrWwiHTTZPVCpcUEazgNXpLrk5jibMRmt/H1mt/4cv0ulixfSaFCophbsiybNNgH1ye5LOC0gAsg3GcuyNQ5h8aff+5hSM+OlAyM4vSlSPIVLU3HdjWoWKYgbvI0KC4R3xcAwdmQimVLAb4UVSZ4nEmafNF0bndKSObMhetMmLWaSHMB2nUbiq+/n14OVxc/uodD8ThvTwvPCAskxEey7auxbPgnksFT5pHbz1NmZQjRnuiISGKj4wnIkhmEwJX4l9goLpw6wcVrVyRBM3O2AuQrUhR3s9iYBBc1mtMng8iYKQdhd65yJ8JBkaIFuXn+OH5ZCxKQOYvy0GAn6tZF7oTFkC1/Kcy2KE4dO0aGnAXInFGkxKr6CKG3L3D0+Bli42Lx8fUnf7HS+Pmlx6KDBntcOCeOH+Xa7TDczJAzfwleCsyFm0lpBDzN86cECM46HcmwgARUDqNMc3z8S6/QKAWi9N+LQRTl0tj963q2fD+fnq1r8lrtKni6e0rlRDE+RuE+SINZDApryhwPKdClGSwSBIaExTDw/U/JWaIMkydNJp2Pz38KlD/++LueTOsWcAGEe0ZI/shFKdfbtxg6sB9ZErYxpGNOboXE8MWaKP45Y6Vxo6q82bYGgdn9VBKDFBwSgEEX9BGCO7rr+H/Fm50aA09ukuiuTamUI4hxSvb37LkQRr/3LTFuBWnXYxCZMiWTgU30If93XJ7Cg3Bs50qmzV5M7dc60axREwL8/bG4m/UNRmzlRjSjgAfxbPv+Czat3kTuMmXR4kM5dPgSTTv1oX792niYzFgjghg9dAg585bg/LED5ChSh/Zd2rDu03fxKdiC1m+9jckQC/Zoti3/lAvBNl7vPwFL6CFGDn2HBm+Pp0Gt6liwceX033zywRQ0SwBFixfi6MEjpM9ZjO7vDCOzpwWTLZJ1K+fz24495CtVnaiQC1y8GEWrHoOpVqEoRum6UuW1U/2SapFSz1LVTZDUXAUoZSaMTPNNHbZNXFwMf27/hS3fL+SdNxrRom5VjBahTKhYC8Y0CBDuHg8llyUBnQMOnbrAhPlfM3TCROrVa/AMDg+pPltcL/gPWsAFEO4zqMJN/MOKZSz7aCQfDg4kdwa1zUc5DKz/PZj5q6/jnzMvQ3s2pGypAnh5GtFMwiXsllgN0XwfIZ57X/XkAYJ4gzMDQWwk8dy4Hc2o91dzLiQ9PQePJSBjJskIF251eSUPMv9XJrjDiNUaxo/LP+XXX9bhMPlRpkJN8hUsSPGSL5MlWxbMJjNGg5XQq0eZNnIKVdv25JVXXsHDHsv21fP5/rdDDB4/mzzZMhIfeZR+3ToQEetFy44Dadq8Je7mBLb9MJetB+MZNXYi6bzsaJGXmDr1UwpXfoXmzephvX2Efr160LzHNJrWr4Mx7gZL545m11k7I6bMIHfWAK6d+ouZc77glTZdaFSrPFf2b2T+R/Np0vs9qlSqiD0ujB+/+Ij9Z+MYOm4YGQO8EzfsVB0uqfwowi0KjiTExvLnnl0UKVqcTFmyJW7UqQIQZC0O8W4r27as5o/VSxjduQV1K5WWVEX1a0ymPpmqhngCjYsaGXYHn6xczYHLoSxa/DXp06d/Ag27mnBZIHUt4AII/9q14erlSwzs2o7Xygfzeh0/BC9R1is02rChce5KHN9uDGXHgXhq1ipL+7fqkit3JtmSUWY3OE9d/7s0fGoABLG0CtevcGBcvh7CxNmruRKVgTe6DSZLjkC1uUgd+xT5hlN3Vqakdem1NmMzWbHHx3H9fBDHjh7h3OkgTgcdxOSeiVdadaFm3Xp4GaNYvXQOe45G0mNAfwJ8fQR0whB5nkkzl1Lvja7UqlgCQ+Rx+nTvToGX29Kzby+8PdwxYeVy0E5mzl5GnzFTyJ83K7cPr2Pq3G/oNnIGpQrkICr4KP37dKNFt+k0eaU2UZePsmjiSMp1GkeV6pVwc1hx2GI5cCiIjNlzEpjJzLeLFhN0LpxeQ/uSztsNoyayIc4yc8p02g2fQ/EiBbCIgk+p7kBQxFtVj8LMhaAjzJg8gWFjp1CgYGFdK0N5M57o5YySGY1YDQ7i4iL5fd337F27jFFdW1K36su4mQRv5vkBCEKuXPiszl+7zejZn1Gr+Zv06d8fd3dXWegnOndcjT1xC7gAwj0mTUhIYOK7I7j091JmvfMSmdKL6oGiYI9RFeIxWmVMX9MsBJ2xMvLjk9yId2fqmLeoWaMYbu4GjJoFk0zNUsHV/6+QU2oABFUcB5na9+7079h2KIZB786SjHOR/G+QcrkirS/Vd5gnPlkfqsG7uGuij1ZZJ0NUR4y8c4WvP5rM0aCr9JvxNUVyuvHVB++wesM2zG7uqhiV9AxbibfloMM7Y3m1WS08wo/Tv3dfGncaT6OGdTBqon6FiZjQiyye3J+sVTrQ8vXX2b5gCPuv2Ogyeg4Z05mIDD7EgL49aNF1Oo1fqU7wmf3MnrKQQR9+SjYfT7nRizI/NhHIN4Ip5iafTB/Pli2b8PKUMACDJLvasZi86DFhMTWqvozJISpEpo5r32ljRRs0YDfa0ewaP329gBPHjjN8zDS8fHx1qepUAAiJBD5ZdkrG9O1WK5t+XMGRX1cye2Q3iubPnSyEp4IfTm7GQ82Rp3yTCvSJwmEONvz+J3O+WstnK7+jeIkST/lLXK9zWeDRLPDCA4S79hOHg507dzK0fycmtjdTr5yvirOKE7nQn9fLEcvQqyClaQYuhhj49per7DwQTZHypXizbXWKFcyNh0Wc4oXSolAxFBuzIpclP289EYCQqAyo4gXiv6h4O/OWbGb9H8G81WMcefIV1je/ZDnYd+GDtMkIf7SprN8tmP92G1cvX8Ts5acIhNIrbZJ8kVvHtzJlzCiaDFnAKxULsmDmO5wLNtCiRUu8zCZVHVIWePIhe568ZM4SAOHHGNC3D692nkCDujVlWEZG423RrP9qBr8dimTYqAEsfP89ClauR5s2bSTzPurOYQb06U7z7tNp2qAKwWf2MmfKR/SdvoScGXwxE4PDaMRuEwRKM+bYO3w8cyYhdm8aN6yMSZZzNkmuhMVkImf+UqT398XgsN2lCfBYdnrAQ2JGOHUdIu/cZO60sVSpUYv6jdtIL5mzqmRquDKcgFpkkzilmRNi4vhh2TzCTu9iXL92FM+TU68wqgTK0vIMTsyAEb/NuATGf/IVvrmLMum9qVjMzpBJaoyiq02XBVJmARdA0LdVscrEx8UxesgA3CM2MaJ9ZnwFJ0p4APTSsomnq8QkbPHT14iN1zhxMYH5P1znn2tGenZowJuvVcY3neAkCHBhVpV7k1fpS1YIKWVDKBZRIfijlB1jEuws+e4PPvvuGO26vkvJslVUMR1dRVG96163cMpT1VLWhyf5tEb07YvMHT+M7KXq0rJDT9L5mOVpWHhQbp/8nenj36XJoAW8UqEA3381k72n4xk0bASZ/bykxoXZFsbhg2fJkbcgful9sIUf452+fWjSZQIN69aU6YeCq2402ji5bxvvz15Fvabl2LVlJ/0mTqd4zgyyNHN08GEG9O5Gi55TaFK/BlE3TvHpu4Mp0W48DerWxkQM2GLY88cfZAgsSt7AjPz0+XxOXI6l15gRZPR2l9UsNWsUxw6dJG+RMnim85Ay2U/Ysf+vAVAAQZ3LI0OC2bTuZxo3aU46/4yqePX/U9HzSYykE0w76zsI750AJaF3bvD1oumYws4ya2hXcmXJqHNoVNlt50b8JL4htdoQdt1/+jyT5i1j+ieLKFO6lP6q/6hHL7UM6Wr3qVjghQcITiuLRX/H9u3MGPU203v5UiyXu3Qj2wwmmSuftCBL+pRe+EflM2uaVZ6o7sR68O3GK2z49Q6BRYrRuVN9yhXPhbuoCy/zwZJy6eV5/65N+zHHW5ANDVbZlnBlipLNkz/6lQatBlG97qsyXmtzKMJZ0nU/gJCWz2CPYhsNkSa47rP3Wb3tCG17jKBchTJ4WYxEh1xm9Q9LOHzqOoMnf0KujN5EXD/F1PETKN+wPXXq18HDFMuF/Rv5bMkmOr0zgZJF86NFHmNQ3/406TqBV2pVV4BLJv9pxEdfZ9agHoTGReNXoBaDR03B1xQn/z02+Aj9e3enec/3JEmRuAi+//Q9Nh2NYuDw4RQIzMClE3uZ98kyarboQPOmdbl2aCvz582j+pt9qVapAiZrJDs3r2LNpkMMHjuJ/HlySFCa2tuJTNaVNTmE6JcAV7pMsuy7yty5X8nvRxmp/+/eJICQNCfFb1H0OzzkBgs/mEixjBrje7xFem83CVaeOBfiSXTkPm2IHsUmJDDr8+WcvB3P50uX4u/v/9yqa6aSmVzNphELuACCPhC3bt+mR6d2VMx+ioFtM+Jp0t3NKrErUURHndZljEFVTpY68XYconqjZkKzOTh2IZZlG2+y77yZhg3K81br2mTL4o9RptUliaTcCxDEcvxoJ0PhW1Uxas1h5/CRy4x8/2eKV3+LOo3bYBZJ9DI+K5Likm8pd79FhkLStJP24X8tKnYOsXcu8cP333Ng3z4CMmbA29ODkNvXsRndebVdb6pVKi8FbUx2G39t/ZkVP6wnY9ZsCO2fm1cuUrZWU5q0aEc6NxPWyHNMGD+G+m3eoU6Vl6WthKyPnBWOaPatmsviZRt4ve9k6tRpoFIeHRAbcp5xo4fQ8K2h1KtRWUSouH7xNEs+/5LgOzcJzJWNKxcvEJj/ZTp070OArzuaLZRtv6xm4+btZM6eFS1e49zpU7zSuheNmjTEw6ICSamthiDt6CxEJt8m+DTib1WZcOmHkn88eWDpBAjO1iXDQOUfSyB88XwQ3yyYSu18mRj4dku8vQXZT42HU6dSZEEmiZk9/Px5GncKYHns3AX6vjuTIRNn8nqb1pjNitzsulwWSEsWcAEEIfGq2Vm29Es+njCA5VPzkj+7l8paUMtgYmEZNXC6O15K9CadXARAMGoifVCsoXZJPFv1exgffXkZ76yZGTK4A7UrFcBissk2xSIhRVUS21AFlpWz9OEvTRN54XD+chid+nxAjhLNad99KCY3DwyyQJACLncDhHvf8F8KMYhhMWF3GLAQR+jN8wQFHSXeZiRD5kDyFyyKu8Uds8mBVbrqzZgMGlF3rhB08hSa2YtcBYrjJ051mh03owmDI46Q8DDM3plIJ2sPqC1akM40o4YxIYLQ8Hg8fDPibhELvRpjk8NKWFgwZu8MeAsNBkxomgOLPZLTp45zOzwc/yx5yJM7H24m5SIXUM2sWQm7dZlT585idPcjT4Fi+PqkxyzlLeTM0bfDR4OTDz+r1J12zcG5M8exWu0UKFIEoykpPVb5UHSU/KgNP/D+u+dn8hi+UFAUP7FjR/cyf/JgxnVpQatXayiFS+Ht0yTVVKolpC6N84GduO8NKnQjiJ9WVqz5jS3/XGLBl1+RIVOG/5fM/Hhvcj3lskDKLeACCMDlK1cY2qcz9Qpeon1Df9xND7FhOtew+xygVHllscDauXDNwTcbb7L7mI1KVUrSrnV1CuTLhslikPLMQnFRLGUiziquR0suUCeq4NBIJs1azdEb6ejefwIZMmbVCQ8C5Ii0x4foT8rnUppqIUneIVHtX/++uwfOeepMfhJOnkCn7laD7Pz75NuXggrOt+lsuXsIoOodznvkUTjZ1uo88yYjkCaeytUzSd/4dE0cFRXFrMmDKFGmCk1avY3ZIsJtT95j8Ki9El+QYLOy948N7Fr9JWN6vEblEgUlT8GgCY+eUDZN/TDMo363cybZBajU7IRExDF4ynxad+9Lq7ZtXQDhcQzqeiZVLfDCAwSxwS5fvpQ1n4/gk0E58feyYDQllXH+f61/7yE82bqpOVR6mEAJAmvYbPDn8XimLb6E1ehN/4GvU79OGTzdVIqW8kSIS2cyPsSQO4sH2TQD85dsYuXGy/QePp1MWXIlii+I9D5VUvch+vMQ73Td8mJZ4NjRf/h09gT6DZ1I/iJlpafF+CjurVQ0l1B4jE+IYfWyeZz/eyOLJgwiT9Ys4HBTdMXEegip+BGP0bQzdCO8T8IDs2zNb3y7bR/Lf1hFpsxZHqNF1yMuC6SeBV5ogCB+rFdv3KRH+6a8USGcDrW90YwW6Zp/4PU/AIJ4VhWgSXLEGjQHwREaS3+5w5odt3m5UnHe6tiQovmzS81/Kfsr2NoPwUIQ4EC6Ku2w8beDjP9gM693fpdKVaojCupoqh51soqELoDwwPFM0Q3JT/8paijNPOxw2Pjpu685EXScoaMnYXLz0l32D/HbSOVeKJ6J8MoYiLhzlU9mj6dwgI0xPdqRNb1fIt5Oq0XIhHdDEjwdcOlWCP3Gz6H52z3o3rMXboLQ7LpcFkgjFnhhAYKIBdtsNj78aA47Vs3k00E5yZHBrCKrT+CUpDZxg+QQCnAgyz9rRmIEifFsDF+svcXJYBMtWlbnjWZVyCAldJ1kQp0EeQ9YUGWgdEe3pnH8zG36jf6a4pXepPFr7TC7iZCCeKHKrVZkLxWGcF2PZoH7W+zuv02cJk5Z7TRQ4vvRepns7uRdE0kLmo31a78j50t5KVO6ouRPqDLFaSBclYz7I+SYr106x+KPxtOmekG6vVYfk8y0EL+mtMhCkMcHPWxlJN5uZ/Wm3/lm6z4WfrmU3Hnz3qOW8tgj6nrQZYEUW+CFBQjCcufOnad7u1a8XSeUN+qmx2EyY5Z78xNACPrQJMXCk8ZKbPFRcWa+23KHWd+ep0L5Ygzo9SrFC4uUSAEShMCSUw456VsEZ0HmpjsgLtbG8AnLuRKfj069RuLt5a2zzJPemBRicAGER/2lqDS/5PNApbcmXfeQ4KSJU5c0+Kh9eKT7k4fIjIolIaomSu6ERLmP1NpTuDmJICkA8J9/bGH90lnMGdyeCkUL4hDk0jQ7Hoof4SRBB0dEMui9j2jU/m06dumR7KDwFMzoeoXLAv/DAi8gQFAbqChC8/nC+Wz/bhKzBmQls69YBEX88im54x0GEmwmjl+KYvnGW/x9xkiDBhVo93oVArP7YzRYBJ8dDHbpAXB6AwSDPS7BwWdLN/Pdlqt07DOJXHkKy9z8pA1MMh+lxLA49rk8CI++BvwbIChyobrUbin1Ae66/gtATIl/qV/Jvemxj27Hp/VEbEwUP32zgOCjvzFzRA/y5siOIZUqTaa8T3fPI5GX8sOm31m1J4gvvvqGgABXRkPKbexq4UlY4IUFCAlWK+2b1aJlhWBa1/bAoAktflU/W6ZRCwAAIABJREFU4V/r/pOw9L/acKZIGoi1Wtn5TzRTllzA0ycjI4e2pHKlkni4WRBqcqLYi9zs5X6ksfPvs7R/5wve7vselas1wmB0ulKdJ1wXQEjpkP0bICQBA9m2wwkQkmVFqGT9VNEGSGl/HuZ5CQoMdkJDbnP46GEqvlwNDw+vh3n0md8jomhRYSF8OG041fL5MK5Xh0RNhGf+cQ/6AIeNa3dCGPDepzR/qyvdevbCIIXVXJfLAs/WAi8gQBDxVY2vly5l4xejmDYgkOwZhR6B4B443fNP4yQotBCU1oIghBlMJs5djmXZ6ptsO5lArRoV6dSuFoE5M2Gx6A5Jh8adsCgGjf8Wu38l2rzVBw8RWkj0/yYHCDoHQXiIn0Z3nu08fuJvd27zYq7YNZssWOSwi/8tVDQ1MYlk0S5p2kTKiIZBpNcZhTSwAaPJhNFowWg0SQ0BGbq6L8Hl2Q5QIqQRn6fZ2LDuB7b/uol3J84ivV+GJ27b1GhQcoccRk4d28eKRZMY8XZD6pUri1kSjp2/67S56YosI5vDztIfN/HDriCWLV9BjpdypoaZXG26LPBIFnjhAILYLG/evEabFs1p/XIwPVpkwmRSki/Ok+HTImI58+oTiYcOA7Hxdg6ejePTlde5dMdMv97NaNa4HB4+Bqw2E58s3MCGPTF0HTKFgAzZHmmwX5yblQdFjadTbTK5/oHaNESmidEoBIwUirLb7URHRxIREUF4WAiR4aGEhdwiJPQWUeGhRIWHERkRQkx0FPEJcVgTBHAQRbscGE1GTBYTbu4eeHh6kM7HB1+/AHx8M+DnlxF//yz4+mXAzz8jvukDSJfOVzLWbTLE71CgQhBbdeErwX+Q2SgOQbd7CgBCghwjMTGRMisge+58tGvfHYO0z/NwCVuZ0WxW1qxezF/rv+DrqSPJlz0jRqNT9Cytkhbt2A0al26E0P3dOfQZOoo32r0lv9t1uSzwLC3wwgEEm11j1aofmDm0E9/MKEq+rGJ/EIugkzYk0g2fEg/hnpEXW4ECJxrBkQaWrrrG6j8jKVWlJL3ffoXrN8LpP+YH2vWeSPlqtaS4klFUikx7DLJnOad1WWCnt18JEakzpAG7VM60YbUlEBsVSVRYMDeuXebiuSDOnz1JeOgtEuxxJNhjsdusePgaCMjkg79fetL5+5HOLx3eHhbc3S2Y3Sy4WQRvxYjVZsOWYMUWn0BMbCyRERGECqAREUnonUgiQ4SipRl3kwcWgzs+3gEE5s5LYJ7C5HipIP4ZMuHj4ysBhtlsxGAyyiqgMpTxNACCXszq3NnjLPxwEsMmzJGCW7qP5BmP58O+XvBtICz8DrPGD6Z+IV9Gdm+Dp7ubnvuTVjdcwflwEO+AL1f9wj+Xwlnw2WK8vJ6P8M7Djo7rvufPAi8cQIiIiJQleMv476NnU18sZmcp5yTv77MACGIDE/rxUnPPoUnFurgEA3+fs7J87RVOXDMS5vCmQLmmvNWlP+6ePrIshNGZYvf8zb1U+2JJstOJnYK7IU7i0TFRhAff5OrFM5w4cZSLZ48RFx+G1RqLt7+J7IGZyZo9Cxkz+eKb3hNvXw88fb2wuJkwCfqH4HkYLBhMAg6IMILYu5UYlgwb6Id8EX2QKa4ODVGuWP6pGbDZNGKjY4iLiCUqMo6wkGiuXb7FjWvBhNyKxai54eaWjixZ8lCwUHHyFChChkzZ8PH1U94FHeCkRu0DNRBi5hk5dHAfx47so227LjI08vxgT+ECEcDegEOzcP70CZZ/NJqxXRpTs3xxPcqQVj0IytMlptLlmzcYOONzxk6dRZWq1VLtN+Jq2GWBh7HACwcQjhw5wojuzflgUCbyZVCK7Q7hyhPpg3p8+FkBBKm7rCkyokEzSelYK3HEa0bGLbjEr+fzMHLKAtL7Z9RrRKiqDq7rbgs4AYLYnG/fvs1fu7azf+82zp89jJUwipXNR5nyRcidNyfZA7Pi7u4mAYBK+hDMEMXiF+JVMkrhFDt26L4anXgg3qPCE7pcciJO+HdOoKj2qdpR4yXi5aJCofAACc9D8I0QLl66yvGDpzmyN4jQmzYCA/NRrHglKtduQp68+XCzuMuCX6lxOXU7jLJqol3VexClzlPndanQBWcxKTFwJpml9NPyhVzb9wtfvDcAPx9PkOESI0KFUVAT0k7XxKxQNV/s9gTe/2wlN6zuzP/sc5dwUirMFFeTD2+B/zhASMYodwg3sJURI4bhff0HRnfOhqyr4xCnJLEjP1uAkBQzT8qPFou2UF0LumhjyEe3Kd/yXWrWfy0ph1p881NxPz/8hHr6d4rFVY2zqH0RHRHJ9StnCTq+n9OnDnEn9Cr+AW7kzJOF/IUC5Z9evhYsXhZMBlGISYVohGvaCRAlKJAb+r2Vs5T6XSKbQbI/9UqDoo27vDnOu5K2IfnvwrOhXiABg5h7YiO261VCbQl2EiKthNwI58yJC5w/c5Mrl0NwdwsgX94iFC32MrnzFsc/Q2bMZnXCT9Rp0km2j7PxSfgiwlV2YQ8Nq1EEvJ43ZYek9EG7wcD16xdZ8P5IWlYIpG+bpni6uWEXHiV1HpAk08ex1ZOe4xKM6oFC4RHcfegEA6cvZPE3Kyhftryewvyk3+pqz2WBB1vgBQAIwuerHLTHgg7RrV0LJrX3ol5pL7lQqCVF6A3cAxCSrxxPgSN2v6GyYyU8xsCYeZc57ahBzyFT8E3nd/etoiTvi3LJw7oT9JkSBXzs2AgPucmu7ZvYvf1XboWcI2+RrJQuV4CiJfOSPsALdy8PuSEL4pcCAvfEo++1o9MrkGhbuaPcZel/18C6dyx0z8Jjjo9w+cfHJRAXEc+Fs9c4eCCI44fOosX5UbZ8TarXakDugkVkpoRQ6nRK+CYWhnqE3c9mjSPo+BFy5syNf0AmPdX3WZWJekyD6Y8p749DZgYc2L2N1Z9NZeGoHpQtmA9NgDEJEIQQVMre86SeljNarw4rZmVYTCyD3ptH/nJVGDN+Au4eQn75EQbzSX2Yq50X3gL/cYAgj2ryxxWfkMDcjz/gzxVTWTC2MJl81L8JdcK0ChBETHXDX3GM+yqKDkMXUKhY2cQi1Ikz90UCCDJPX9anxGZHxvQvnQ9i397fOHR4F54ecZQsl5tSFUqSMWdGPH3cMQr7aHbdG6AWWXVufABAEPfcJYjx9AGC/FjJpZCsB6zWBCKCIzh19Bx7th0mNNhG1hxFqVSpHkWKvkz6gEy4mQXJVgAVSWh5qEtkc1w+L8iJ0+jYfSiFipcWFn6M4uMP9bqncpPIDBGbri0ujq8+mU6g6TYT+72Nm8nJq0gb3oP7Hwwc/L57P/N+3Mqipd8Q+FJgYgG2p2I810tcFtAt8AIABBVDvnb1Gj06taNTxRs0q+WLWZRZlB5j4UgVi0Za8yAYiLe502vGGdyKdqF5m96YzCLL4Z7rBQMIwgUbExnF3r93sX37OsLCzlGgYFZKVSxEYIFM+MqaFiKzQK2pqvSvflR0BtTl/31eAIIzB0ONu+iPDY24mASuXwzmxP7THD5wAVuCL+Uq1KNqtbpkzyk2lIcj5DkLT29a/z1//rGRdyctwCgyNGQmjyDwPiTKSHNLqgMEt8gB508fY+kHYxnX6RVqVSwrPQdKRjtt9k1A4LDoSHpPmEfnfoNp9lrLZGJoac7Qrg/6D1vghQAIIka99Zf1zJvci4+G5CRHQEIiy10Qxe7yIDj1559xiMGmmfh+2x0WbfGl68j5ZM6W655aAP/H3nmAV1F0b/x3WxoEktBD770jSC9SRYr03jtSFaUICCggvUgHQURFQYoNLOgHoiIqIlIEFOklQAqk3rL7f87svRAiaiIlN/wz38Pjh+7dnT0zO/POOe95jwfiPaohhtvvpZgWLo34uJv8fPBbtm/ZwM3IMzxevxTVG1UkR+5sWMwW4aaB7lKiV2bNhEVpCbjdt54s1lsMDu8PMRg+LsWQQMoDCzdA3sezcRvqHS4iI2/y6/cn2LF5D86EQGo2eIrGjVoTFJQDi01S/O6yzbtDKELElEyOxbOnUapMCZq27KwmluF+99a0wOStyEYGC9gdcby/dhkRv+5g6ZTnyRGcSRU1eziKqcnr6x1XSfYLLlZv3snBs1GsWL8BqyJMeSeg+Q9vmP6TNGKB/wcAQRfRO8aPfoaQGx8wqltuLKq+gTC0PQpr3jFaSplP9Unj1CUnHSef5PH2E2nWvAcWi7Dsxe37iC4SHkagSZTp3eQ/VYlSIyoyioM/fMN33+wk2n6Bso8VpnLVYuTKmwWzj1WdEiW27Gkeh4HihZvkj1F0SAiJipSqyIEpDUAnJ8Rw/+eRMUMTkW3dfgTPPFC4R+azy0n0jTgO/XyK7/ccITbch4rl61O1RiNy582H1Wo1NKPEFnK41m3KeyYmiYy6wvsb19KwcQsKFChsZC7chcBnWCztgAYBCOpr0lyKuLpgykiGP12LLs2fwCokVHdZ9Ps/avd4RwGDus7hP04xeu465i5fQ5XKlf9GhfMen5X+83QL/IMF/h8ABDj955/06dqcad3N1CguZWu9lPSjW3GZXWhOjWXvX+X174IZO3OtIo2ps6SbyJSWFumUfX2SqiahH9n0zeBycPz4Qd58YzFhV4/RpHUtqtUtS+YsgZixKjEhuV6kao2T9Z1Nzt6GREGiqoSaEFJlrU2p5yV1AMLdazvc3T2ua4aGhj3Bzslfz7P93S8Iv6TzVItuPNm8A1a/ADcAdRg+BbGz2252ewwWi1VpHwiJ010p/A44miYBgtKiENVMF1/s3MrJr95hzZSRBGfwdYPK5IViUjaP7/VqI1vmZnQMg19ZTNlaTzB27AR8/fzu9cbpv0+3QIos8MgDBJfDyaqli9m7eTpzxxQgWya3/G6KzPSwLha3p4nTYRpD5l6gdpeZVKxWF7NI8d7KrZMTXNo5xaXIcrIxCaE0wcG5UyfY/flWDh7+krKP56V+82rkyJUNq5DMlOqfFd0sZbENr0rilESDl+hyp4cZ3BJDlTDxSdxNWFSnyOS0BwMQDPe/UbtB6j6IuNItPQ7PLv2XVNakAMFNSlSKoPKOIuBkITo6hh/2/so3nx4ioy2UBo07Uq5SLQIyBaJpTgU45YytPDYmG5ruUDPrltaCO6VTvG23kEQacmApD4KIVrmDLDHRN1n6yig61SikCrVZ1Nh7o5S04UV0uODD/33P8k2fsuH9reTLL2HG9JZugYdngUceIFy7dpXuHTvSsuQperbKgY9FU4uxNzZ1qjPpzHvnKl+dL8eA5xfg42dTm6ZJRJSkqcU6uZuaN77lnX26XcpawgQ6N25G8Pm2zez931aKVshO7WYVyFc4JzZ/EfCRgjyiXWDoF6jy1m71vFum0eH7L77j7Knr7tCCoVCXPXcWKlQuQ6YsGVXFQlW5UwCJ4rEZ9RrcygTuDhrnZYMB4Nke7wQYwv6/rUNxe055RJHMf0mVdBMhDNEFQ2tB0zElOImJ1/ELDMBichrijCpjw/2O6vrEdksKEDzhEoNUKGEE+SOASHdCeFgUP+/9le93nSBntrK06NSXfIWLiw+Gq5fO4NQd5AwtrLwx8j6PGkDwJDOLGb/8dBvfbHmNN6aPJm92KUTlAQjeFG70lNw2cfnaDQa8OJcRk6bSomVL7/+g03v4SFng0QYIus43e/cwrHc71r6Yl+L5zVjU/5LEn5PihZSGp+/TlJAaAacvxtN31lWe6DmDx2o1Ndy97vQ+I26epLN/2YTuU2ce+G0McSJjY9dxOOM5efwwH25ezfXw32naviYVapTFN8B6Sy3SeHsj/VA2eKVk6BYKElKdUxTy0Nk4eSn7ToQTlCsEs7v6YnxEDHE37dTr0JiGzSsTmMFHARJFSVC/sojGnpHxoB5kKCR6AIKCZLoJiyKxCl3QhNMskMWFyPZ5RkZGxygVLRVCE/MiDJe+Znaqe8jzXGYNs8vODxs/571th2n5XDdqPhaKZrIYREsjBwOrrqlrjbGXJxm6Hkmg1p0wRrJyEs1jTTNz7uQFtr+1i2uXnTR9siePV23Ae++sJ1PmDHToPkjOrOr+5mRmQDzwKXKPDzAAlho4j1+FyOtXmfXiYHrWK07/dk/iY7EpwCnj5ZLx9Arm4m3FTfGPTV3+FgTnY8ars9MLON3jnEj/ecos8EgDBHHZLpgxjTP7VjJ1SB4y+MqHJzHWJMWYvAIgaMQ57Cx89zofnyzCsHELyByS4xYD3XA734Vcl2YBgtpX1T4nIkeffvQuP+zfSanKuWjwZFWy5Q4Bi02c73dkb9xt/TZId7cBwodTVqEVLU6j9vXx0ePRXDph58P47tMf+GrXQZ5o24SWnapjE++Bktl2KeEcabeyHtziWgo+eJCMAiNyOjdEdgQkqPRYKQWtuA63NyQjC0CIcCLao2HSjHLEhlvC2Ow1mYeak6O7f2LXF3/wRJemlCyRBd1swSJZGBIsUCDE6Ya0cg/DZkZeQvI8YfIbTe6mO3DEOdj39SG++exXfPQchF+PZ+SYF8lftPgtJchHDyB4YIKEcRLYs+tjfvhgJcsnDCFfTuH3WBHlRbGSd/jm3B4E5QUys//IKeau/4A3Nm0hODj4DsXPlC336VenWyBlFnikAUJ8fDy9O7amY+WTNK+TVa3+6uyVlKCWqgDB2ABl3T95MYa+My/SfMAiKlZteAfT3ujiowEQlKPeHRs+d/oEKxe9jN15ga6DW1K4TAHMVgkByEVWFQJI3O4KEDTjTO3xIHzw0gpMJUrTpNMT+Gjx6GbZjHVM9jg+Wr2DfV8dZ+CC4eQPzWwwwzWH2vjj7Q5DctnXjE2zqVLQDhxYTFI8S+SQ5XInDoeGU7di8/NR4MHk0tHinTjMZmy+JqxSz0Hp+YqsrySsOXHZBaj4qli/xWbGJkI+svFLqXHNhcPhwmLyNXgBZiOtU8CLLrwEewKa2YrFasUiYEN5KO7mRbj7x28AKBFbcimw4tAtRF6/yduLt3JozzmGPTuNx+o1wNfXV5W8FoCQWHbajWrc3ouULTCpefVtD0KiNzA5iI1NYN7EIfSuX4JuTzXApXxUxkTzBuUHxUCQMBEGcI2IimPkK0voNnwMrVq1SgcIqTmp/p89+5EGCId++YkXh3XgteGZyZVFTn3u0shJAUGqAgSJgTpx4sPKT8LYejAPQ8YuJUOgYlMmOSWmPYAgZ2Vj6U0Uydd1YmNj+Gb3J3z12UbyFMlIsza1yJ4/BN2sygQlKkZlZPt72t0AgnjfPQBBnPLbp6zA7AEIrngpeakAgpQgunb4T+aNW0eDYd1o9EQpbGaNm1fEu3CAo2euYBXAYLVS56knKF0yD1gc2HQXuz76BpclEIv9Or8ePEdcvIO8xYtRrXoxTu49xO+nL3LD7qB01dLUf7IamXwNwilOBz9+dZB9+3/H4mvCGe8gJDQXjVrXJCRLgHSN6+dOs3XLPlp1a0H2kEDib0Tx4btfUqh0Ma6evsjJ3y+QEJ9AjgIFaNauLllCDCGoZLdEoRwVVhGFQYeTnRu/4syRy1y9HEfpMvV48umu5Mqd1+Bn3PEED9MibckmJQYIHl6IIizqZnbv2MLRz99kxZThZA30N9JhE9XMTLZtH8CFHoAgReMk5GF3Opmx5n0uOXxZvGQJgRmVDGx6S7fAA7fAIwYQPEQ+s2KDvzxpHLHHNjJxYHZ8re74ovL9pq4j0RMaNpZdObPoRMT60nXmaSo/OZY6Ddq6B96Isd/Z7q/e/4ObYe7kQuWO98RURQnSwvWrF9j09kqOHtvNU51qUKlmafwy2JRXQdz9cjr2uOst/8oHMVzt8gzR2Nd1Jx9PXY25RBkaiwfBFa8qJgrskAh73LWrzHhuJWVbNaNNy7IEWDR2LtvKnh8v0qxHY4IDffjui+/485KTfmN6kDu3hYyai8Uvr+b7n65QuFRO6terTuSlS3ywYQ8BOQMpVDSUKnUqcPq3U+z66ghDJvWnUulsCEPwt/3HWTl/BxWbPk61GkWJOn+Bd5e9y+Ptm/Nkm7r42nRO//gTEydsYvLKFyiUP4TosDCmjVyBXfehUInc1GxcmfCzF9m2bhcthrbjiWZV8VGaGMltwvcQwCJzx6h6KFaT0tOay8S1K1Fs3/AlMRH+dO8zkmKlKmMy24xsCHf83qMzIfn5qfv1JPed77xOAILMAQP8mLl26RxzJw9hdKf6tKtXHat4bVLglflvvUj+r4y6GkaIQday3T8fZ/DkOXy+51uKFiuW/BulX5lugXuwwCMGEIxqebIAXA67Qte2rRlYO4w2jbIl2mfdegL3YLR7/ana84wEfUM61wVbdkew8MusDBm3mGzZ8rhP3F5VkzZFr62iqArcGNuJip07NS6eP807GxYQHnmMTn2bUEhCCqJn8JdUvuQ+zshAkDu4LC5cmp0dU9diLlGWxp0auAGCkZ9gN+nYo8J5dcJqQso/xsAe1TFF3mD26Deo3bM1NRqWwowdLeIasye+Q+mGdWn4dHmy4GDR1FWcve7PkHEdyZXTH/1GDMtHLCI2bxF6Pd+RzJlcaFev8MrLm2jWpTO1HxOAoHNo31GOHAmnYadqZPTzhZhYvn7rA3684OSZCZ3x99M5feAgk8a9x6RVL1CoQDAxV8OYNmoVgbny0Pe5DuTIZcMeGcPbk9dhz5ufPsM74We1J9dAxnUKIMg4GJu+kTcrwMEgZUZdj2bb+s85eew6bdo9Q7XqjbH5iodDwj2i4GhkgxiKjmmxub1v6iXMOBLi2bbpdc58/wGrXn6WXEHisZM38074ExYeQcfhkxkyYQpdu3ZVehXpLd0CD9oCjxhAcK+Fms7eb/bSq2Nzts0oTMk8Evs1NiHFP0+xit79HwYPyUy2rmuR0Hv6b+SuMZyW7ftiE3VA93lH1YlIg81g8rtTBCXH3+Hg4A+72fjGYvKX9ad5u9rkyJ0Vk2LMe9j5/+VFFdNQ+WEUQNDt7JhyJ0CQvBXJArCbXcRdDePVMa9TrGlTurUux+Vjv7N48X4GT2pHgVBJgRQcc5MP520nnABaj25DLmscC6avxydHGXr1qYTZZMUVE8d745eRrX5j6rWqitUcj/lmBIsW76RSgyeoXTW7QXxzObl8/CKHD/7BtZvxJMTGcu7ocSzZ8zJiQhcC3ABhohsgFC4QQlxYGFNHraRBrw48Ub+E4mRocXa2zX6L8z5+DHy2F/428YekpHk8Zxr2mDjCr0eSI28uA7y5hZFio2P55n+H2PPJYapUaEaL1n3IFBiI2eRUcXqvIPin5JX/5lqTcDtcGhfO/Mn8lwbzytDWNKlW3qjJ4qXfm9Pl5JUV73DDL5g5c+fi55/BXXTsPhgk/RbpFvi7b0VXR4hHqenYHQ5mz3yZI7sWs/C5woQE3BlT9QaAcDuzXufz7yN4ZpWdF2ZsIE++AkaevtpcZcHyzhPN382YxJoB4kFQ5C+nnZ++/YI3183m8UbFaNahDr4BFsXsv/cF+d8BghkfBRCcZjuRR/5k1oQ3aDS8D41q5+fA3m95571zPDuxFXmy+yuwkcBN9q/exZHTEbSb2JNcvnYWTV+PLVcZuvUsj83igys+nvfGvUauhk9Sp8VjmEwJmG+E89rSz6hYty61qmbDpbv49YdDbFjyKRl8M1CyRlkK5A3i2Pf7OR+TkZEvdkbE8U4f+JnJ4zYxaeVYChUMIi7sKtNGrqRxvy7UqVsSi0VDi43kg7nvcNYWwKBne+GXQoAgwNgIDugc2nuMHR9/ycjJ/RUx0c0IVcJTmqZz6IffWTdnK7Ueb0fnboPxz5TZXfDKExIzRj9tehISzVwXvL7sFUK1c7w8sgdWOZWrgh7e92aCNb89/Afz39rGsrUbyBWa22v1XB6l3eT/+7s8kh6E8IhwBvfuRMtSf9L2iWBsyp3qTm003Ul6S70JYFZ5fvEavLjqPKd9m9JrwHh8fCT2K+dvT5XJ1Othcp+sshLcGk7CupbNSCUB6mZiYmP47OON7PnfW9R7qhL1mj2O1dctkSwP8BBHk/uwu12nPAgaLlnfNTs7p7yOuWQ5GnUy0hx1kVc2uzA7o/lo1Wfs3X2C/rNHUDC3H38e+pVVy35i8MT25M+bEU1ivo5Its7+mDjfjDw9vAU5TA7mzVyLLXc5unWvgsViRo+L4b0JS8jRoCl1WlRFYIX15g1eW/I5FerVoVbVrCTciGTSmKXkKFKOrn2bkDXEhskey65NO9j3WxzPTO5KoK+JMz/8zMQJ7zF55TiKFAgmNiyMKc+uoGmfztStUwKTyY4rLoYP5rzDOZ8MDBwtACGFIQZVutSEM8HBxpUf4evvS7u+T7qzRG5XvFTpm5qJP46f48P1uwkOKEabzgPJmTef29tg8EM84QZv+Zr+y/SRo9HZU0fZuHACr43rTdE8OdCUMIb3AQQJkcVpGv3GzWTohOk0aNDAC3v5X0Yh/TfebIFHDiDIR3/ixHFG923NwsH+FMwlG26ipso6J/p7avlPJPXMpXEmSqfbrOu0G7qIYiUqujdXs9uDIP30fg+CmNAlYRtxVSs/tBCsQEtwsvXd1eze+w6dBjaiTJXi7qp0iY2essXY0Bu43QzSnCGEo1skPuDksymroWRZGnZ6AhtxKr01PjKKrz/5hs3v7aNBx5a0al8Zq1XDHhHBvNFrqNrxKeo3r4QFO/Yrl5gxaTPVn2pMvaZFyWRKYP6rr+OfqyLduj2OSSJAMdFsnrCUbA0aUadldWzEYr0Rx+JlX1Kufk1qVctC7JUrPDvgNRr1bMuTLargZ04g/Ow55oxdQ0Chogyb1pVMVgtnfjzIhBc3MnH5OIrmDyL62mWmjV5J474dqVenOL44ccQlsG3uRi74+dJ/VG/8bYm1PISZ//cT2WDFGyTdyEuRzJm6nG5921OySuG/XZtEo+LS+Wu8tWQ75vgcDBg+kZx5C7gnlZ9kAAAgAElEQVQTco2wl9D+JP0zZSPoPcuhbrJgj4vhtZljaF4mKwPbNcFk9s6qicIdEXu/uHQDAXnLMWXK5PR0R++ZSo9sTx4tgOAWwdu8aQNbV41j3fN5sJpFujbRJuslAEGJ1zjNrPv0ChuPlWHQ2Hn4+frdioAaIYa0ARCMzcL4I2Q22TCiIyL4ZNubHDzwMa1716F0laKqIuW9tqQAQfFK3MQ50TswO11snryKP+IsFKxcEJPTjj3ayeU/znP+fARVGj/Ok+3rkDWjL05V0dPOF29+yKdfn6Z+s5pkC7Zw4IvvicKPbiM6kzObL366gwXTVxKQuxLdelQHASKxMbw54TVyNWhI/VbVsOl2zDejWbZ0J+Xr1qbG47nQo6NZNPNNwiKtNGldgwxmO9988QOXL97AL0cwIyZ3I5O/H6d+PMjkF99m0vKxyoNw81oY055dSZPe7ahfpzgWswlXbAzvz9/IBZuVQaP7EmDzKCsa1v93gGAoQB798RRf7vyaXoPakilL4N8Oh+ERMhF+JZyNyz/CZM9Nl17PkitvIVVHS9H53CTbex3T1Pq9SyFbF1/t2MS+7atYN+sFQrMGG1kxXgZ7DB0nB+/u+o6te4+w5o03CckiUtHpLd0CD84CjxhA0HFqGqMG96CY348MfjrEzdpOdMbxEoAgp+yrUTDw1TOE1htF01Zd8TG7dRrc452WAIJxnhSAYMEeHcV7by7n0OGddB7QlOIV8mG2yGZ87+7buwEEAyQYRpORPrBzPyfPXAObuBsM70JQSDBFS+cjtEBW/Hx9sbl83UqICcTcjOKHrw9z4tB5NGyqWmSNRuXJkzer2pwtupOvv9yPLTgflSvlQZOUOKeDAzu/IVPh4hQqlRezCCo5Evju2xPkLlCEAnkDlBBS+MXr7P7kZ66ERWG2WShWrjgF82TixPmr1KhbgQx+Pty4cJnPdh2gbqv6hGT2xREXy55Pv6NQhfIUyp9FCRfpjgSOfHOASLMP1WpXweqWXvYobP4TQBAuiKEcrZMQ4yD6RgxZsmXC/C+ATYn1mFxEXLrBtjd2c/mMif5Dx5O3cAkl+SuS0d7ojk/ucin5GfIOF8+dYsroXswe1Znmtaoa9SjcWR7JvdfDuE7m8ZFT5xkyeQ4r3t5EhQoV070ID8Pw/4+f8WgBBDQuXblMvw7NebaFndqVMir38x2LmFcABBNS6Gfv4Th6zbrKuHlvky9/ccxJsivSDkCQo6SmNtzY2Dg+3vImP3y3hQHPtyFvoexKCMolXpz7wP+4G0AwKiIaJ1oZbovThNMqu6IFXZOKj8ZGpuyrqj8KUJHQk/zTXe1Pc4rqMSZNAx9DbVPkjlVFQAE/Ug8BEzbhKEg1akkb1CQjRmpFSEzeicmiiTYyZiFDqLx7J1bNhl13KQaMRQoz+VqVGqNLba5StNqGxSW2EyVISSfUjM3XKXoQVjTdiVXkoCX4pEsFRptbatmY18kBCIaPQcSiDC+C9Fu0ITztbiECz/VG7Qkr0VF23liyhfiITAwY/hIhOUIxK7tauKVVkeRT8/Z1Vd5M9DMcdgcrF00hr+UKrwzvg7+vzV0UzXveQGUFIaqKNxg47hVa9h1G3779sFq9sRql99gtvSf3ZoFHCiDouovdX/+PcUM68ea4HBTM6e9Ob0xkJLdIzL2Z7b/82rMMG2Ku8Q6YseYM38fUYsBzU8gYkNEt4pI0luyNEV4jh95ohvyMEBPjoyPZvmUD332/lS4DmqoYt0ey17N33O+38Vjrjvu6M/puF0FMbFM3XyGJKI6EKYwl+FaNY2MDdusHGO/pEdq5daVH5eGWoJD6vbqFgAaPZQzZAU+1SMMWGlJGWVVcUCWeDQkPddp3e0QMqxrlqo3233Zg4+11wq9GEpghEB8/sxtNpSTkY+JGWDTvr9tJxFV/evUbS2j+QmD2VbUiDPup6hFpxqmgIJoaLhOHf/2JHa/PYOnYPhTKkRXNIrRXoySYdzSjHwlOB4vfeJ9jEU5Wrn6dgAwZ0r0I3jFAj2QvHimAYLcnMH/+XH78dBarRhcmwMeG2ZKElKjyvlPzo5dF1Mm5cBODXj1PxbaTqV7/KaSo839c/x/+xFTmM07fclJ2SQEsl4vPP3iTD3espPeo1pQoWwhNTtSJmlHAKPWbEV+/sx8Pum8e2V9deQ4efouOjGXNwo00f7oeRcrldY9fCgmwUsMhLJKls9eTgWI88+zLBIbkBJPDqGrpFZUMUmhbVcjKmJhzJgyif6MyPN2ghgI5LqkO6jVaZYYPQf58uf8X5r+1g9UbNpK/YMEUvnD65ekWSL4FHimAEBkZQe8u7Xii+Bn6tciCn2Zo8CfdDFIFICTSApIt9cuD8Ux518Yz094kY1A2rMoVLgN3v8/YyZ8MKbpSpYMZZRQT7A727d7Jtq2LaNG9BlXqlBHIYJzH3fFvb3qz1AUISVHSQ0BNuolDP/7Gh5t2MXRMN4KyZfibktH/MgPccs0R16J4Y/5WcoU8Rseew8kodUMU1nBX3vBUrfzb2z2Ed07uZFYeBAkh6WzZsBTr5V95dXQffH3Myptj1G9J/SbhIXExiU/pckQMQycuYPysedSqUzf1O5feg0fWAo8UQDhx4gS92jZl9qBMPF4yAIvmQJMYcpIvPFUAgnuHlBOkjpWZq85z3KcFXQdPVH83m+xpJmtBlnclgCQLqObiwA9fsXrFNJp3rEytJlWwCTkQi7K9tAd9Ok/e13l7U/IAl8S/e+B9VByM20/0OLEMcuGD2zBV2MIJK2dvIGOWTHTu0xyLTeBbyptia6iwic6FE5dYOW8rZcs0p0OXgQRkDDIqZipZbSO08ncttbwo//bGh37+hveXTuX1l4ZSKG8Ow4OARaWHpnZzmoWIK8WbdBwuC89OXUC1lh3pN3BQanct/fmPsAUeGYAgC+1nn3/GvAm9WDsuJzmDbJg1HU1kVZMMYKoBBOXMdHHlRgADXznH452mUqVmU6N/ijyXOLbvvbNOAQSpuqiZuXTmD5YtGk/pyiE82aUuPorgZZwkPar9D3t59cTcVexek01NPBkiFmygNIn9g1URC40mZLX7YO9EhIjEcMTYK91P9/AJPBc8aICg6Vy/FsmCaWtp270pFauVdHMfUv6+CgB4ijVpcPTnU6xb+CEtnx5Goyc7Ki0MRRa95QcTEqUbGSd6nLcChOvXrzB97CBe6FSb9k9Uw2UW+qlBQk3tpnRGRPBaeTwsrNm8k2ORGq8tXapIrekt3QIPwgKPDEAQ4yxdspAfPpnF8udCscn2JHRzd3nbB2G8lN1Tzl1GHPGrQzrPrY5j+JRV5MxdQJ22boOWh72dpuwtjKvlTTSuh11i0dyJZM9rp1O/J/HP5O/ebv/LPe/jb+TUbNaUJsLNazcIu3ZD6kQRmDkzwTkC8fM1Y9atuMy6OiVaZNO7D6dElXmowJMRv5bNVGVRiD6DCjFZkDoAdzRVLOl+oJO/sZ+Okh6/cPYKOUOz4J/B103AuPd5prt0ftjzCzs2H6J77xcpXqYiFnemiqrv4K7zkDRs5q0AIcGRwFuvL8B68QBLxg/Bx088e1Ja21s2YNG7MNJV9x46yeL3PmPDu5vInDnzffx40m+VboHbFnikAMLoQd0pHLCPAS2CVeqVSReAIOliD3ABTuZsklOsxDrsDp3Zb/3JnrC6DH7+ZfxV9oJRMCcttfi4GN5cM5+fDn/AhOmDyZxTCh2ZlZLiX94k0cn6obyjbMwuOz9//jPr13zCjXg7ZpuJ2LA4mnSqz1M9m5Il0IoLK5rZolj4/15W+t97LpxMFTCQ8hMmiLt0jZ+/PU5gsYKULZkVi0Ukn5OkpT1ogOB29htFG41wxv2aa6rKo0vj3XU72P/5Bca/vJy8eQ3SXFoECPIJ/vT9V3yw5lXWvfQMBfNkQ/dG6WWLiRNnrjB27hpmLV1BmbJl0g536d8/o/QrvMgCjwxASEhIoFvzWjzbVuOx4lZ03aridaLBf0tFJxUNLwBBTpRXokz0ePEY5dpOoX6TNmrTuF8L9oN8PdlaPDxLl9PB159/wGefraPbiKfIXzy7e/MxTJ0UIHjc90b55wfb1BaoO/hz/0EWvvIh1ZrVoXrDsvhaNc79/Bvb3t1D6ab1aN+jNn4iFKS7iZTKu3NvLTFAEA/C2f2/sOCldynXpjHduz+Oj68vIu97RxNN4wfIQYiNjlPenowZA9RjZcMzvFX3AzRLeqZGRHg0axdsJ6NPcfoNGkfGTCG3vSLKk3DnwHurB0EAwo2Ia8x7cRjju9SnSa1KHkh1bxPjPv9agF74jXiGTZ5L95Ev0OrplphU+ee0K3t9n02Ufrv7ZIFHBCDoHD16jEkDn2L+M8GEZhN3vgjhiOte5G3ux2J4bxY3AIKd739zMHRhFIMmrydfoeJpJmnBSGIT3oGJU8cPs3DOKFr1rEG1hhWVYI7I1nr43qnpQVD8CEc8e9dv5eOvL/Ds7GHkCrEqUqUZO1++/y37fzlL77GdyJEpAJwOVeTJyIYXBSQROXKhmeSN3drdio1pxqQZdR9EG0Hi8cZp3KzKOst/s+qGAJZinJvBER3HlQtR+GcJIiSLDYvJosSWRDBKeSwU29/QV7g1Q1XanRGSEIKc3E/msJEhkHyOioRMXLrOJ+/vxuG007rzE8bvxaum0lPvHRB50u7EQxcRHs+yaW9To1pnnmzZRW1YEmoRqyfNA/BWgKCyGTQX6xa/SqkMEUwY2NFw6XtNiOH2GhRndzD9tfUQWpSp06bg6+d/y2tzbytV+q/TLXDbAmkaICQmgr2/dQtbFg9j6cgcZM7ooyR/jUVQlttELVWxgpM3v4hl5d7cjJ22Gpufb5qZi7JFyfnk+pXLLFswkUy5ougy8CkyBMrJ1ONfeAgugn+xmKJy2WPZvW4LO/ddZuTMYeTOLl4aAyTERzuIi4kjOLuR6idepnh7NBeOXeDchXCVUZIzfy7yFsuFj69LbdS6w8nvx8+TPWs27NducCkinmLlcxP+50Uy5MhGYM5gdR8fXSP6chTXb0QTWjSPqgNx4rezZM2TkyxZMqhtxqm5iLoSxfGjZ4mNjic4Sxbyl8hPUJYMWDQDLMTHJvDnbxe4dDEcq1UntFgB8ucPxibqkIkogH9nCiW/pOtE34hn1uRVNGlVm2r1KzzAuWYISH2/5xc2rdnLgEFTKVOxGiaL/Fvjf3d8gqmkBfFvBnBK5XBd46evP+fQJ2tZN3UoPj7Cq0n9eZ207y5N492dX7P0w//x6c5PCQ4JSQcI/zbA6f89xRZI0wBB6pvJ0iNSqdNnvELYLyuZOygbflZ/VTTI+K69AyAYKnk2nl96huicvWnXbZhi1t8fV2+Kxz3FP1Abr2ZmyzvLOHh4G4Ofa0+W0CC32/phkwz+vvvSE6crnuPf/MS82Z9Qs2ktmraoRpbsmVUxLHUaF14KJtH/w0d3suvtXez+6ABFqpbEqSVwYP9vNOrYhCeaP6YIjVrkFV4a/To5c+fj4skL5K1Qhk49a/DJkrcx5S9G276N8TEnYHE6+OqN3ZyLsNN2ZHu4foZJY1bTuEdrGjQqK4wHzh35gxULtuObKRMlS+Th6ME/sAVnoc/oTmTPbMaSEMOH63fy3Y/nKV6pBPERV/jtRBhP9XqSWrWKY5GaFv96ojWyCaQw1Gdb9jFoQjdy5JG6JCke9mT+wITZbFKAZ9vbn3HqqItnRs4gR85cqqaBm654617e6kEQr5AcKS6ePsk788bz2gs9KJwndzJt8LAv09j3ywl6vjSPL77cQ9GiRbwSyDxsq6Q/7/5aIE0DBI9jNioikr7dO1G36HEGPRWEzeIuxKNs5SUAAY2bDl86TzxNs6GrKVa8ktqo0k7TOX7iCEvnP0e3IfUoXaX4HQvSg87nT66dpB9qe9ScfLHpf3yycQ8Oi4Wi5YtQqFgeKtYsS448UoRJShU7uHbqTxa+uIn6PZpTp2FFLCSw75Mv2LTtKM9Mf4YCuXxxhV/guT7LuBlrof2Q9tRvXAFfq4vd73/CVz+GM2ZKFzIFJOC6GcPMadspV6smTVoVI+7yOcYOWkmLge1p0LwCxNxg46yNHDgXx3OvDiBHkJWI388yb/aH1GnbmGZNCnH620OsWvolrZ/rQaVKoZji4vj4rU/57qcrjJjWjaxZ/bCIeM8/klqN+gKr521SWQvdBrfDZNNVaeYH1QylSJ2bkTdYMmMTxYs3o1On/lgsRqjvdt0I45Tunc0IG0XfjGLRS6MZ1eZxGteqoop3el3TNU5fDKPrCzOZuXgZDRs2ShNcJq+zY3qH/tECaRogeN7s/LmzNHu8MvNG5aRB5QCjII0S8vGWEIPEfB0c/FNjzCoTvSeuJyRLdi/Seb89R5IeMmVPEZLh9auXmTdzDAXKWGnfsyk2f8/Cb4QevAUgyJuYNIsSxxIyZdjpixw/epwzJ69w8shZ7GYL9ds8QYMny+NndrF5zWYOHoqmz5BWhAT64zJraDevs3D+lzzRuTm1audAD7/CcwNWUvixqvQb8SSBvmZ0l4vzx06xaPYX9JvUmYKFA7h66Civzv2UgZMGUrxQBmLCwnhh0BJaDOzIE03KEH3+HGsmbqJav9bUqFUUm4QUHHEc+fUcWXLkJEdW2LTqS47+EU/3kQ3IFCCCRhrx16JYMWML7cf2pHjZUGy6YjL8bROA5NJcnP/zAv7+fuTMneOBb8oegKBpGod/OsGm1V/Tt+9kSpR7DJPZ8CIYDA6ZT14KEFTxDh2Hw8Hby+eTNf4PpozsTYCvj9vW3oMUxJox8Xb6jHmFFn0G0bvfAHcFyvQdL90C988CaRogKA+CDvv3/0j3ZjXZNq88JfILCctD6HIvRIm/6wfmZv2nQZH8ZTvvfGln1feFGPbiIvz9/VU1A29rSuHglr2MmLeuOfnwndf5ctcaxs7sTebQLOhuZUBDw8FdaehB5vOnwFBSAEnT7VitNlzCnpQN02En7mYkm1Zu46d9Zxg6ewSl82dk9Zz1fPbJMXzMRpVENSiaTkJ8ZrqM7kDjdoXwjbzEmCFradKnHY2alFLyu0JiTIgIZ8OUd8hUtQxtOtbhm6XvcvBsPN0m9iAo0EzM1cuMHfgaTw3oSLMmZbjy+2kWTv2C0Yv7kS1Yx6oZYlK6S8CsCVdsBMvmbODrz07h42NkVxiABywWC30mD6BGg1KYtYR/DU0poqSm4YOvIk166g2kwIwpuvRWrQkTOOPi2Lz6E347YGfs9NfInCUIGzZVs0MRO6UKZoru/hAvVrIUOns+/5jtq17iizWzyBKcUZFXFRnVkNp6iB36+0eJ/3Hi7IVkKlqN8ZNfwmZNGxlRXmG89E4kywJpHiCIu/K9dzexfGpf3p5WipwhifPM3S78VAcIEBcPE1ac4XKWbnTpPwqLxc1kT9YwPbyLDCerBySIroGFi2d/Z9nC52jWsQyVqpdU7HQppSx/vA8g6GguOxdPh2HNlIGQ7CGGnr4q2+wg/Nhx5o5dT9Nn+1Hv8bysmbWOi5E22nauh5+PBd0srngzLpeFLKHBZMrmhyn8Es8PWUWTvk/TqGE5BYhcsuk6HHz+xsd88f1pRr3YnXXT36FYjcq06v4YVpOFmLBLvDBwKS36d6BZ0zJc++MMi17azsC5Q8iVw6Y0+sQXoDlcWG2+6LGRrJq/mUhXVlq0Lo2fxaqAiJy8pffZ82QlQ6Cw1f95Pog2QUxsnBKuskpmhspeeLDhLI8HQSlWajphFyJYOHUj9Rr0oVmrLvhYfVQ5JylUJtjFewGCAYp/P36IOeP78t6MEVQsVUxl74i2hVFhxDuaU9fZvOMLvj4VxYIlS8golR29pnfeYaP0XtybBdI0QNB0F+LSnDNrLoe/mM+KF/LgbxN34K2MffcRLJGRUgX8m7gSaab1yB9pPHg51eo2cZPNvGWpuXMSKUKiMqEZZ1wCa1dMx2E+Sa+RzbFaLUZxGwEHSojK40EQlSBvcB1rRF+9wvIJbxJSvjhtBrYgo00cAz5K1TD86HHmTnyDFs8PoGbVfGxft4WfjsQydEInsodIVokLH7ud/T+dImeRgmTL4QvXL/L80NU06f00TzQqK+r8RiqjbuLUz0eYO30X9ZuV5ts9PzJo6nCKFfBRqYzxly4xZuBSWg7oQKMmZYkLu8qK8Wsp3rYxjZ+qjMmi4YqL57svfiV73nwULJqJnWs/47cTMfSb1pbsGc2IOqM93snBn/6gSIUiBGXy+xczm7h8+irb3/6MDkNakzEkQAEkywMeGw9AUABAtyjthQNf/8aHGw8x5vkFZA/Nj0ulHGv3J8Py3ta9v/m1IWYmACEi4jLTnuvJ+E71aN+kvoLNytGjhMC847vVLWZ+PXmGSWu28NbGTYQEB3tJzx7I4KTfNBUskKYBgpx07QkOnh8zisCoj5jSKxsmpX9g5Jcbf5KQe1MBIMiZ45ffNVqNPsaLyz8kf5EShhTwAySN3etccopEta5xaP93LFnwLEMnt6d02YJoSljITQRUPA83YU5OqA94E0rOO0nPXAkx7F73CZs+PEbLZ9pRtWZ+Asxm4q5FsGXDDn7/8wbDZwwkV3ZfYq5EMn3sWsrXr02zFtUJsMRx6oefWblhNz2f7UW5UjlxRV5gzPDVNOvZhoaNyinBKwEIcpJ3RMUw95klXL8ZT1DZ/IyeMpSM5jicZiexly/yQr8VtBzQkUbNyqHb49m6dAtf/nCBoS/1omBefy4ePcWSBR9Ts01TnmpdhsjDv7N01lZqdG5F3bpFsNpj2bXtaz796hjDp/cnf15JqfwHS2iwZukGnNEWuo5og1+Ar5pnf61IkhxrJv8aT4jB0I6QEI+T+Dg7K17dTP5s1enQayhWfx9jg30YilnJ7/qtK1WJKXclSpfuZM6UUdQtYOO5Hm0UMBbPmSEEdrvaxH94zH35iUqINZm4djOO3pMXsGrtmxQqVDgdINwX66bfxGOBNA4Q4MaNKEYO6knDIofpXC8QTB7ynFvSLxUAwS1Q4hHD0Z28uzuaKe/ZmDz3LYKzZlVkuKQLjVJ+9IKmPAjAjcirLJ03gVyFXbTp3hhfKcQkh6w7+ujJcb9f6nz3ZgCjbzqu65F8/P537D9wnIzBfvj7+hAVdhNTgD9NOjWjUpV8WMxOdUL/+auDbH33azJnDcFmg+tXwqnY6DEatahNJhvER1xn1stv8USbRjxes5S6v7jSZbOTOP+PH3zJW299R8sBT1OrYQVsEn4w6cRdv8LsFzfQoGNzatcpgcnkJOxcGO+t/pTLV6LImTuIsIsR5ClejKf7tSA40InNYWffzu/5dMchQrIF43TZOf9nGE90bEK9puXxE6fNX9Icb3turl2IYObY5bTs3pCaDauq9MOHd941RKDUJNFcuHQXR3/8g5WztzHyubmUrvi4Cs94MzA2PAhGmfgdH7xN1JGdLBjdlwx+frjElrekxB+eVe/2RXjm+Y24BIa+soSRE6ZQq3Z66ed7Wz3Sf53UAmkeIFy7Gsbwrk/xQvsEyhUyg+jdJ14SU3HPNRjbZiQUMv2dcD49VZKxU5ditclpRM66d55EBCCk7rJze3roZit79+xg+6ZZPPdKTwJDDKnetNAULVE3YdU1boTf5MLZMBKcJjIFZyZXgexYfeSUKx4AIzwi6nmuG7GcOxeOU/clR2hOMgZL3QS7iqdbsHLzxg2s/gH4+vqgi/dAvFO6WVVG1J2xREdr+GUIwCrRBTdJwOyyExsTA/6Z8bPK84xiOyZHAhf/vE7EzTiCsmcje+5sWKwSLnNiMlmwaXDjajQXL0Vi8rERGpqTgExC8HMkEqVK7BozovvSl+8+/4m3V3zEKyueJzh7oArBPdTmLvHt8SY5Epysmvs2Fmdhhoycjn+AP/rD7lNKDOBeL8R9f/7Po7wz7znWTx1GtqBgVd3xrrVGUnL/+3St6qZJIy7BxZhZy2jWuTdtO3ROT3W8T/ZNv41hgTQNEOQFTv95imc7N2HVhBxkzhB/l2p5qTvU8iHHJ8CY5ZeJytGZbr2Hq4p34qIWVnRiMOMtAEHOnDdvRjF/9hhKVPajWdu6xsEwLTZV/c7NSTEZXH4p4au7UwWlVK7IGbs1dRUFzWwySIFC7BO5YiwWnLqmpJJFNli5otWObOT+S8aEAgUqsyORoaSSo4Rd3EDEw4BX/1rNAaNOiIBIIywmf5d/ihdMovii5Ghk6uiaEEJlunjEtRLPHbf3RtJRL0dx5WwEJSsVwiyZEA/ZK5U41GCYVePCn5dYteATenSbTPkK1d1VTb17Msl43oy6yvxJg1g8shOlChW45Tl7mD6Zv7OSByA4nPDSojXkq1yb4SOfTS/97N3TKs31Lk0DBFn8vvv2G14b35U1E/LhYxWAkOQMnmoeBMM7IDyJa1Euhs6/QNk2c3isWj1ssv2YdJzmOxOmUhsgeEwlZL6vv/yIbdsXMHhiB0JDc6QxgOA5BkrBLqmr4NmQnbdEewxb354cKq4vtRTURi+btvEtq98mGicBCELCU94Dta270HC4/7+R2eFpAkIECMq9BFqIN0LubdJsSE9cFqfyRiiAoGpAON140ci7N5mM+6oMBAUiZG57PAKJEZs7zVRlPMglku52l6pZD2F5ug0Q3PYTNISuvBqOyFD6D52Ej6+fuyeesJR3os+E+Ju89sooRrZ4jPqPVzG8RmoUUr+/iiisakeYeW3De1wiiJmvziLA3yi5nt7SLXA/LJDmAcJ7mzaya8MY5o0ogL85XqWz3dFSDSBYjRx33cGZazDg1Sv0nrad4CzZFECQRVO03xO3VFrTb22Tqr9S0e56GK9MGspj9bLStEN9bFYf96kv1YyZwrnu3kR1q1rUDS6owIHb/b8NIxNzJwwGu2rucI/8VqaUZ1tWHHYFEMRWLlWDQTwBhoyxEAQSczLECyChCHp++Y8AACAASURBVAlSSJEnN0le3d7tQXBvObczb6TqlUcAwQWaPEue7u67+11uiSTc+j1ER8fg6+eH1WbFlEqE0b8ABHlvM5w6fIaVr25n8DOzKFGmiiJ4Gg40MUrqb7h3m2AuZwKr5k+ieckgurRojMksY+gN/gOjdLcABCFVvvfJLrb99Duvr1tPSEhICr+V9MvTLfD3FkjTAEE+k/kLF3Bx3wJe7p8di5z8vADdq+1It6o1XNMd/PS7k3FrNZ5duEN5ssWFrWrEKaXHRJuumyD1MCes6oHJOEvrUq3QbGLfV5+waeMsRk7rSLY8ObBoFnc+fmKAcGd4xFPZ72H2PXnP8vQ5ZewOw4Wb+LyomA2J/igU4a5T5fFYeOp//LVnCkD8heD5b2/geab7WZ7LExdVcHfUGaex6rW3qdX4cUqVLWxswP92+wfw35MCBOmeZOzEx8bz1sKt6DEFGThqCgEBUizLXYrdSwGChEc2vr6YUOefvNC/Iz5WX68SSlKzQ3fx1fe/MHn1Zrbv+IxcuXI9gFFNv+X/VwukaYAgLtwXXniBwOsfML6rH5rJz4vUCQ0XtKR7bfk6lvX78zPkpbVqEzakZwXMpD5AkIkvbnWP9qTuTGDRrBfIXcBFy571FMgxawZn4k7/QVoBCP/t03ZHHBTbIGm54r+7o4QSlKfhQe/MSUo1y5w68v1J3li8hUETu1FQKkmm0qH8rgBBaUZonPj5DGvn7+CZEbMoWbaK4oEYCCuVOvsvU0NCmF98/D5n973H4vFDyZQx4y2I+N9m1f3/lQkXv5w4R+sRk9n7/Y8UKlTo/j8k/Y7/by2QpgFCXFwcw4b0p0Lm7xnc0g8Nfy8qrCKpcMa8mr8lkn3htegzcqYCCLLKeBNAkD6KMqB4pc8cP8KqlePoP6YlOfMHG0V27qof9/8XICTmJyReOZLqE8j4P5CgTCKwJqOQEJfAhqUfEBMRx8CxHbH5+/6r2uKDWvHuBAjyDRgVEgU6OeM1Vs3ZRO6ganTp85wBYtRHkjp8iX+zgYzdgf172bJsIpsXTCQ0S5Dx/XpVc/HHheu0GDqet9/fTrWq1dIzGbxqfNJ2Z9I0QAi/Hs6g3p1pXeE0nerbcGkBWLzlMGJyIglykgs+9vUormduQ8deY4wcejdBzls8CFJ7QLNI/QEH76xZwE37z/QY8RRWm08iVnRSwz56ACFxMCIxW0FKFt/R3EV9/v7TdyvyPShPggIIxsYqHIiwSxG8Omkl3fq0oVy1ImDR0HVLqugNJAYIKkpupHug6UZWxrEf/uSj9b/w3LjXCArJgtTNMACCt228hhbI6T9+45WRXflsxVSK5MtuABqvETgTm7m4cO0GHZ6dxqRXZtOyVet0gJC292Sv6n2aBggXLpxnYOcWDGthp1FlyQzwf+De3WSPnpt8ddMOwxZfIKjiCJq26nGrqp6iwz3kFLS79l350uWkZ+H82d8Z91xnBjz/FBWrl3CDA8/C7S3IK9kjkKILb9efMGERAOeOi5vMwlDU1cnR5XLh1Fw4HC5cksuvPOea0hoQ7oYu4ldmk0qHlDLHFpsVi9WkCi1JKqWkt0rOgzThyojH4TbXIfndNU7lIp8sv3YSEx3P4YO/UbZcafwDRS7aGDMR+/E0Q5zoQSGW5PTdoIjeuB7Nkhnv0qTRUGrXay5vYRBgvRQgXL50lmkju7N6fB9qViqpwIF3ZDEIt0PmqYvwyBj6jp9Nh75D6N2vf3qqY3KmY/o1ybJAmgYIp/44QZ/WDZg5NJiqRW3oZpvXVFozGOsmwqI0Bs49Q4XWM6hWt/mtvHSvAQju7UoIWTu2vcnHny5j3NzBBAUFJDqJJCbLJWtepbmLhPUvWvvi9RFGhvIaaHDl4lUunL3I1UtR3LgWQ1T4TW5GxBIbHUdCrB2nw4HTpYtUgnKZ+/j5EJDBn4yBGQkMCSQoWyBB2TMQmjc7oblz4pdB0tBMmG4paXpMpZCa+y//vJHLxq+0HQyWmlHtUckXG5kakjppAITbIkmpDxCMV3M6XXzwzi4Of3uTydOX4R+Q2ajwmJrY5W9mq3gQwq9fZtbYgYzrVJfWTWobXhkv8CAY5E8BCDqxsQmMmLqY8vWa8Ny48ekAIc2tPt7b4TQNEI4eOUTvptVZ90pxiucVUqAs7t7hqjT0bcycveKi1ytnaTliGSUq1vBKgGAyWblx4zqvzXmBAqVtNO/SAMs/Cv5774ROac/kPCjubyHMOe0ObkTEEXYxnKMHT3Dil9PExMarg7fF5kO27JnIly8P2bPnIjg4iKDMmfAP8MNmsyivgsOhExMTQ2REONeuhHH+0nnOnbtCfLRDeRrMFjN5i+SiZLnC5C8aSlC2zApMSGVPI+3Ps0u64/J3fRnDbW94HnR0u3gyTNhsNrfW050AwVukgW+/is4fx84xd8I6Ro1dSvkKNVLVr/FP80VsHBMTxdwXR9GuSk4Gd33aAI5egmY8K514tibOXI4tb1FmzF+gPFbpLd0C98MCaRYgSBz/h/3fMuzpJ9g8vzyh2Y1TrrcABDU4upXfz7roOPkcQ2a9TWih4rfGzJs8CJpu4fffDrBy5Xiee6kbgVl8bufi349Zlsr3+Kv/wz1XdBMup865M+c5cfg0Jw+f4WZkNFarD3kLhSpGeJ58oWTLmo2QLMH4+9kwKylvo2qP0lRUhas8e4Yhvax2apemCluJjLPINF+5fJnLl65y5swFTp38k4ioKEwCGArnoni5AhQrUYDAzL6G3UVnQc2fv+YqerQcVPhAd7J7y3fYbH7UbPqYkR0jKauJPAiGSqP3NPHOiPzy7MlrKFH4STp1GYzV6pe60Y9/MI9TsnqmTaRSlhheGtEHk+J/eItNDd0OXXcye+EqwnyyMm/5Cnx8DKGt9JZugXu1QJoFCBL3/eLznbw6rA0bZpQlR4gnxuodHgTPPnHopEbXaWGMX/I+WXPmuWO8vAPMSC8sbN+8mpNndjJkfCfQRNHPWxbBe5vihuNe/P8utWmrnAwzOB06fxw+w47Ne/jj1GkyhWSgeRMp4lSB0HzZ8QnwvZ2O6lYxVMmg6vQo9FKpSqgcvX/p4O1AgVmFElTxH83h9h5Z0Vw64Vcj+OPkOXZ+uoMDP/1KlqAg6jWtQq3GVdSzhfogSloms4TOREnREFDS3BoaItIUFR7FnOdXUa9hdRq3rXVbpsHdI6Pmprf57g2+xt5dB/jmo3OMGr+ATIEhXtdLz6DKQWTl/JlkjzvBnAlDsSVVar236fmff23MMWN0hZOydO16jkZaWLh8NRkzZvzP903/YboFElsgzQIEl+Zi03vv8eaMvrz+UmmyBcmnIicvo3BNajeJEUuRpl37Y5nwhoVn524gJEuORN1KHHNO3d5G37zJ/NmjKV8ziHotH1MEPW8RnLo/ljEkr+V0LbUKjh04wc/fHSEqKoaSJUvyeO0qlCpTVBUSEle9Cu8ng0D6b2KFiUtt3O1amQH2BDuXz19h37c/ceDAQSKiwilTtjgVHi9FvsKhWHyNwl5qTEwiWCXzXE6xLo5+f5IVc9fz4swR5CiQJdGWcX+s9sDuYtKJjohn4cSNdO39EqXKVPJCIGO8vZBT31m/HNef3zB33EAyBwR4BZgxQkyGjLfTZGLDtg/Zczyc11asJjhY0pPTW7oF7t0CaRYgOJ1OVqxYwf/eep6l40qRNYO4Vr0IIIhKv+5k4+fhLP8qlBFTl5M5KKv3AQQRsDn+C3NeHcboqV3JWzSb2oyUq/yO5h2emZROeeVyl8yDWCdf/+9nvv50P1azjUaNG1Cpelly5cmFj1XYiRIusKQovJwigJAEcKizn8ms+iaQVrb8G5FRnDp2hi8/28MvBw9TulJhmj1dm6z5QlS4wmz2MWSbdKcSHtq4/BMS7DF0G9wKk6/hVk4aUvB4EDxqBCm134O4XmVhOF2snfsBBUPr06JdTzCLLLb3NUXe/ehdzn63lYXjBpItU2aDh5DKLSlA+Hj312zac4zFy1eTM2fOVO5d+uMfFQukWYDgcDqZM2cOv30xgwWjShDkL5+MRenjp34z3PYu3cHybVfZ/Gsxhr24gMDAxDrp3uFBkBLDW95bxYFD7zNiUi8yBAW4CxXdGWKQhTKtNdmT7fF2zvx2kc8/3MPVi5HUbViLRk/VJ2v2ECxmmS9SW0FzhwsSpQImg4v2byZJUqzzruYTcqQLq/ISmIXIaDIRFxvPkQMn2PreR1y7doEaT1Slcq2yZMoeqDgQJk1IlRq//nCS4OAA8hUPRXNriCYFCJ6/u1R5KO9oLndK465t+zi2N5xR4+bilzHodqZj6u+/twwlmSBf7/6UAx+tZsn4/oQGB2M2CQ8ldVtigCBFwPccOMiq7d+xeMVq8uS5M5SZuj1Nf3patkDaBQgOB1OmTCH84ApmDi1MRj9Z6MWL4A0LoQEQnC4HM966xDdh1Rg8ZgYBAYFJ5krqnMplqzfkg3Xi4mKYPW0E+UpB615NsVqsbglo7wcInjisSu9zA0NDv0DCCWauXYxix7ZdSuK3dq3qNGhWizz5QzH7SLaLWaUHyuWSKvaX1DW3wM8/ftzJSXf7t/x+le0iWgBCbzA4Eiocopm5eeMm3+/9iZ0f78KhJfDE09UpX7UMVuXxULX8VPfkXQ3hJE9U+nav5ZuQJiJF3tIEIAiX4vSR8yyf/A7jX15HngLFFEAwYupexFk0w8ED+9j5xgyWjO1DYTmdewFAkLE0OCYSVNU58NtJXl3/CYtXrKFAwYJe6Y3xlvmX3o/kWyDNAgS73c4LL4zFenYjU/rnw89XXK+SAuYNJ10DIDicDsavOsdxrRn9h0/Cz09EbFK/uUwm5SUQoufZs6dYPGsE3YfUo0jlQmrJUUJBSUiK3uhBMACCAAIRyZJzlPwbM1qCg5PHzvP2sm0EBQUyZHh/Chcr6M4Pv1u55NQfk7/rgWCXmzfi2PTudj7e9hm1GlWk2dMNCAj0xWLzlB8WEuY/H7u9ZfxkhERvQgBC3LWbLBi/llr1+9GidRd3mMeg7nqPE8HE7yeP8M6isSx7vhfF8+dGl6qdXtQEKJw8fZ7nl2xk8arXKVqkiBf1Lr0radkCaRogDBs2ghwxO5jQIydWmyjTuRSjN/WbByAkMOq1M1zJ2JZeg8d5WfqR0NzMfLd7J9u3zufFV/thzihpcgK0pKBU2vAgqNEWdTs5fesu4qLtfPHBNxzYe4zqdWrQok19smYNwWS2eoXATUrnpuFKNhNnj+fA/kN89N7HxDnjyFMwG606NiBDYAYw2/5VidBbAILK6BAQZ9KxCA9h0fvYb+Rm2Ohp+CgeRWorPt45QpKocunCGVa9MpRlY3tTqmAe7wMIusb5sHCGzFzFolVrKFmiZEqnWfr16Ra4qwXSLEBISEhg4KAhFNC/Yny3rNjUhiYAwRvOHgIQrNgdcQyee5b40C507/8sFqvNO6ahOqJpamPZ+PoCrt78nn4j26p6DLfq5qQRgOCpSiAekWsXr/Lmim3ERUK/QV0pU6k0Nj/Ds2RoC3jD3PhvU0B3cwgung9j/vTVHNj3E4MntKN6g8qYrOKZShsehNsAQMIpsO9/B/l883FGPT+f7FKqWBUz854UW/lUIq6HsWB8L5Y+34uyRfN7HUAQoa+rkdH0eWkxi1a9TqlSpdLwTP9v30f6rx6MBdI0QOjVuw9lM+xjTKcsSv8exT/whk1AsgAs2J1x9J5xFp9ivenUe4T3SKAax27smovFM8dQtloGajWtYNhOSHvqUC7B+duTzntOoG5hIndAQckV6Rrnfr/I1vWfYjHZGPBMX4oUzWcUCVLCQ0IA9DiuvWfzSd4nbeguSM0F8ZJcD4/mlfELCMho49LVi9RuUpkaDSoTEGBIOBt/VJnEO27vHeOXtE8QGRbDnHFvMWDodEqWrWgQFb0IIIg9Y2OieGVEB5aP7UW5YhKG8x6lQoPqrBEVk0CnsbNZvGot5cqUSd7USr8q3QL/YoE0CxDi4+Pp1r07VbMcYHSHYEwmH0wCELwhwqA2WBPxDifdXj5LpjL96NB9KJYkp/JUm53uOhHXrl9k0ewRtOtVnSJl8hr5/woUiPSvd4YYhFUuYSQpdCV9dLpM/HbgFJvX7qBi+TJ07tWWkKwyHwzrGjJFHgqf8e9UxmFyCIapNkBJH2wQSuWdDh06xsrX1jNu4nP8duwo69ZupFL1EjRtU5OMgaJIKKEUy190LLyHpJg4e8eEy25iwaT11KjZlfpN22JJ9aJSSUIMmHDERTN5SBsFECqVKowoj6Z+M4Cy+GEsuIi122k5ciaLV6+lQrnyXnFMSn0bpffgXi2QpgFCp86dqZPrMCPaS8EXH+VB8AoKgnv/iXe46DTlLCGVBtCx6xCvyJ/2bJtyCvr9xGFWr3ieZya0JSRHYCKim8T071wEveMEqsoOKPa28PYlcnD857O8vewDqtWsSLde7ciQKdBQIbzz/JzkNJ3WAILRfQEIv//xJ8eOHKf5U0bhr18PHea1easoU6UIzTrWxi/ATwE8qy6ZGrddQN6U5phYfdKkWXhvzWeYteL06D3S7fnwBi+gYXOXwEtnPC8OaKVIipVLF/IygCD1MB3YXTrNn5nGIgEI5SukA4R73RnTf2+sOXpyJOO80FjiQejYsSN1cx9jRLtAIy4oymJe8mnIQUgBhJfOkrXyQDp0e0bJ7HuaYfbUcXfIBqtpOnu++Iivvl7JiEld8cuQmB/hvQBByiWr+gcCDg6dZtuaz6lZqzpPd2mOf0Y/zJpRJ+FOpPhX17a3ehAMUqL7FUQ5UXfe2uhlzijhJ+UR8TDpdQ788Aurl2+gYIlctOhcj8DMGZXYVeKyxN4KEORl9+w8wLH9cQwdNR2br78Cf97SBCDgjGdC/9Yse6GH8iB4R4jB40EQgODCrus8OWSq4iBUTAwQvAdrecuQpvcjBRZI2wChQwfq5PmNke0D0XXvBAidFUAYQPvuw5KUeNGTJeebgrFM9qWyvdidCax9bTpOnz/oOrgFPr6Jj93eBRASp72pUsdonDlynmUzN9KwST26dG+Lf0aRSJYUTalXYIR4EsGxNONBkPdT9SJ0E5cuXcbf34+goKBEJ2sJmoimgQA6eUcnTt3F0V9PMG/6UqrWKUOLTvWxWA3VRWkqLPNvqk7Jnj3348LEqcgmDv/8Ozvf+oWRYxYSGJQLs0pV9oZ0ZcODYHLGM76/eBDcAMErdBDuBAhO3UyzoZNZtPJ1KlYQPlF6S7fAvVsgbQOEjh2pl/sYw9tnSgQQ7t0o9+MO4kFIcLjoNvUsmcr3p4MABPeeZZT1TT2AILK9cfHRTBjZnZrN89G4TU2sf/HLJ/XTP/xTneFjEbVDHYvKRDA2u+uXwnlz4TaKFCxC94GdCMycQXlELIpgaZyw/5Fi4MX8Aw9AkHedNX0u505eoWq1ahQpmZ+LZy9SvVZlQgvkxCxFnGSi6qL/ILax8sO+g6xa8Sa1mlSkduOq2GxWQ+8iOaJP92PSJ/sed86lS+fCWD5tGyPGLCFXvhJYlJfIOwCC6qkzgXEDWrH0+R5ULlkY3SsAglGkScbW7NJwmMw8OUQAwloFENIdB8mejOkX/oMF0jRA6Ny1MzVzHGFkO1EolBxqkap9+BvZ3ewre5Dd4aLnjDP4luhLpx7DsbgRgkEATD2AICfPq9cu8fyQNvQY3YgqdcogjkpvbIptoMZUCtPoRIfHsmr+BrIGhTJ01ACCQjIpwSdpHmljrzosp9CoBkCQ1EwTa1a8wfrFm9A1EwGZ/EiIS6BTj6dp1q4JOUOzKgDgaRJScDk0Pv/sK1avXken/q14rFZZrLfKE3vrlqERFX6DBRPepnO3KZStUgeLsoGXAAQl1x3NlOHtWPZ8TyoUlywG7xBK8gAEyU6Oc+o0HzaFJavWUrF8+RTOuvTL0y1wdwukXYCQEE/3Ht2pEnSAZztkArOvWlS8ZRlUAMHuot/ss2gFe9K19yisFrccbmoDBF3n+InDzJnSn2emdqBIKUkJ9M70PwEFLpESNus4YhL4YMPnHNp/ipdmvkD+wvkUaPAw9A3PjLsSoxd7Cf5pMUoMED7etpM5E5ep2gxqeES6wmIia+5gGj3ZkIZN61K8dCEjfVbEoiT44HKx7vX17Nv3C31GtSNv/ixGUSjvwM13eXWNuOg4Vs98n1Kl2vJkm+6qrLXVi3gIUZHXmf18N5ZJmmORgkYKsKel4jzzJONI8fGb8S5aPzudpatep3zZcun7XboF7osF0ixAEKGk3n37UMpnLy90CcGsxGKkLK63rIQ6dofG0EVniMrShR4DxuBjM07pqe1BkC31h33/Y92KSTw/uxfZQiXG7Z0AQXZFkeWVsrsHvvqVz7d/ozwHpcuWUCfNW1oHiT4HRQBNxYX7Xr7M2xwEMz999ysvDJ5M9M2Y254Ct0xAjjzZeOGlkVStXR6zRQCCzC2xh5PY6FiWL1rP9chIug9rQ8YgX1W7wWhJv4/UhtQazngnby35CJOrBANGTEDSUETu21ta2JWLLJncXwGEMoXzu6vGuq3pBXNNQyM8Oo4u4+cpD0LZ0qW9xXTp/UjjFkjTAGHw0CHkjv+UF3tmx2LzwexVvmUrdpedZ5ef5aytNf2GTsDXx8gUSG2AIPHdHR9vYsf2JUxaPBi/jB6JW++bzcI5EPBy9XwUCyetpG37VrTq8KQRTlDFfQRAJNnk0ig4uLV9u1/n7B+XGdBhBFERN9zzxnjpnHmzMmXWWMpVKoMu9Rgku0EVqZLmVNk8509dYtJzc6nSqDzNO9VDMIQBDpK67lMDGCbe/KX0s872dV9y5GD8/7F3HvBRVF0b/29NI4XekaL0qoAiSlUQkC699w6hhBI6hN57lSIgHQRUQARRsGAFld57L+lld2fe370zm4SAApJsAm/m+3glYXZm9tw79zz3nOc8h6ApSzGaRIlmCjkMKpcvnmPFZH8WDGpHodw5UOKVAKcEMKqoKtfuBdNl7DzZi6FwocIpxHipj/GiW+CFBQiiWVO//v3xvLWFER2z4242SSJbyunFYMGmxDBq5VX+CK1E175j8XAXNerJDxBQ7Wxeu5hfjmxm+PQe0mbxa+ZT1KQ2GQgPjmD1vK0YbBb6DelO2vS+0tdpm0zh8BLuNoXTSzEu5pnMqZU5Cpqlg+vXgunerD83L9+U1xCphNeK5qWLf1verlhGVm2Ic4WD0Gyg/RGBFcWh8N3eQ3yyfB0tetajQPG8oIrqh/g1IfH//kyP+ZwnPwxSBMfiqy3f881nZ5g0+1M80whOUcqJIBw/epjPFo1i4aB25MuVNcVFEMT7e/7KTfpOXykBQv78+Z9zfFI/nmoBzQIvLkCw2Rg6NJCo0ysZ1zU3YhOstXtOCQuL3qxJtTNz4032nCtJj8GT8fTS2j0ndwTBbothzbLp3Io8RPdBbVAURwoScYp7NaW7Mxr5cdfv7Nr0LcPG9SNvvlf0nLsTIPzTrvjFBAhaikEDCLdvhdGv/VDOHTuPwWigUIn89B3WlULFC2I2m2SZrAAJIsSsFb3phyrKPcFud7Bo/iquXrtKh74NsXoIm8TvSeEEFa5eDhMCBCOH9v/BZyt+Yfi45WTKnD3FlDmK1Myhnw5wcPMsFgzuSM5MGQQRJM7UKSDFILKDf588x8ilW6UOQt68eV9QeOzqeZh6vydZ4IUFCDabjYkTx3Hx+5lM7Z0fX/eUlXYWdfh2RWXFznus+ikXfUbOxdtH5PqTHyAI2y1bEITR7wLNO9ZPOYvxY2ZrSHAkiyZ/SsWK71K/SQ0tnC5WxFgf828AQc9DPOktSEH/LvghmsiTSnBwBIO6jeavn49TunwJ+gzqwKuF84EMcccBoEcAgtb0Wp5x4fxlJoycR+W6pXm7SimMBlM8KJEyAIJIjxz59ThrZu8lYPhicuXOn4KqGFS+/moHp75ZzewhncjiJ2S8DbHtIpI3xaCBSZFiO3T4KDM37WP2oo/JlUuQjlOPVAs8vwVeWIBgt9uZO3cmP28dxewBRUjv9YTa9+e31TNdQaTBFcXA5z+EMX6zG/0nLscvbcYUARCioqJZODOQXMXsVKtfSXO6KWHDLTkFceOo2Azs3HKQ08cuEBDYmwyZ/LToi2i+FMszeBggyLpwVbQT1koFDVJUSJzzaAOjlJOGEGkBkR7TA+s6rgmPiGTM4Gk47Ao9erfh1QK5pACUUN+P30xLix88HDkTdhRXs8XY2LJ6O198tQf/4R3IlC29PtbO85Nj4BPwIFQ4e/ISi4K20XvALPIXej3F6CAIY21Yu5LQo7uZNaQradN4aEJWOnUjJQAE1WRk78FDrPjqd2YtWkq2bNmeaa1KPTnVAv9kgRcWIIhyrk8+WcmOhb1YGFiUjN6i1XNyEK4eb1q54KtGDp2IocuMUAbNWk/6jNqLm5wpBrHbiAgPY84Ef8rWyELZyiVl6CUlWE42YBLBdeHkDUauXLrN2L5z6NGnE+/XeBej0axzJeKcYXw3J8CBwwhWEV7Xva3gpcgdn8GAQxXdPuN6HgqNhWQFCYJrYDTKUk2jwyZ3gor4WeyfxXew2fhm70HKvlmatH6ilPcfnHosHyNuLsY6MFTCH0TSr/sISrz9GrWaVsZgEeBJs3WKqF4xqNy4covpAWvo1HMSJd54N8UABAG8lsydQbr7R5g2pAduVqGBoKYogCDg1me797L11wvMWbSUzJkypXq8VAskigVeWIAgxHG2b9/O7MHNWD2+BFn97CkLIOg7uL8vQOPh1xkwax3Zc+ZLMQBh+pju1GxZjAJv5Im3G0+UOfV8FxG6BiL6Yrfz2aqvOff3FcZMDsQnnY+8ruYj43a9TpcpXL1DKsspHN1/iDMXb+HQlZME2MiQJS25Xs1N5uyZcbeIHH0ygwN91y/iG1GhoYSFx+Cd1g8vd7PW3xNIoQAAIABJREFUVVPvuKnYHJhMWncCDeg8xrz/AhDk2aqB/XsOsmn9VjoHNMc3q7ceXXm+oUq0T5sg+G4wQT2W0q5TEGXerppi0l52xcHciSMpYL3BuP5dpdiZ5IampAiCwcCydZs4dDlSRhB8fX1TOQiJNjn/vy/0wgIEEdo7ePB7+jV9jy0zipMjgwjRpoR9cLwJZVA5c03ILV+l5eCPyV/4dencklNqWexSw8NCmTS8M427vUW+otlTFHlDtNtSjQr3bt5n4dhP6dSrLW+ULqZJKMsyVvG3uHGODxBEnyYcNlYFjGXf8Tv4vZIZA3ZUu50H125x+34YDbq146NG1fFxE/v05CW0iruLVNm3yz9h6ZqfaBU0mFrv5I6Lceiqik9sUfoEgCDuExIcwfihUynxTn4q1CyrV4GkDLVCIf4U8iCUUZ0X0qrdSMpVqpEiOAjCbhHREUwf1Y/qr3rQt0NzKUkuMFqKAQiqiEIZmLZoGeejvZmzcDFuHqLhVeqRaoHnt8ALCxDEVz9y+A/a1yjHxmnFyJNF5K5T0mshlhGFqw8cdJhwhQotplO6XBU9vSC3dcnSrEkAhNCQYCYMbU+7Ae+TM3/GOA2d559Pz30FQa0THQwP7vqJo79cYlDQQNJ4uWNWHLq9Hq6RfwQg2G2sHzIWa5Hy1GxRDwuhqA4b169c5/Mtu9mz+1dqt2xDi1aVsBpFyuHf54ykOkhuRMIjPgHy4XJBWUmjKxvqrAodjEjXIptNOT8t+mL8sGMHmz/7heZ9OvFmiWyymbXmhTRSguheqX1O+9Qjz/IUAMHhsLNtwy6+2L2TgNHdSePjlqzZlYesaYLocBtD282iacuhVHi/dooACAI+BYfcZ8KQLvT4oDgt6lWTkaeUwUHQuDeCZyOec/T0JUT4ZmPa3PmYzOZUgPDcK1HqBWSs9kVt9ywe/tTJY7T78B3mD34FWeYtNdKTg3T1qPMwCGU7VeFOpJ2ec67xyjuDqFztIykCI+LHydVlW7im0JAHEiB0HlKTTK/46KAlJdhNC2ZEhkQxZ/Ryqr5fmdqNa8uIixTBik0vPLrzl7/RIwhrh47FWvgd6rZpgJsahqoo2EVVSUQ4WxZs4NtvjjJg/ijy5EyDWThyg+D8OwgJi5CpDU9PDyxuVq2roGi5rBhQ7A6ZFLAIXYbQSBx28PB2x2Ix4rBHERoWg0MBb780GEUYWhYUigcy4lBVoiNCiYqwYXRzw8PbIjuHqOLLmt2wR4UTGhqFt7c3bhatQMNmt2O0uqGoMUQHh6E4zLj5+GCxGjEqjtiggmz/LOZTgin4MFYWCELh3LnLjBo0lRpNKvD2eyVkRUPyHAkiF0YDthiFIa1m0KTFECpWq5siAIJYS27dvM6YgDZM61mf98qVwqiYUkgVg9bVVIQyYmx2+gfNJVuxMowMGp+yhKaSZ4Kl3jWRLPBCA4RLF8/ToVF1hrawUrGEGVV1tsBNJOv858sI92AUgnZEORz0X3wbe65W1G/SRU8v/OcLJ8IHDYQEP2D8sPZ0G/ohGXIJbQZtZ5syDgN//nycdXO/ZOyUweTOn1vupIXUsnY8vjRP6AfIOgXFzqeBYyRAqNdWBwiqil2AANXA3b//ZmjPCVQb4E/9mqVxEwvsgzvs3LKbA0dOYbQ78PD1pX6bxhR5NQtuFncsqsKGddswpcmANeoGe7/5i+goG/lLlaR2rXL8unMvPx4+SbjdwVtVK1Dro+qkFbocBgummCh+2PsDO3b9RpQtROoTZCuYnyZtGpBB1OYajNw4e4Jly7+kY+8OZM3gRUTIPZYt2cgb5ctz48xJfvjxBPaoSPKWLE3TdvVI720WdQzSGlr3ShmPemj4EgIE0cRMOOHpExdxJ/QmHfwb4uHplUxDnkAHQY6bkUEtp9G42SAqVq+XYgDClQvnGN63GdtmDqRovhyyQkZGh5KdgyDIvFpaNSw0im7Dp1G5XiN6+vfTdEJSj1QLJIIFXmiAcOvWTbq0akjrd29Tr7w7KqIfQ8o4tKCw2HnGMH5dCCcc1WjZdZjUzRfKd8n1CosAtQAIE4Z2oPPg6mTOm/aJYXbXWVTFEeVg5fwtYLcweHgfrO4WucOPU9F+PG/gnwCCuxom7S1KAR0mM+E3rjCw+1iK12tBxybv4mVQ2Dp/Cbt/Pc8HjWuTxceNA3u/4dxtG70H9eC1XGlxd0QwZth4fvrjLkWL5eaNciUJvXWTbat2kzZXdvLkzkqZckW5cOIUO789RsDEIZQrmgGDonL857+YOmkNJatUpGLFIty8cJpPlnxKhaZNad68Fm4onPz5e3r2mcOsdQspmjsdD26cp3+ncdgtaclXMBflqrzF/Yvn2bh8B80CulGrdgXcjY5Y9csnAwQNWInzjh45yZRJM+nWvxU58mWRuND10ayEAEHFbkeLIDQfnIIAAhz/81cWBPXiywWjyZ7BV0aUUkKKQYylIOWKFMPte8G0GTSBzv0G0bxlqxSwCXHdipF6p6S1wAsNEEJDQ+nRpTWVc/xJ2w+8UPGUOvQp49BY8qoazYo94Ww/UYSug+ZIQpF4uZMtuKtzECYN60SrPhXJVSBTHOMq2Q3n4PaVu8wLWkuLTo2oXOWdWFLnk9psPAQQho7BWqg89ds2xE0Nl9EH1aBgNxqJun+LQP/xeJf4gMCu72MJvkffzkHU7NuVylWKYlViMIbdpX/3qZSqWoNGrd/HRw0laNhkLt7zZkRQL9JlMkF4CNM6DCHilbL0G90dX2sEjpuX8R+6krrtO1CtXAbpeH8/dIw/jl2nYYv3SOdhxWELZ9eKNew9FsKIiQF4W1RO/nyA7n3mMGftQorkTUfItQv07RREmtwlGDimO1kzWoi+f5+FAUFE5MgvgYuvRSvZjIup/FsEIU5XKiwknAmjZlC8TEHK1ygpFTS1FIUzFuGKSfDwOyrAW3SkneHt59C0ZSAV3q+TIiIIqurg4L4v+OXz5Swb25sMaTxlIykZHUzmCIIGEMCkGrh08w4N+4xm5sIlVK1aNRUguGIK/5/c44UGCDa7jX7+PcnF1/RvkAYVd53QlRJGTxPqUQwx7Dscw/RtPvSesFE23ROLsQYQXM+id1YxTB7ehY86l+G1Eq8kww7yn8fn8I9H2bnuAONmDscvnVaOJ4HWE3BffICwdugYzE6AoIRrjH2hkWAwEn7zEv17BlG0Xmu6Ni7D+d9/Y+Ks7xkyqTN5c3jIvLxiD2fDuKU8ULxpPqQ7Wc0hjBk1H2PWkvTr8g6q2Ywj4j4f9x1J5vca8+FHVTGrMZhD7jBm+me8Wb061cplIcZowW63cfnUGS6dusK9kGiiIoI5cegHIn1zM3JiAGnMKqd+PUivXrOZvW4BhQRAuH6Jvl2DqNmjB3XfK4XJaMQeEcba8dM4b0pHwDB/vM1PAAgJ+1dJYKqiOgysXfEZZy+epE3v+rJ9tJP66LqqjvjzXvSSgPCwSEZ3XUirtqMoV7F6CgEIClvXLsV8/XfG9GxJGncLGATPKWVUMYhyYMFfPXXpOrW6D2fnnr0UK1Y0JSx+qc/wkljghQYIYsEbM3YM0WeXM7ZNelTVJFrJp4hDiN8Ir6QYHZy6ZqDH1Af0mbEHs4e7dFbJCRAiwsOZPqYn7zd9jWJvFkwxLbLF+G1bvQeiTHTzb4fJIoO5GpR6BoCwTgCEguWp1/YjLYKgl4I5ULh94iiDe0zmw4D+fFStCL988zVzVp1h1Pj25M3ioZG+HFHsn7uKY1fDaTmqH7ksoYweOR9zjjfw71IRg9mEIzKEpf5DyVqtCR80rIJFRB5CbjN+9nbKvleVam/lEAWW/PDtAT5esJmMaTNRtEwpcuZIx/Hvd3M6JA2jJ/XHy2Lk9M8H6NF7jgQIBfNlIFREELqOpX7vXtSoXFz2YVAEQBg3g4vmdAwY1hevJwCEhC+B2PFKxUWHgV8P/cmShUsZGNQNT28rqkEQMLXyveQ4xN1D7oYywX8Z7ToG8Ua5SikCICgOB8vnjKd8NoVOjWtIoObk6iR3BEHbXmjJpV/+PkP7MfPY9+235MqZMzmGMPWeL6kFXmiAIMbk42VLOfzFCKb3yIXJIGRnkmuZi5shWr8o7eWVTum+gc5TbvB+14/JV6i4JN0lJ0CIjAxn3sQASlVJy1vvvx4n0JfMk9wWobJ46noqVXybD+pWRUYF9M1mHElR7t8eedL4EQQNIAiSogAIYXoEQcVhC2PL4o3s2nWEQfPHUiCHJ+f+/I1xUw4yaHwn8ub0xqAo4Ihg1bhPiE6Tno/6NSO7GsrYkXMw5iiLf+dKOkAIZYn/ULJVa/xYgFD9rexEBt+je9dhZC5enl7dGpHRzwvVFsrOFSvYeyyC0ZMGksYCZyRAmM3s9QspmDeDlmLoOoZ6vXtRUwcIqgAIQdO5aElPv2F9SfOfAIKmP3TtynVGD5pEo3Y1KVRG9HZwSBXHOPlq104EsRO+efE2M4etpWvPKRQp+WaKAAj2mGjmjx9I20r5qF35bV2kSpt7KQEgaKXSCrsO/MqsbQfYsHEjmVJVFF07eV/yu73wAGH3rl2sm96BBYPyYjVGp6jhkj35VDsRkeA/9wYepfpTp15LWVKnAQTXgxnhbyOjwvl49iiyFoimRmPRiyF5zSZ2+CIXHnw7mjljV9AroDOFir+m72oVKUUsShW1Q6sQSXgkTDG4FalAnZb1saoRstthyJ1bfLN9D5+u/4ZqLVrSrGUFPC0K0XdvMazLNN5u/hG16lTAXY0k8soFBgeu4J0m9alZ5w3S2SMYO3I25uxl6dO5EkaLiCDEAYTqDato3IV4EQQBEIJvXqZty2HU6NSeFo2qYDUYuX76GBMDJmPJXYSRk4aQxqpw9udv6d5nFnPWLaRQ3ow8uH6evl0EQOhJrSol5VeWEYSgaVxxy0jvIb3xtggw/M9VDI9GEJxaDUIoK5jJI+fhl8mHRp1rohjskrsjmia5fk4KfojK2WOXWDJhO/4DZvNqweLJOCGFnYQOhYHo8AfMGt6TMR1rUbrIq3IeaQmvlMFB0JCvg0+27uL7S+HMnb8AHx+tY2zqkWqBxLDACw8Qjv51lJFdarNyTC48zSKc7Hqn+9BAxNPPES5NhnUVlSFL73I0piJ9Bk5ANQqAIOjjyfOsUTERrF48CYfHGVp1b6jhg2QCCbIjgEHFgoETv11g/ZJdjJk+kIxZ08sSLgkHnhogCK6CjZWDRvPrDQevlMyNwRZO8L1o7py7ypnTV2jcvRNNW9fEWzT3wozBYWPj4o9Zu+VnmnRsQr6svmxfvJZQdz8GTBxIlnRueCo2gobPwS17SXp1qRIbQVjUdxjZqzWkRoMqkoNgCrnLhNlbKFv1faq9lZOYyHBGDJzA1QdWuvZsjLvBzpp5n3DtQThpc+Vm9OTB+HmYOH3oAD39ZzF37TwK5s3Mg+sX8e82moY9ulOjiiASmrBHhrJ6wnSumtPj/xwAQWsuZGfF3PX8fuRv+o5tj9lTJLOTCyAoUj/78E+itHU/Q0YsJluuVxNjbfuP1xBvrEk2+wq+eZH5I7uzKqgP2TKkxWEQlSMpCyCIst4pi1ZB9mIEDh+OxSJKvVOPVAskjgVeeIBw7eoV+jSvzpRenuRK53ikFW7imOm/XMUsyYiCCa0YbCz54j5LvslE4MSP8fb1lf0GtH4Arj5UYuxRbFw5lwv3v6VPYDuZoxf9Clx/CCetscKNONixZic3zkQQMLIbXn5eMhwuuhc6dQQ1RcPHRxC0Z9eaGHy79UuOnrmKXfDJBEpTjWTMlIlSZYqT69VsuLvp/Q5k3l0lKvg++3Z+y19HzqMYzPj4+vBBvcrkzpcDg1HBYjCwa/t3ePnl5K13XsVkMqHExLBv83YyFilK4eL5pL6BITqcr/b/Rp78hSmQJwOKYufmlWt8vukb7twOAauFIkVfo3ChHPx56gY1albG6ga3rlxky5ZvaNiqIZnS+RAZHsy2TTspUb48hfNl18SaYqI4tHcfD3CnavWquBmdbaE1cCf8/r8dBpmridOT+HbPTyxf+gl9R7YjY7b0OIxid+wqwJqAUGIw8N3Xv/DFysOMnrCcdBmyJCMTX+gLaHLeP3+7myO7l7EwsBve3kIzQgiBiyP5IwjaWKsIovbgyUso/UE92nXqoqlvph6pFkgkC7zwAOH+/bv0adeIVu9ep2oJNzClBLEk4XZEEkGIqthRsHPw72jaBd1k+MLNZMn1ilxqzEoyEMMkQcLB9rUr+faXVYya2RODZLInx8Ki0axE/tuswNQRC3k1R2G69GmOXRE7WhNuHu6SiyCcm9bKOY6X8Lh3QJyr2EXYWvbb1sCF0ayLxwggpIW04x9SxNihEB3lwO5QsVhMiI2YOE/rvCmaRxkwmqwYhdKhVHU0ojii5b9royh+p2JTFNl10mQwas2ihOe2OYiOtqGYDHi6u2E2GbDbHVqJoWxvrcqWzkJl02wy4RCy0g7RMdAomwNJl6SoxDhsGIwWTGYxt7QUg+4nngIg6KfqvvnCmYv08x9G36FtyVP4FT1a46oS4YRKima+WL+P7z+/wsQ5q3F390yW2ai5XEVWuwhsuWRmELnMtxndpTlmqxmHUX+rlZQglCQqGByExcTQZ/wCmnX1p1btuonkFlIvk2oBzQIvPEAIj4hgQJ+uFHQ/SM+GftKpxOZR44X7k2PANeln4YzsXLwJ1bv8QceJayhauhwKZsyP1fhP4icVxD8D7N21nS1bpzFsRme8fLQe9645nPfRSJzij11oFITbGT9gIe9Xr0KTlvU5deIUyxeto/QbJShVtgRZc2XH3ctNix/Eqio++sQSIBi1Bd7o0AGI+MJCdU6mdIQ7jxMZ0pyC3vdAlz+WoEK0iVYdmvOPdeTyqmCw6dEK7dNGOecEYcyupY2coCL2qzo1BgxSvlnsTgV9VdPJiF9cqN1L3Fd2XDAKQCR+1sCKcE+iTTMiehD/eKoIwsMfCbkXSse2vWnTpSHF3y6oPbZrJsAjnRqFSNLm5bu5cNqdEaNmYTInA3DWqwIECBWpLXtEKGMGdKBD1aJ0aFBLL5PVIghyTJJZB0Hrw6BwPzyajmNmM3rKbN54o7TLRjD1Rv8fFnihAYK2ObMzYsQwQk9+yoyeGdHalOhLXTIDhDgJY4V74dBjwlHSlx1EzcZtMZgeelLXzTadcPD7bwdZMm8w/Sa2Jkuu9JqE7FMfz2pY545dy+DGbntlzkCkYBTu3whleuAK2nRuSuX3KnPy+CkCewVx5/pdsuXKTOnyb/DOe+UoXqIQnh7u/0qaUE16lEHn5Ul3Ghs1EFEdp5KlXkIZ2wZJOG7nym+XC7BMQogyQxkNMGtCXLLmUkQORHtpcS+tqZKIFmmtlLRrCHEmKUGkCv1+AR7Ef8WjmOS/aR0qnVEUTaoo9jFlpEOvLJDeW4s0aJ0sneAqzpRPTjE8PLjhYdEE9h/JWxVep3zNUg8x9J96GvznE+MAjvgmMTEOPpm5DQ/3EnTuPFgDSckgeCaEh5zjef3iacYP6cDcAa2o8sYbOpvImeJKCVUMiqy4uX4/lA7jFrF6/WayZs3yn0ck9YOpFnicBV5sgCBeW0VhwcKF7F41nGVD85DeK56je1Y/liRzRHOKIvS8eHs4n58pRo9BE2QzIK3ts2sPyVFT4eL5k4wf1pFuw2uTr2RuTDjJTZozj30ybXstHbl2CLcodswyuf/Qw2uf0RZ/7RzJwtDOE59XhBS2US7+YicsqjmkozSqXDx5g4Vj1jNgdE+KlyzBudPnGdJ9LJfOXdOuY1Tx8vXk9XIlaNisLgUK5cXH11OG6WO3c86nkamBh+0af88dB1P0k6R31TsoOp07dimVLJ24cByiBl5GILSW0xpVTSO0xcYABN9Ev62celIKVwMEkq4q/byAHEbte6sSYmhAIvaBNVQjBKIEbUCR/6NP5ASpkdhv+BRk14cpJgaiouzMnLSAtBm8+KC5KOF7uI120s7KuHkj4FF4RBSLRq+nbNlWvP9hUznDtA6Wrj3sToCgGPnj0H4psbxv2QTyZBaOV0tXOcFf8kcQxNxSOfjbnyza/RtLV65KrWBw7XT5v7jbCw0QpCNSVXbv2s2wzvXYNLkoubIkAAiat0rmQzgEO/v/tjNmgxs9hi3Dxy/9I6FWlz2kYGjfu0vfLvVp0asiZd4rru9MtZC32BtLn26I0XUIzDjEDlh3npq7ig8QNIfp3I9r30PLr8ugrEHBJELqYgcu3Krdjj3KJlUGYxzCqdq5ceEOK2dsZ8y0QMwWC6eOn2H+pGVcv3z7oR2z0WKQ3RYLlchPrQbvU7naO7i5id6I8Q4JEOIhBD21IKIABmwyMiCIf7F4QjpgAQT0uSNTCHr4QY+96z8lGKL4ZYGK5sfj7e7FAi6tIiIHApgJIqA8KR5AkB0jNWtK+KHzLUTXQJMqCuse7dT4X+ZJQg5qjM3B8gVriYgMoUHnKmA0JYsOgvh29+8GM3PIGjp3mcqrRUtLAClAgqsPGUGQfBOF7WuXcPuvz1k6OgBfTyHjnmCKJXuKQZtpC1au4wppmTBlGm7uKacXjavHLvV+SWOBFxsg6G/tyZMn+KBkMbbPLUXhV7UGJpqP0kLBybDWPOJIxEJ4M8xA67E3aTH4U7Jkz5OkYVQBnATJTYawVRWT0SRFVaRZDEaiI6IYFdiRwuV8qNWkIiar7jBVBbPRDYddVIRESz8qcuyiE6IIPQhVP7HhFjYWzk64QIdDiy4IAp9Y3IVkwanj57l7NYSw4GjCI0J5rVAOqf8vdvsnf7/A9nV7CH0QQYxiw83PzBuvF+K7HUeYOHsEixau4Mdvfyc6LBpFSlvEhdSl3zcbKPJ6frr4t6Xk68WwSNLe4wGCVtankUaFsxWhfpOMGJhiGd/SeQtXbhTRDQMOJUaLWjyxsiP+fR8DEITLdyAJi4I2IRQLtVTOPwMEkeLQOBCC/yDkuuP2rs+zBCT8KoIEunHlDs5fOENL/xqogsj5TGmm53mahz976ew1VkzdSb+BC8iUzfleuB4giDsKq4v227OD+tOwbA7a1K6KxSQqklIaQBDxN+g2ZBLF3qtLv4AAXekx8cYl9UqpFnixAYIcP5VbN27QoGpF+jZ2o8677picu0eZL36W3HpSTAjnTtRMjGqm+8QzZHgnkIo1Guotex+/N/3nJ3nc+Y8sX5pLVVWio6NRHHYURZXpGA93D6xWN+w2ByuWTOTGg0NUr1NJkubcPAzkL5RHhv5tNoUfv/uDu1eDUWIcOBw2Sr75GgVLvibZ+ccOn+WLLXsID4kgOgb80nnS2b8padP5IHann63dzeUzN7Ga3bBYTbxRrhBlK76O0Wji+sXbHPn1KGazFaunGx7eVsLvR7BtxV4WfzpLikuJXWXQoKmc+POsFt5VVdnZMU/+XFSrW4kqH1QkY5aMMsUgYUp8EySIINgdCorDxr3b98FoJl36DLiZdVaent/XZpKNu3eDiYo0yO/h6aXp7v/z8XAeI2EEwREdzemT50mfNSeZ0gkBGztGmXrROQgixaBHEJyJHaPq4N6dYO4GR/DKq9klkTUxAO6jAMHOjvV7+fPPI7Qd+KG0S3IBhMM/HWPv1tP06z+dNH4Zky2yJkwtYl13b1xk8YTeTO7egNcL5sdgcDbXjpsJyZ9isHPnQQitAybRbchIGjRqrL8LSbGGpV7z/9UCLzhA0FbP8NBw+vfqTVbD1wxukQGzyU3bhWlxXT0XruWApea8DP0+boeinyt23ZK57syjO8Pp2s96MFgjjik6acyoypy1iMlru3aRaxbX0MrZZAjboTBv6wO2XyxF7+EzsRhFrlmEl8UOXew0tSVK9psX/ycr9fTcNcia5+joKKxWd9ys7vJ6l86f4PKls0RGBBMZGYpfxpy8Ve59rFZP7t67xdqVSwi+d0uW2akGCw0bN6PUG6VlOd9nm1awdvV4Mufxwc3TSr78OWjfuTmK0U50tJ39X/xC8M1w3CwW3NJYKFwyN7kL5pBd5ILvRHD14g2sZgtWNzfc01jJkNlbMtDFd4kIj5S2EZoBRpOK1WLVyvPkGGhUPofgIOhA5vf9R1k3fxcrP1uAu7uFkPsPGNIziMM//SXHzTeDNw2a16VqrQrkyZv9kd39Q646HkDQdoUGbp0/yciAOShu7viPCqB4/kxyjBDjJ/L8qkrEg6tMmbCM48fD6BTQlqoV8uvrgpNdIZMvGBWbnEeSvPhQ4EIbcckbwETYzSv49xhP/Y5tqPleWRnDEI7Fqf0gojAiquA8xJwzqxHs2X6Qrw+cZsiUrngKomIiVB8+DiB8tfUgPx36kXaBdTEZzLqSoiuWwnhfSDWyf8evnP1bpXefUagWjYDqenaO9mYL6uipv35m5/IJrB7bHR9vAeycQFGPSMrSWc1OzgiVK6z28D0c/H32Ii0HT2Hl+s2UKSvkqV1ZieL6b5x6R9db4AUHCJrBJFFxwQJ+2RbEvL5ZcXP31Fuhaplw7bUXIXPn4ix+VjA4xA4u4VulkX9EPlojoGklb8LNxEIK0YRJktCcxC6VaLFDt2kMeaF8YDKCu1UjskXbDdy6pxAT5WD3X1HM3a0yZOInZM6cHYPi4PyZU5w/e0o6eEHYSpc+GxWrVJO5+KtXLrJs6RLu3ryBarNjdvekdafOlCr5Bg57DDu3ruPgt19jMNkxGRXyFS5Nkxbd8PTyJTTkPl/s2IgZO56e3vj5ZqBAoSKkz5JZLsFnTh9n4ex+NO9SlUy508pcfhqvNLLOX3xXsaPUwt1OTQDdATozOA/t2h+dvM4QfVxq42FjSw0AAZAMKr9+9yfr5nzJ8u0L8LC6ERkczMiAKfz12wnKvlOSZu0a8WrRfBKAmJ/kPh4BCEZunvid/l0mEmHw4aNeXWje8HXMAgDKigIVh6Jw9a8fGDZ4MVfuZqXXmDZBFbzEAAAgAElEQVTU/yAvBukcdNaF6OSnqpgVuxx7AZTiszkNuq6FiAooBgvh187RvtkQGvXtQYPa5aRapPh/WRGhExHFudLKMppgwKKE8sWGg2z/6gLjl3YljaxkiKd58B/XiIQAQVEc7Nz6HT/9/CPth9TDLL+bq6Jt8QCCw8iaBV/i5/k6TZt3xyEbImmSxq4+tA2Eyo61S+HaL0zr1w7VJDYUouJI21TE1r8kM0AQ24q9h47QY9oSfvj+Z7JmzfoYAXJXWzD1fi+bBV44gCBz6/EIaM6f9+/fz6JRrZjTJzNp/QQxTtvpSz6as8Zbbsm1cKEIk5tljbmCahTlacKVQ5RNITwGYqJseHka8BPEH4PKg/AYfjkeSmiUiehoA+4GG++/lZ40HgrRCnx14C6//BGGLUYhKlqlcAF32jbJgcUA565GM3/lee6F2wl2GDh40k6P4fMpU74aRtXG/q92cvTPQ7hbrFjc0pA9bwEqVKmB1WolNPQefx8+Ir+DyWrF6uZJ7tx58PP1k841PDSEyKhITBYzFqsFq9UDs8WMWXIFxPfX2/kKJyPD2WLXqtXTBwffY+bkXtRtUYb8JXPFtX3WgySS2S7Ol4RFMfW1srynPZzj5PyM8xpxnxcAQWPq/3rgCGvnfMnHm2bjkyYN0WHh7Nj2NenSp6V02ZJS3VDyH3TA92/P8ND8kGMN108cZvSweRQoXI47D2IYMqkrvh7amEvaoMPO7qVL+e6Pq5y86keLHh9Sr3oeUDSAIKoohK6F6AkhbSLnlCARip/13aSIGwhnohqIwUDEzVN0aDaUj/x7Ur/OW1gF6dAooigmGW0SQEHLcGgSvgIguCnhfLH+e7Z/dYnxS7uQRjIWEh8g2BUHX2zcx++Hf6HtoOQDCEq0gcmDllK9Rk/KVakpR9ckI2iuP8QI22KimDqiJ20qFqDFh5VwSHQsxlRjh6QUgBBjt7No/TYOXgxh1cqVeMtIR2oEwfWz5uW+4wsFEJyEu/iOxwkQbt26ReePqjC8vR9ZMxokUU6s3N5WG95uBhQH3HoQxR8nQrkfEk1wWBQ+FjN1quTE18dIaLTClJkXOH0pikiHQxL6mtTLykc1swq3wJEz0XQZc5Rgm7b7ey0TrBxdgvTeKhGqmT2HbnH6Yhg+vh74eZnJl92dUq/5SAAQbjdy7ZZgqynYFZi45CQxudvRpFN/rCLsrholEVBGunVlPVVPVWiSMc4MteawY91RPF/tLMISsU8ZHZE188K5iesLD2/T6vQFb061ygVP7CJnTxtI3mJmqtYpqy0wCeoDn0zUe74XRDyl0EE4/P3frJ61g0VrppM2nR8G7DgcIiSvb9ONTsVCcb+nBykaGDRy7cQfBAyZTftmjdm9ZhstJ42keMHM8uGNwnGH3GNkl/EUfbcsO76+wUcda1G/pgYQtPYFMZw7dZEz565gtRh4tUgxcuTKqJU66ikKoqM4f/oGJ09dQrFYKJQvEwP7jKJp7+7U+/AtWckhrmUPi+Lw4ZNcu32HdJlyUqx4fvzSCfChYlWj+HKdCwCC3c7mNV9y+uxJWvatJVMMj2uC9Xyj+0+f1iMIBgM3L95h9ogt9Ow/jdwFC+tCRK6KZCR8PpWzJ/9k+dSBzAloS4lC+XRAmvIAQmhUFAHjZlK6RjO6dOuCxeKMdCXNiKVe9f/TAskCEGw2kUuPln/E38WRJYsm8hETE8OpU6e4f/8+kZGR8pxChQqRL18+uXs9fPgwu3btIiwsjIiICHx9ffH398fHx4eGtasTfvNXMqRxEOMQS7eDZlUyU6dCOtlr4Oej4Xz82TWMVgtp3E28kk6ldd3spPMxEuMwsO+7e9wPVXB3N+DhbiRvXg/y5nSXDiTKbuLO/XC83Ky4WYyiKgyLVUQhxP5O3EtT0ZM5ZikHbJC7eFn/L7T0xU5UchNsbD4QwpTPffAfuwS/9Jn1KIaCUfIZdOKavmuML54ju8jJskEts+7U55Epb+cf8QDOFICMKzsBhSD6iQiCkAoWYESVqYRtG5dw6vJueg5proEDjfQfeyQ1QNDKCx0c/+0sy6dsYfL8YWTLmUNz3DJfLwCOECuSpRPat4kVOnrySysTTAYTN47/Qf+Bcxk01J9Vc5aQ/70GtGlRHovViNlh58+DPzB1+td06lGHRXP20LDLR9SrmUfuGB0RYWxZvpGDP54kT8GChN+7yeW7YTRq14SKFYtjNqjYwkP4bPUWtu/4RZ4j5JTv377LX38cpsvogTSs86acCxdPnWDx5NWEO6wUKpKPM8euYPFJT8cBLcmXwxcPJYwdG5IeIMTE2Fj98SbuP7hDg67VMEtg6CrHrI2jALVff36Q37++g/+g6fhlEIJdYkwTVKU8eZgT5QyRqty59RNOH9jEkjF9yeDrJXkmgoMQx1vSbKRniVzKQZAlsEJgU7TsvhtCr9EzGDx+Gu9WrKivCa4av0Qxd+pFXgALJAlAsNvt7N27l9u3bxMaGir/NG/enOzZs0uTfPnllyxfvjwWJGTLlo1ly5ZJvXzxmc6dO3PmzBk8PT1l6Kxnz57UravpjP/666/s3r2bNGnSyD/p06enWrVqeHl5MSwwgLOHltO/cWaMVhMeVgeZfd3wdtfK1+x2A2E2oZWPdN5mowN3i+6UdV6BDG5KboFW668V8sXtWXX2gT60zoUs/hn/NOr6wqLYOHfLjY6TrlC72xwKlXpbKvM5jDGaoI506logXQtrPsPh3FgniM8+6uS15xW72Z9/2s/qT8YQOLk1PmmF5LLoIRCnapCQR/AMT/PEU3UqJg6jg4tHL7Fw3AaGjO9H4aIF9FSGgiRziNy4U6JApJieRNpLwEEQnfkEQOgXMIfRU4M4/PV+duy9wJTFvciaPg1qdAQrpi7m13P3GTS4PcMCPqVelwbUrZFXVh78vutr5k/fQv2AnlQuXxQi7rNu2VoO/hHMsAm9yZvDh3O/HWLoiBVU/qgJTRuWx81s46v1m1k0azPtxwfSoM5bOKJDWTl9EQeP3mP4uH5kz+pL6LUrTB6xhixFStDFvy5pzSF8ueEHtu++QJDgIJiEe3r6iMk/Gf0RHYQYG3OnLcXd00LN1pXktNOcc9If2n3sRMXYWTp9C26mYvToNRyTyfkePdOsT7QHDg8PZ8b4AN4v5Il/s/pYzaKpl7Y+JPchwIEE7pIDA4fPXGHUko0sWv4JuV7JldyPl3r/l9QCSQIQRBSgQ4cOEhiIPLqbmxujRo4ibz6x4GpOXnAGxK5fAIBMmTJRtWpV6cQFin/w4IG2CxdhZaMRd3d3eR1xiH8Xf8TvneFw8XdxrFu3lg3zBrBiWBY8rKLuX0WsOZrevS5aI3eh8YTn9X4I8dtEJ52Km6DXKcSoVvynnMFYqDu1mnaWgjjC6znhiLOZkAAIiZGL/ecogMq1q5eZFtSTuq1fp2QFTadAI2Y6d0raf51Ew8R+D7SMhsLtq/eYPmwFHXq2pkLF8nq0wKEpGMqKDs0SshfBfwAI10/8xoCB8xg5YzLWm2eZMGQuHaYMp1yZPNy/cpmgnlN4p3Uz3i2TB/9eq6jb5SPq1siPJTKEhdNX8/vZMMbN88fPzYIVO7fPniKw63SaDg/g3QqF+HnNCpZuOkTQsvlkTavxZMIunaFjq+E06tdDAoTwW1eZ5T+F1xo1pvy7hTA7FKHKw4+bt7Ft31GClk4hX3oHOwQHYfdFSVL0EtyTJOAgREbEMGLIGIq+XpCKdd+UsanEmGtPNz80cah7N0OZNmQFdRoGUKnKhxpXKBnURZ3PfP7sceaO7cP8wA6ULijURZ1RFddZ5t/spwUJNS7Elwd+Z913R1i9bgPWhEJhTzcIqWelWuCJFkgSgCAc882bN+XLLvqTiz9ih+905E98qv94wk8//khg18YsGpiZPFkFEUy2/9McXAKAEBtGTyQn/ORHdpZNCn/oYNO+uyz6KQ99Ry/FYnaTQVUnK16T39VKIBNjafq3NEF0VASzJgzAO2sYTbvVwWQxyYRJQneRpABBdKULiWHioIXUrFudho3q6MRSB6opXvOt/woQhPbCsd/pP3A2w2ZPJ39aG8P7jSVn+Q/o1vY9juzfz4ylhxg+qQ+ZTLfp3X0D9Ts3ps4HeSH8HpOCVnPbLRcTRtbBTXQLFRGf+/eY2Xk4hVu2oUqdt/lu3iz2/HWJMQtm4WmOxK6aiLh+kfbNBtPIvxsf1X6T2xfOMarTJB54eMidu1GIU6ISGfKAENXOtNXzKJbVzJfrf2D7Vxe1CILs9ZDYJEUDYcHhdOnQh0ZtPuT1dwvp450Ys+3Jb4KMxxkU/v7jLCsnf8mwscvIkiOfXg78NJ9P3HNktM5g4Ksda7nww2fMG9EDH0+32NbOKYP6FxfeEWvXpIWrMGQtxMgxYxLXGKlXS7VAPAskCUBILgtfv36dptWrENjUTNWy7rJrYax8rvOhZB4vXshQdO1zwQM7NRgkUFGiOXXdRNcZd2jSezF5C5TUyjD19IbYIktZYBcABFWxs+fLjezcu5CBYzvik9brsZ39kg4gaOVjimomaMgcShYqRcduLTGbnSWVglMRN0L/LYJg5vrxwwwYOJPhs6ZRPJc7n2/cwZff3WX0lHZ8vnA+F2wZ6TugNeqNU3TvvpEGXZpQv0YumU6YPGEDN4w5mDj6Q0RGyiEAwt27TGk7ktJd21Kx9tv8sHQJO387x6g5k/EyRqMaLURcP0vbZoE06dODj+qU4e7F88zos5QPh/cie1ZvjA6HVLg0YcNhggyZM5PGoHMQdl9knKhikBGEJ4VMnjyBE/ZiuHH5Fl3a9aP3yNbkLyZC1K7jIMhumqqDrRu/4/pJM917BeHh6fPkL5HIZzjfMS00ZWDhpEFUyONO90a1ZNWKdsTn8STyAzzD5WS5tr4eRCp22g+YQOu+gdSpXz9Zoy7P8BVST30BLfBSAYTw8DD69u5Gxuh9BLbKiodVMNATJFYf0wTGFQBB7hU1tWK5OAZHmxk48wK23K1p2KY3ZqsW8dB27kkPEJx2EY7/6qWzTAjqSpf+H8rGTYI85hTniasYeX4n9bj3Q/IipViUgXXLNhN9x0K/Yd1kvwWRetEEq+KNkJOM+W8vWwIOgmowc+PYHwwImM2wOdMonNuTe2cvMnHIPJoO7smOOWt4q1U9Kr1XAvvl83TtsY4GnZvQoHouVFsYy2dv5KfDNxm1sD+Z/dxQHTGcP/I3YweuosuYbpR5+zW+37SB+au/ZeicqRTP4SPLH2+d/YPubcfRbEAfGn5Yhujb15jVfzZ5GzSkbv0KWBCVJUYu/XWCy9dvUbbSO/i6R7B9w49s+0oAhK54C5pmIkYQ5LgrBg4d+I05M+fTd0xrMuXKKm3sqibLQhDMHuVg/uTNFC/+EdWqN0zy6OLjpovWoVPTQrl18xLLx/Zmcq/GlCyQRw8a6BU0LtlC/Lv30ACCqJiBv89eYdCM5UxfsJQSJUu9gG4n9ZFfFAu8VABB9AT4dP06lk7uzqZRr+LrbcHoZL7HD5skQ6e4+BNC8B1EHfrGb24xelMaRs1YhV/GHJKUqLlC1wAEp1BRdFQ4C2cNJ/urCtWbV9A0F/QcTFKSFJ3cAmcS6I/v/+arDT8xYmoA6TOm1/sROBdpzYIS7z2JTPcISdHMjeOH6T9wFiNnTSV/Ll+MYSFMGzyBQ+eC8UmXi5HTepIjizuRV67SpfdK6nZtQv1qr8l7nTn0C2OHL6Jq+xbU+/BtlOBrLJ26nEuRPgSO70HWTF5cO3GYcf1mkf318rTt0QIfYxjrPl7D6k/30G3cEBrVegerLZz1Cz5h1c5zDJ3Yi1JFshB2/TZTxq/BlC4t/Ye1I6NnJJ9v/JEduy8zbklnvIwqFr2HxvMsKrF9qITAk11l7bKtHPzhO/zHtMHDW6gtaBGbJD+E2KjBwIM7EUwbvpbu/tPIk6dAsrhgoYUi3zhV5bMNHxP69z7mDOqMr7dXvK6kyU9QlAEOCdsVHCps2HmAtft/4dONW0mfPkOy2C7J50nqDVKEBV4qgCB2R0f++os+bWszp4cfBfOIEsWHItTS6ElHQny6MZWESIOd87dVmg0/R61O0yn3bq14LWU15qSuV/R0F/2Xs/6JgyDKHMXiKCSPv/vqMw4eWkPfoNaajkIsMVCDLEmTYtCFmHTHdPdKKPPGryJgeC/yFswt75uwG8J/Awgmbpw/xeQpH9M7MIC8WdNhsNvYtXETK1bv563q79Gt20d4WBTCbl9j5Ng1vNfkQ6q+W1SqSZqUSL7Y+jlffv4jOV7JReiDB1IMq3HX5pQqnk/2SzA47Py4Yyer1n+FZ8YseHlYiI6J4eatGzTu1JZqlcpiEZ0Lb9xk7szVXL5+gyIlCnL10mUcBl9a9WxH4fwZsarh7P/qRw58f57+o9pjMTqEfMZzS+DEAQQTkRERTAtagN0aRZs+DfT+EInDd3nyZBVKpUZ2bNrPhSPQo/84vLzSJIuT0wAChNy9y4QhnWn3fjG6NPpQ7+USv3H3k79VUp/hVIQNjYxm+IxleLxSiPETJuLm7p4stkvq75t6/ZRhgZcLIIiXPSyMjo0+pPmbt6hTyVsU/cdK5TrJRskNELShV4jCxISl1zmlvkfLbiNlpUZsc99EzHv8E0BwOn0BB65cOMWcWf3pOrAGWXJn1EWW4iZpUgIEreRSJSrMzuIpa6hV6wPeee9dDAaHrEKJTxJ7VoAgLS0iNjFR3Lh9h4xZsuFuNss+FhFhwdy8GULadGnJkC4NilFBtUdy9XowadKmw1cQa4WIksGB3R7D1XMXuXk7GJPVi2y5c5ApXRrJDxDiz0Ii2KFEc+XCNe7eCMZgdidX3uxERdzGO11GfL08ZD5b9F+IjgjmzNkrhEeqmD0t5MyZjbTpfGXkxqjEEBYaRli4g0xZMsgGUnFs+v++aMT2DlDg5s1bjB0xhcq136RMxeLSYYvKGdmh87/f4ik/qRD6IJKJgUup9E4HPqzfFpPoY5IMUT3xrjlUI0d+PsDHk/qyceYwCufJ+XDjL1dEVZ7KcorkJF25c49W/cYSOHUeNWt8kCypmad63NSTXgoLvFQAQdvpwqRRQwk/s5qRHbPEe9mdorpi1+qCUOoTp4fWEOrnk9EMWq7QeegyMmbOqe/UNVGgxKu//qdlX7ODaBYVExXBghlDsfhcpnXvBpjND/eWTxqAEN/5S81l1i/5Aj/P9LTp1hyTaGall0HGcSGeIsUgLxuf9a0pa0oNKSGpKXpYSwFjRe4WheS2CN9qQVwBEuwYjBZdXVBwR3SRKckjEbLIwplqGhjabQwoRgN2UZYrGlRpclcyeiXuoUqZaz1VItWfTDgUhxThMag6ADCYpZOWfQhkulnr8+EQ7akToQ5fFcpeIkSt2Dl+5DRTJ88iYFwnfNOnkcBAK/hxATxQHfz1y2kWjtnCsImfkPe1YpgMmvOLPZL+MbSxEwJXMTY+WTCFLOplRnRvRRo3AeTiH85Gbc7fJU/KQcwho0Hhuz+OM+7jLSz7dAN58+Z74iqTekKqBZ7HAi8lQDjw7bdMHt6WVUOz4uMmFlpRT5YSQEHCoVIJi3ajx/SLpC3ZmZr122nygcIBCWEUeXrSL0iaWiF8t28bK5cPY+jMbmTNrskQO4+kAwjx/YKBn/b+wfe7DzNmxgg8vTwwSs1sNV73vOcdyrjEzeNTOP+gNhVniXhWediT/XNK6N+SRfq/JWhR7YyUCIGcxHDcAiCI6gG7YmfHxq/55Y+f6NS/KWazyaUs+JgYO2uW7CDqVha69xuNu4fnowJNLgIIwsbB966zYKw/ozp9SLniBWTfhYcPUV0Uf+1wXbXHwzBFRNMUFmzYyd93Ypgzdx4eHoIr4SJjPY+XSf3sC2uBlwwgaE71wuUr9GpTn2GNoihT0BeDYIunwEPs3MR+dNXOW8z+JiODgxbjmzZDbITDVQBBAyEKd+7dYKB/C5q0eYt3PnhDcxx6iaErAIJ4hhsXbjFvzFp6De1OqdeLSj6EU8JaDOFTpRhS4Fg/8ZEeAQia5nXiAQSN1xIVHs608QvJni8L79d7Sx9fF4Bnvc/IvRuhzJ6wkdbtx1KsiJbeeKSLpIt8nqKqfP3lZq78sIklo7rjbnVDVLw87HRTBkAQEQTRWbJP0FzK125K27btHiVXPXGSpZ6QaoFns8BLBxBEmDgiPJIB3TqR1/0QPRpnwtMoOueJEKsgYkl1mhRyaO2UT1+PovGoM9TrNI1y79TAIHZ7LowgOI1ht8WwfdNKzpzfTceBDbF6WDHK0HRSkRQfHYaY8GiWTF1PxsxZ6NOvK2brwxGU/xeAEBu5eZo9olYi/4+HLPyQ5fwGrpy9zOjh42ndvRF5C+fUo1Uu8Mg6QPhxzxF+/Po6/QNn4uXprnUY1Ttmxn4BFzyOWAtCQu4yZVgvOr5fnHZ1qsi+HyLtFwcQhOUSilQlTwRBNFq7+iCU3mPnM3XhMgoUKpRswlIpZPFMfQwXWOAlAwiaxRwOO2tWLWfR1D6sDypOdj8hxCP6HIhVSmutm/yHs75fNIKCGZ9e47vrJeg6aCqeaUQdvZbDdkWKwVkvIZzMtWsXmDmtD+16v0/uAqJ3hl6E6IJNpvi2QgviwJ5D7NnyM2MnDyF7rkwP7ZT+3wCCSLA8Mcn0BIAgAZ5JRVWMrF68nt+O/EyXgS3w9hXlja6QN9YmT0ykg6kjVlDm9SbUbdhWiw4ZRJMzjbWRpEds5kjre+pQVQ4d2MVn84P4dNow8ufM8kijMn01SfBYyQUQbKzd9Q17Dl9m3pLl+Pn56Z1Ok9RqqRf/P7fASwgQtJXg2LGj1KtemRWDs1CuqKdkyct/0XsvpKRxF4vV6cvRdJ4dSoPeM3m16Jsy9y7K51xyiF2cDkbsDhvLFk8kwnGMtr3qYbFo+ylVFhwmPbQSSvPhdyOYHLiI5q0b8l7NSvGFFF/uFEM8gWvBFxT1ERpEdMKEfxCrehqAYFC4e/sBgb2CeLNacd6vXx6j7FSY1IcMHUhy50/f/sX2Fb8xYMgccuUWBDsZ29ApnXHPkSRPJfUXBAVVI5yGREQyb8IQKuS0MqBDM9xlpEp7loePJHmaZzZ6RGQ4PcfMptA71RkSOBSTyfyQIOwzXzD1A6kWeAoLvLQAQTSK6tKuFaUzHaFHw0yyc6PWi9kVpVxPYfl4p4hdcbRiYdSya5wxVqZ1z7FYTDLgqe+unu16z362HiUQ/HxV4cjvB1mwYDDdBzfktUI5ZOg16ds+6+hNa1Uh6+QfXAtjYGAfrG5xi/b/RwQhbjyEVZ7oop4IEFTsqoN9uw6ycvkaBgZ1I30Wv1gxoGefL8/2CREpCAuJYP7U9eTI+A4tW/eRBDup6qh/OUlF1fkuidWk7KGnjN0daFUof//5KxsXTWD+kC4UzJVV1/54HABLfqll8egnLlyhUddAPt60lQoVK7qUWPpso5169stkgZcWIIjdwIplC/h243hm9BHVDEK2VzTacZUgzLNNE7FzPvhXOP0WhdBu6MfkyVdY1wB4tus8z9lS8lhViYwIZeKYfmTPG0OTzjUwWz0xObWXn+cGT/ys0BwQaQYzly/c4JPpmxg8rC+58+eUcrhyj+fcdD7xWi/YCQnUHwWB9eLFq2TMkB4PL3edK/AP3+mJAEEh2h7NpNHzSZfVg/rN3pfVMs6uoUlpKTFuZhMc/vE0K+ftIXDYPHLmzC8B50MAQRctEs+SJABBfkkBVRRw2Fg+ezS5PcIY0aMNJl3qW0QYZGfV+OA9uXsxCFlqReGTz/fy6c6f2LLjczJlfrjCKCnHL/Xa/98WeIkBAly/eoVOzWoxvq2RonkEQ1nUWz9xP5ZMM0LlQYidgPlXeZC+Ls07B+Lp4YFBhP9ddDjTMKqicOzPQyz/eATtBtQhd4FcGFzS1ErFIbUAhC6DjXXztyEKUAYO74u7h9bu+2UGCCKXIosedZA0f84yrpy7QvWaFSlZujg+ab21fl763l+j0+kh/H+Z1+KaR44cZcG8j2nfuzHZX0mvCSu7IIUl3jkcCgunbCaL35s0a9UTk0kbS91ny/+IvgjOx0kKgCCuLVI2QunizPG/WDtnKFP9m/FGwbwYDRYpYSyeQKhjxF8hxG+eIoaT6G+o1rdFPIuRiOgYAqYupsBblenfbwBmkfdLNJ3VRH/01Au+RBZ4CQFC3OjYbDYGdO1Ifrfv6NAoKxaDaI6T8lIMzid2KAoHDkfTZ/59Oo1YxqsFikmWt3QE8ToaJvn8E+V19hhmzQokTYZ7NO1SU3sGF4ArGUHQKvw4dfgs88auYsioAZR9W3S8dDoRF3i2JDdyghvERhCc383EprXbmTvhYynm9PrbJWjduRkFiryK2SochBDOEV5Emx9xFnG6N6NsyiT+PdIWw+hBk0mb3Z3G7T/EYjFLpOUKK4qnOfrbKdYtOUjPvlPJnUe0lnbFnRPaV9O8DA9/wNKZQbxivkVQn3Z4C6li+W7FCam5eugT3k8qPOobAwEQrly/T99J85i8YBlFCheJxz1IqZud5LZg6v0TywIvNUAQO+KVyxazbdlI5g58hSy+GmM6xb5WKoRHOeg39yox2RvRuH2AVvLoaoAg7miEPw9/z8qlY2gXUIvc+bK7xG5yBy0jBSr2aIVPFmzEZHen38DueMomOsngXBLrbfu36zwCEODXn/5iUNcxhIeES6P4ZfLjvVqVqFW3Kq/lfwWTEDnStKjjHdrPQh1TAC2HXeGbvd+wdPZKeo5oQe5CeXSgp7H5k/oID45mdtBy8uWuQvM2fXFzc//3mswkeiAZPTCYOfbH9yyZ3J+FgZ14q1h+vVRQ0wFxZcvrf/+azjyaNkLrvjrIviMXWLZmHWazIAvHlmQkkbVSL5tqAc0CLzVAEF/w2IljNG3wIdM7e1GphLsmzKIfKUNyOW4qOiV2fzwTzXyc+kQAACAASURBVNDlEbQKWETWHK/KfK1LIwiCQW+EyPBQls6ZSKTtOB36NcLD2+rS5xAh8BtX77NsxjpaNmvE21Xe0ioaXOHZXL1CJAQIqsrlC7fp2rwfd27c03yXyOdbzGTJmZFKVcpTu8EH5MyXDZOoEkwQYZLttlQTt27fZcqomeQtnIHaTauimq16rUTC+v7E/8KKQ+WHPUfYvOp7hgyfR968hVBF7a7rsmaxX0rYw2Z38MnsMWQ3Xmd495Z4u4tUR3yAlUwljI8xvZbSUwmLiqTnxIWUr/kRPXr0SvxBSr1iqgX+xQIvPUAQzZv69/EnY+gOhnbIg7tFLIwaSEhOgODcKccfG6PDiGI0EhYdSeD8K1zzrkXrrsNwd3fxzlkHCAIlnD95jImjO9OsV2XKvlNcAgRnpsEVkRhhp50bDvLnT8cZM3koadP5uCSS4fJV4zEA4daNEPzbBXL25Pk4UKv/zWgxUr5qGQKD+pMug49G+Is9tB2o4jCyZePnfLPvIL2HtcLDx02rSJGCYUnjpUV4XJsXBsJDIpg16lPeLt+SD2o1w2zShMFcQX6I22NrJaLCPqdP/M3mOcOZPbg9r+bJLCMsxhQJEPTxUQ0cPnGWHuPnsWDVWsqULuvyaZl6w/9vC7z0AEFRFHZ+vo35E3owp3c28mQU+W0jokRAVaNlkxhJRNIT30KoR9KVjOL3ZmSpuNOby5VPI4X9I3HpYYZTvNnl7N8sOsgpsuVC/GiG1ulP03pU1Ri+/yuadpMu0WH4UkqWriDpVXJhdYVX1tCT1tAoxsbWTUs5eW4nXQc1xs1LOBnNXK54FNGS+v7tYJZOW0v+/EXo2K0FHu5uesnqSxRKSCC1LGbCg3vhDO0TxG8Hj8h5IUfEqOLl7Um5ymVp0ro++Yu+htkinH48hy+nisqxv08wfeJ8PmhUgbKVSmqpBdmxSic3PgISnn9EFUkENqLYFfZ89h3Hfg2nV99J+KXLFDtfklq2W8IjSXoUTbU0YnJY6D0WTh3Bm9lMBHRsjsWsyk6IWmst5/G4+aSHblzqJ0TvEZWYaDtTlm/hxN1wFi1dRtq06Vz6FKk3S7XASw8QxBCHhkXQpP4HdK50h9pvp5EO/srFGA6djOS+0YKqmLTQp2hybNccn8nioFQRdwpnc8ckOwA6d11C/c2pXfv0E0gsUmLRcqBiR8EqWtxKHXrnNfSohvzZTpQDBs27xGlHeTr1m4Knp6cmS5vUinP64zh1D6SozIPbTJ7Qm1LvZqJa/YqiJ7HeGvj5HcqTLShaQSucPXqJRRPW029wT8q8U0Kzgyto+E9+wMQ54zHNmqKiYhg7ZCr7th2QbHbhfNNn9qVj9zbU/egDTFbxO43QKaJh8SV+7t8KYfTQqfhmcqNlzwa4eZh1gBDfGSZ0iM+vZiieUVUNXDp1nenDVtKh0yjerlBTb0uszRdXAAQJl3RMrjgM/PTtDjbOCmTD9KEUyJdXA7jS98f/zlqtw8NH8lQxGIwKN27fo/mgqfQeOppGDRuktnZOnDct9SrPYIGXHiBoIU2YM3MGJ/ZPZ2KvV/AyRXHouzus+jqUiw6DFOY5cyWMcIuZEtncsagqHm5GWtbNSvVSfphFu16JCkTZ0dPkbrXWug8ly1WFi1fgz3P3KF8+I+msetBCOrk4Ryur/MQii8Kluwa6Tr1F+SZBlClXSe/06JodjRMgiAiM2Ivt37eDT1dNpMewxuQpnEMGqpM+hiBAmWiYDDEOlb2bf+Dk7xcZMLw3WbJl1FstvyRRhEciCGCzOZgzdQEblnyBu6cbxcsWoUK18nh7evJetYoYLRrolG2jY3UXwRajsHb5Fn788RDtBzYhY7a0eglf/JXBSYSL/7vEAAgq4Q8iWDl7G2YlN117DsPL20/TKNSdcVIDBO2V1zQ1hMR68N27LJkyiNpF0tGtaR1MFiuKwahFBx86Ug5AUI1Gdh38hQWf7WP5mg1kz5rlGZb11FNTLZA4FnjpAYJTYP33335lYLdmTOmWhhJ5TMTYVOwxdhTVQIzNyKRVlzjn5cGcJn54yRIyN8xuFiwmJ0FQW4Tjmrc8Zvcsvbs4R0gXx+nLy8yAGsPuPVF89t0Nho3ITzZ3WeisQwPnwuzUadDCnooayaxtD9h8OCc9hszEN0Nm2fpXr5ZPnBnwD1eJr5wovlVI6ANWzZ9MiP0YHQIa4eFl1fO3j2NTJNajiX4UDo3zYDITfDeYT+ZvR4kxM3h4b9KlSyvL+OJ2fa4ALYn13RJc5zHdHAXJb+P6rSyZsZZGrevQoGltbt64w+xp8+nYsSVlyr2uCR7FAwiKonLgmx9YuXQDjTvXokAJQXJVMcoIWFIBBG0OiP8VEbJDuw+z77MT9AqYQpYcr8SCSSfR1hUAAYNDwnkhuvX11k85c2gzS0f0ws/TgsNgxGE0YJIzOGFOMDkjCLIDixwkuwIDpi/mlVJvMXhgoF7J5Bw/V0Tukmiep172hbLA/wdAwEDwgwf06tqVwtZv6NMyF24Ws2wMJOqNbVEQtOwspzw9WdomPZ4y46vzD8Q2Q3h4RSUiykyY/X/snQd8FdW2xv+nplcgtNB7L0qvonRUQEGwgBcVERUF21PEhoiigCIqXQRRFEFRpHekSrsivZcESEhCenLKzPutPeeEUK6CECB45v3u5T6YM7NnzZ69vr3Wt75lUvyFYD+dAKtagjxhfw2nSyc1W8ep61itFkLtYJXUhW7C6chk4bJsflkdx2uvVSIqAPwlDypdG9066dlWMt2SF9UJ8TNjswgccXI0Xqf/8L2UumMA99z/GHabl3ntLc2S+XbtF4zcAEGWTKemkXIylpEfDKB518o0vrOOofSodBrykv0tmWQdi1Le04g9Gs/oYV9yZ6u7eOjR+7H7mRRoOqejf+1tcV2+6EtEEGTaHdh/iPj4JOreVh273Y9sh4vvZ8xh+cJVDP1wMNEli6kogur+qWns2L6TYUM/onWH5rTp0gSTaPbLfL5IR+PCCMI/BVfeSJlZPhFijscz8f05dGr7FC3bd1UCSGbhAeTukniBWmGe2Ff6Lug6p44dY/x7LzCwR3M6t2qiVAmN/ILQNSUOdiEH4foDBIl2eDkkwnsSkHXkeCwDPpzIR59PpE7turm0I/Lp/M6Tl+y7aF5b4F8AEAwTut1u5s6ZxSdD+jH+9TJULC4LmhW3CdxZOu9NOsz+wCAm9Y4iQGSFFZHLqhYSze1kyy4Hs389TaZLx+mGKpVC6dGlOAX9HGq9SU528e38RP7Ym4L4cJfDRLMWkbRvVoBAt4sFi2L4dlkGu09m0KR+BJWK2OjVNYpQfyurViWwYG0KDrOOy6VTqnwA3TsWJzpUmk+amLs+iQ9/NtHruVFUFPEkRWQ0xHLyABtcNOeM5cuMVdP4belPzP75Ux594V7KViiiAI2HtZHXc9WIqrg19u44zA/TFtO+XWva3nsn/gL21L/eeounpHjkuYTUKn/K/5eYlMzHw8dTqWoZejzSBavVpvadRw4cZszHEylaOop7HriLoFB/Ba7y9vA4XB2SEjKY+skcgm0VeOzJwQSFFULPkegWEGMINwlgyPNDN5GRnsLUz0cQlnmAYS/0oWBImIdvbMxZVT580Zy50F55O6cMmOZWCo7GmCykOxyMn/ETe+IyGDNhCmFhEbfi1M7zKeC7wdVb4F8DEMRUCQln6Ny1E70bxdGndQiayY5LBOcyYfikI+wLDGJyr8L4W72cA2F8OzmwL5PO7xyids0wXuxalKQTWXw4/RgVGxTlg74FCNQ0fl6ZwGuz4ni5ZxnqF9NZtjSZCesSGP5qVe4qC3v3pjF3ZTpr/kzhod4lKBmoU69qAOnJLp567QCNWkXRoWkEx/Zm8Or0Y3TrWpiBnYvh7zaRjZnXvjjAIVNrnhz03vlkpbxdv9SCKrtAIVmaNTOOjBQmTXifY6fWM+CNnoQXkE6Z0lbqeglQGYK4G1ZuZ/qYOTw9sC93tm2G1Zo7onL1H8bNegVNIg1mMymJqaSnpFGsRBSa2UTC6bMMHzKaoAJ+9HnuPmz+NtWt0QAYeXMY4MPgiciud8kPG1k5bw+vDRlLsegKuJRm9LmCQ69ioXQqzetDiJKb16/kuy/eYOKb/akpcuFCRs4VSTHgQR5/QJf9oJJecEtmhBPxSXR6+g2GjfyEzl26YDFLq/rLvpDvRJ8FrpkF/lUAQUKOEyeN5/fZQ/loQAlC/DTcZnBn6gybfERFECZLBMHqNpyeqPlpWXwz7QwLdqcy9PWalA9xSTN55s5PYvysEwx/tzx1S9iZNieO+Ud1Pn62HFG2TLIz3cxemchtdcKoEOWPBTdLlmXww8pTDH6rGiXsbsVL2H8wlb4fxfLB4ErUjrZh1s0sWX2agBBoensUVlEsMrnYfiiblz6Po3GPt2nUpI1q92r0rs77lcOz3wJVdaERf/oYn416lcq3h9OxZwtMNgn/C88+7w9vSWp2toO1izezduE2uj/cjZatGqNE5tROTFHiPIPJe/vk/VNfeAcjciSgTEUODp9g0tgZZLkz6N6vPUWKCinxOrHvJa9ggr07jjBr4go63/c8DRq3Uv00FJ3XY34Zj6E5IPycvAMIqp+IrpOWmsy4Ea/RvlZhnuzWTkVgZAQ3K0AQsKVJJEE38c28VXyzfBtffzeTosUKqwTEP00AXf+56bvjrWSBfxVAELdx9MRxBvTqzItd3DSuZsFltqJlarw3yQMQHi1EgEXylxLC18h0pPHeiDhiXDot6xUiWEhzaCSedPPdrzE8M7g8nevb2bg+ncGfH6dq3UjuqBVKjUp+FIsKxWZ1KMKilWyWL8li9opTvPZ2FaLtLrVjSE3U6f/WARyhcE+TotSoYKNsdDAhfrqS0dU10UfQyXJpjJ8fy2dLgxj89gSKR5fFZJKxiCO4Pq5ZFn0sbkyazq4/tjJh7Jvc92gD6jatppQXlYiS/J/scvXzJWiu5Udj3MOE2+Fi7dJNLJqzkYd6defONs2x2bw7VrGJNxIkd78eNrqWT/lX1zIaCrnMFuJjzjDmvfHodjfdn7mbiILBii8jnI1rDY3OBd8lamDoKUiEIv7YGT4eMo1GTbpz30OPY/WX7pNCEDQcshdgerP9eUpSNJnIzs7kp+++JH7Hcka90pdihYwqjguPmyWCIFEhWVME8mVmORkwfDx3dOrGY0/0xWwQfa7XxPLdx2eB8yzwrwMIjqxshr3zBme3T+SNp8sREGjClGnmvckHORgYyMRehQm0StDUqhj0GZnpvPxeLHtOOoguYCNANkDo2GRxNEH3h4rTrKY/rmwLv209w8yfE0nPcpHi0ChfLYwnuhWjcmHZu7hYstgACIPfrEoJP7cQDDBrFvYeTuWb+Sc5cNhFiubG5efH871K0qx6AP4SvFXEKhOn02HQ6COYorvywOMvERjg71HQu37OT+rcZcFyOlws/mUmP/8yhqde6U6FGqVVMMPYoRlpgLzoymfMXi/vQcRknKxauJHlP23i/p730qZjS/zFQalxiCP17laVHnE+/fy91THGM0iHTyEw7tl9kHGjvuTIvmO0f+AOWj/YXMku65rbYOhfw+iSkWqSuxsRGpNuVUAwLTmDbz77hcwzEfR/YSihBQspMxvVNh7JEGPUnvEYO/xrfgiPWDlaEzs2/8aEdwcx5v8ep0XDOsrJKqrMBRoH1y3K8rcPa5QSy2xdt20Xo79bzNRvvqdQVKG//aXvBJ8F8tIC/yqAoJYIt5stm3/nie6d+PiFojSp4Ycr08qwKQc5GBDIhEeLEuRRUUTTyM7I5O2RsRStGqBIiUEimqCbcWqC9rMpEGbFpmrRweV248qE5AyN/UczmfhtLLXrBdPv4XIEaKksWexkzvKTvP5WFaJtUtJolJ65dCcuTUd68sSccTH7p1McOutk9LDqFNKzcwSBZI3bfdTNoM8TadnzHeo2uStn0c3LSZL72t6lXZa09PRkvp32GSdj19Pn+XuILBaswt6GiNH1STmIp3Q5HPx3025+nbWGWrVr8HDv7oRGRHgAgpEpv3lyzVf2ppRD1jWl/in/UUKfLhfbf/+DLyfNJLpsIYoVK8qShb/R66luVKpd1iifvais8crue6mzFf9BRa2UVCHuLBfzZ65h9/ZU+j3/LoWLlFTNxVS8Rs1t72wx0hCqMkalAK5+LBdewdiDW0hKiOPL0YNpVjqAAb27E6j6LXglSa5/hcLlPakALlk3snl15ARK12nIq0Pe9DRmurwr+M7yWSAvLPCvAwiye8nISKfPow9TyrSJt/tGY87WGfrVEQ4EhTDh4aIE4/LY2oLL7eTbr0/yze9nGTW8KuWDHKo8atv2LCb8cJjHHy9H7bIB/PRLLElBIfRuFYhdzxRVGMZOTCJey+KFZ2sQ6Ehk6RKN2ctiGDKkAiWChINgZtvOFH7YlcWgLoUpYM9Cd2vs2GblnRnHGD2yFtGWDBXS965yEtmY/Mspxiy08+K7UylavLTKr8pzXcsd419NNu9+VqIEWekZjB35Gn5BsTzUvz0B4cKct2JReebrkwc38s5u9u84xLj3v6Zq9dr0e6EvUVERnnF4paPz4hPK42sqRyuuVjMaaGVls2zBaqZ8/hWtOjXgnp7tcbo1vh03l9iY0wwY0puwAiFqHl3rQ5y+lAWL7oKe7WLd4m3Mmfo7/Qd9QPXbGhrRGk/UQnbs56I3xt97IePVRBAkfpG7MDHnGU1mJSw159vxJO9czsR3niNQtXL29A436LYXmOT6zM+/ew9KP8JkYv32PfQfOorv58ylTt3b83HE6++e2Pfv+cUC/zqAoBIEus62rdt4+7luDOkVRLUiVt6Zepy9wUFMfaQIISYjx6uZbGhmjcP70nhj7DHsBf3o0roIrjQn3y46TXCklaEDylDEX+enX+MYO/8MrVoUpVEVO0eOpvPd/AQe7VGU++8qgL/mYMe2bAZ/epC7HihHvRImKpQOJO5oJs+OOUq5GqHc3SASR2IWMxecpFS5UN58piLBesZ5ksIaGmdSLfzfp4dJDm9LzydfJSxMNNrzYFv2l7NYiJw20K0cO7SLCWPfoFRVM/f0ak1AeBAWcWzCQ1AS00boN+8C/J6afjfEn0jkx++WkXg6TaUc6jesTUCg/yVEgvJuNNfy41cC3xKh0hycOh7HD9/+yt49e7mrU33qNK6OX7CkmcycOZnEru17qN+sKoGhwYhgknfjfNVPei6jo74HkZ347+odzJmyls5dn6NR8w7YpI2zKduIdKj00vkAQcCrFyAIWfiKD4+fF1tYPMTI3NdwuzU2rF3OvKkf8d7TD9CyXjVPxML79OcDBGME58ocvc2er9pWl/lg538RbpIzHbz16TS0AkX5aMRHhISEXeaVfKf5LJB3FvgXAgRj2ZQ1atDTfSiYvZznuxVl9ZYkEmwW7qsbiJ+ShJUVzqp2bbjdxMZofLPoJIdPJOBnNlOpTnHuvLM4ZQOzMesOMrJ0FqxNZs22OLRUB/YQKw0blOauBmFE+LswqfSDiWnz4vht52lKRVrp/VA5SoYGsHFHNj9sieHsyWTCrGZKVy9JhxYRlAv3OL5c71+RmUwWjsVp9BtxlOodXqJNpwfRdLNRK+9dzPNuznjuYezlxDlJKub4oZ2MHvkS9duUoW2PFlhMFiy6We3gVQGXpzlV3rAljOXe2GnrpKRmsnHJVn79biXNWzXk8f7/ITDIH02AnxLtETtJsl50LuRxXHkKX678VXirU8S+boRYsHrZGiaNnU7B4mH07NWJYmWiVJRKSh4F8AogkKdXAltmixIJUtqfyhl7w/1X5v7UVFJthwUsi+OXmIBGzOGTjH/vezq0eYK7OvTEZLaqkkqTSYi3UvJ6IdvjKt1v7vah8r6kiMMkz2bolcjzn4o5zGfDXqZH86r07Xk3fnZzrsib0UFS2dJskVYiOFXKQ8TSRKzMIPvKkxqjv7aHkDJd8j2oFtxGZE2AVg6I0l1s2XuMwWO+5pOJE6hRsxZmkyrJ8R0+C9xQC/xLAYJh8yWLFvLha4/z3tOFqFbSD7PZitXkUDsdr8tRq6Nbwqpusp0WshzS9MZNoL+G2SJZT/mQZcVyK5W2rGwLbjnHaiZYzlFtGy2gOdXi4NAsZGSZMJs0AgOFbS6kczMOt4uMbKPbXpC/jt3sEU7JvfeVnbjK40r/CI15v6Uy8meNbv1HUKl6A8WDkDCwx1te14klfIrfN65ixjcjadK2Ai3aN1ANgqyebnqiNyHRhLyMI3ign3pXutPE3v8eYcGcFbgz4d6uHajfuDZBYYHKzZmQ6IfUl6sAr8dWNxNjXCfbqXN4/xEW/bKUnTt3U6dZJZq3aUBoWFBOm2LlKA3Im/O+Y0+cws8/gAIFwjy9iLwu+8oAgthFRI3EeYo0sVszcfCPo0wdO5e6de6me8++BASGqPuaFUM1j6LiCiAoj47J5CAlIY5tW/dzW5PG2P1tOLNS+Wbc+0Q6TvPuoMcJCZBv8txXrAaoIloaZ+ITmLNkI7EpZ6lYthxd2rTAX89QWhKaSo1d689Gx+1y49Ct2KxCVjaAtQAEOUR8zOl08t6Eb3FHluD9Dz/AbJEKqquH0iIOJ1UmNptcz3f4LHDlFvhXA4TExAQG9H2M4uaNDH6sJAF+Viyym/C0fPaaU3btIvoiS4hN7Zh11VnPWG7VdtRYgyS0anKhaRYVXlf+BwEUssh6eQ1y7rmPX9ZVARYS7BRYoptdynGpPVdODfm5hV2FcAUgSMfHDI1R38aw8EBZ+r40ksLFS6kGNF5y2PXiJHgRidPlZsO65Xz95Qd06F6bVnfXz6W0qNxIHnmQcxNfvQkVSbHgdrtISUxh69o9bFixiQJhBbmna0fqNqyBzSbRAw9cUS2/ve/yyj+ia/kLtd/XIS4mjl9+WcL6dRsoXaYUd7RvQMnKUViFBKgG6xlxLoAgTyNOYeq4WZh1Gw/0aUdgoE3tlM/v9XgZI1ZBDGPOSkRfN1uIOXiar8bMp2KFu+jSo48Kg3tVEfN8rnnktE3mLA7v3cLI92fw6kcjiQixMG/WZI5u+JX3B/ahatloLFIenAOhjGdV1nI5+XHWHN79YRUP3t+BqmVK0apBbQK0dFV9o2HLSYNchoUu6xTd7eSPzZvZF59Op47t8MOpRiZpNxVV03R27jnEK6OnMHT0WJo2b+b5Rq4UzF08nFmzZhESEkKbNm18nSAv6235TrrQAv9qgCChyYUSRXj1Cd7vF07dSkZ5nCiunSvScuOWvKvKqxq68krrJaeEzEN8UqVn9hxiliJ0KUa3J8wuwENXV/E4cCkTO/91yC5cWj1LONJlcmPz9IQ43/0ZzkyCuXbNRFKmmedGHcFR5F4eePJl/PwCcuIfald3vQ5xIlhUz4YNvy3ix+9Hc2+PRtRpWhlzgDg9sd+1r82/1OOpgLqqv5fdmqYA35njCSycvZI9O49RrVp57rmnIyXLlSQoLMjoZSCh5jwIL1+u+SUV4Ha6iItLZPXKdSxbsAr8NDp2a0Wd+tWwWwV05nJ2qtz03P9/bi6ZiD0Sx/iPptP+vpbUa14dk1VKdq9sRyrRHlU2aHIjTaNiD51RHRrLRDehd79XsfoHqJLHvAjJX2gzxR6Q3gki02xycmTPVkYMn87/jRzJ8X3rmfPFO7z1RHfaNauHRaJoopEh3RpzXUhAte7KYvz4SSw/7WDCkGcJtbjVeQLHjZkp3+slKZCX+xovOk9zZvLNhEmsjUnlg2FvEaJ0UY3ooMy7lPQM3hv7FZlhxRgxchRhYcI9uDbfbbt27bjtttt4++23fRUR//gN/rt/+K8GCPLqs7Id/N/z/QhJX8prjxbELukAtZPwhp090QLl3AzpWMXC9oY9jb2+Z4/iXVzcHtGg3Dtmb1MbARnKm6p0Qm5lN69YivSHEKAiZKzcS4XyD1LqJk5PB6tbohOw41gG/zcpnuKNn6D9vb3wF8KYJwJhtI++DpPcGJy6kcvlYNXSefw4+wvu6lKTJp3qYvP3x6IJSBCw5T0Mu13L4RnXPtduW5WSevLnEso9uv8Ev6/+k0N7jlGoYEFub3w7NepUI7pEUSxWI0wuTbwkQZzTNVP19vFEidRgL6efpvepvADSeCGKVJ+LZCewRLQE9uzax/r1G9i9Yy+h4cHUbVydavXLExoWrKIGylIqcuQ5ciSMc79bo5JFANHSn1ezevEmHh94P9Hliytg+r8mwrnoiWIbGO/H06NMIlqH/jzB7MkriC50G90f6kdk4aKem16qUuJavs1cAEj29gLQTVkc27OZ94dPo/fz/Vn4zUd0r1+GRzq3QaQ0/S1WMtJTSUrPIjAolLBgf2wCpzXRzMhm3IQprEtw88nrzxBs0bBKjs8twmgW7GYTyWlZmOz+hPt7KoN0jbOpGaRmurHYAykUHoxdgX2X6puA7sKpuUk4m0G220RwcDBhgXas8u+6RmZ2JjMmfcnG05kMffNVgk3Z2G1WbJoLR7abDbsO8sanU3lt+Ed0aN8Bq8Wi0gIqNZkLAaq264rnkSuaqOskJCSQlZVFgQIFCAgIUL+Q9UkiSR07dqR27doKINjt9pzfyrUsIpjhOdf7Z+57eiW65X4pKSkEBQXlgAz5t6SkJFJTU4mMjFRRCmO9ufbv/jqsXL5b/IUF/vUAQWyzbu163hz0EKOejaRCUTM2swAEl+IVqMS+Ctvn+l5znOHlJSwNH+0FEUbPgJzqq0u8HO9VL/zcvABB6uLVv+lg1kw4zSiC5POfn+TBF0bSsFknbFKKJouKNzt9nb9d2Q1v2fgbkya9TccHb+OOTg0VcdFbBO91SsawLs+O//xLzi3SYzjahPgkNq7YxsJZa7D72ahRrxId7+lA+YoVCQgMwCpqmpqE2D1yOhL9EcKlCkVbDL7H/6wk9KpbCsgUforsLXQLigAAIABJREFUxA2vqzpPajpOp0ZychqLlyxj1eL1nDh0kloNy9P63sYqsmHztyqHYMCdc+xTdcu/eJdCiBNrZqRnM+/7hdRvVpNS5Utg0i2XXMBVSkPhXrmo5O5dOflxiYGfPHiKzz+YQZ1qd/PQo89gCwjMJe9tkATPO64wUnF579QQERJLWHFwYvcG3n7nU+yhJtpVDObdZ3qxctlyTqRrVKhciamTvuZEYjLhBQoxaEA/GlQIJy7mOG+/P4n9h2M44oR6FcvSqX1zOrdrzsYli9m2P5aat9dh/FdzuLN9a/7TsYGKRsyc9Ss/L95AusMgGrZs2pR+Pe+hQKA8u0ZK4hk+mzqTNTuOq1RMeEQkfXo/xB21SuFMS+T19z7jjz8PEpPtpnKlstzRsBb/6dWdtJMH+b83x3PCAX8ePU77Dp34bOxYXC4Xw959l3eHvZvjeMURf/Lxx3Tp2pVq1aopsJOZlcm4ceP47rvvFKAQBz548GDuuOMOBRreeustvv/+ewVYKlWqxF133cVLL73E5s2bmTNnDm+88YYCFAImDh8+rK7Tr18/wsPD1Ri+/vprdV1x/l988YW6l1wnOzubyZMnq393OBzq/HfeeYdGjRr5AMLlTeZ8dZYPICCdGJMZ8toLOE78zHtPRhOuSE6Kwp2zGl8MEK7/ezYAguxCzzlUYZfLMB1OnUnz4vh+cwG6PjmUypXqqH20LqJPcv51BgjK62jw2+pF/DT7M+q2KMwdHZsSFq5aVKrFVe3EPQAsb6158c5LEjVOIYYmp7Nz6wH2bjtMzInTBAWHUKJENOUrlaR0mZJEFIggODSE4KAApB+U4VBViCenrt5Q6fMeBjgwKioM8CM7vLS0dM4mJnP8xEmOHDzCkQPHORUbT3CEP2WrR1OrXlWKRxfCz0+4EUYfEC8zwgAIxuEFCLkCNuemqtoRGqhFfi8LuJ8MWppUXJjPyjViQ7ra8xcqjSZVEW7+2LSbuVPXUq1KG+7v8TjB4eEKGJ07jLbJeQ0Q5A6iE6C6KehOjuxcwzuDB1O9VBijX+lH+WIF+WHyZKYu24G1RCnuvK0mlQramPLjCrIjyvPVm72wZpxl9abtLFqwhK2pFvrf147q5aIpX6EkS6ZPZfLcTWQVKkTV8uXp3aU1NUtFsmj5Kt6ZtpQHOt1Ji5plObj/ACO/WUXf//TkkbYNsDoSGDv+exZsOkifvl0pG+HHD7+uZuXuFCZ9MIBSkWbWr93MvB8XsCfZyX8euY/SRcKpUa0KiYe30+7BtzjpF0Sz5k3p1bsX99xzL4lnEujR8wF+/vlnIiNF7AvOJp3l2Wef5Zlnn6V+/frq7z755BPlpHv37k2NGjUUGPj9998ZP368cuSLFy/m9ddfp0SJEnTr1o3y5cvTvHlzli9fzqhRoxQgEPAg82Tnzp2MGDGCkSNHUrBgQRV9GDp0KD/99JOKGnTu3Jn+/fsrsPD555/z2WefMWjQIJo2bcqMGTPUveTvGzRo4AMJebuQXfer+wCCLLqaxvoNa3m6T3fe6xNG69uDVYme2vdLqPV8D5D3G94rmAZK/tbTRCkj28XImWdYtC+aJ1/6hKLFSqCZJBR6ZfnnK7j9/z5VYSsdh9PNrh1bmTblPcpXDeGhPndjDzKjKbp43pMWjQGeDxAUwNIkTy0OTkofTTizHCQmpRF7LI6YQ7Ec3n2Mo4fjCPAPpFDhAhQoHEGhomEUL16MqKgoIiMiCAkNxW63YbfZVJmh0+UgPSONlOQ04uMTiYmN5WTMGRJPJXHm9BkSziQRUSCM0uWKUKZycUqWL0lokRACgwV8GNGVi3CcRIlyWfnvAIIXRkgIXMCjJCeEQ5CRmaUcwv86jASYlN7pkK2zfuVW5s3aQKs7HuGu9t0JCQo19CzOG+AFAEHSJ3kSDBIgCW6LCZfDydyvxzHv++l8OWogjaqXxc+t8+OkCUxbu5/nXnuJZmWjCDRnMXveAibM3cLYj9+mdKg/bpeTKRPGszpO57MhzxFqysSJk0UzZjDo01/p+cxTvHj/HYQF2JCOk2vWbuRotolOzWsTbLGiu92M/uBDzMWq8sRjDxKQEcNLw2cS7whi7Lv/IdSucfJUHJu3HqBho9spEOGPyeng24mT2RSbzvtDh6iKCZlzJw/vpM1Db1K6SQsmTZlMqTJl1KuJPX6CB3o8wC+//EJkZLiau2cTE3l2wHMKIIgTPnXqFF26dKFXr1488cQTKl2QkZGhAMEDDzxAw4YN1bW8HATZ4XtTCgIQBAh4AYKc9+eff+YAhEKFCqkIgqQlPv30UxVtaNasmaqEOHjwoLpnz549efLJJ9XfSbTi8ccfV5GEMWPG5EQ9rska4rvIDbeADyB4XoHT6eKdIf/HqT++5b2nihIZKDtz0bMXgHBBKDVPFsGrmQsyVnEwTk4kuXh90jGOmZry6NNvUDCqcC5i5NXc48p+K85EdAeEuCn16kf37WT6xPcJicig23/uomDJCHSpn8+TkPSFY70wgmCkGYx9vjhSsJjNIueg0jIyXkeWg8z0bI4dPsah/YeJPZxMZmq26v3gcoi8swvN7UR3y27bk4OymrFYLVgtZqx2CzY/K35BdiKigihdrjily5WmQIEI/AOsKq0hc8stEZ6cxkoe9cncAZ/LAQgXBYgEABnpEGnEvHHVVtYs38BTz/UmvIBHgEfZ/dwPJTEhACE7NYPf5m9lwZzNdLm/Hy3adcbPL9QD5S6c+HkNELw5HEODweFysWrxXL4b/yGaFsD8b96iTJg/dl3nhykT2Zto5ZmXnyNMS1ZEwLWrVjFu+lLe+HgopcP8MDuzmTR+MmvjNca+/jyh5iwcmsaimV8zauZvjJ74GbUL+xnpQN2C0+Fg16H97Dt4jLT0bNLS01m9eg3VmrRi0BMPEu5O4quZvzJp7m80bdWMFnUqULxYEaKLRBHkZzXUTZ0Ovps0kY0nM3jvndcJ0tJU6mr2/CW8MGwKI7/8kgcfegiThxMQeyKG7t27M2/exQDh2QEDVARhw4YNPPXUU2onnzu0n56ejp+fXw5X4FIAYdmyZQogeNMPXoDw4Ycf8tFHH5EbIJw4cYKJEyfmXG/Tpk0qYiHgQDgPXq7D/PnzOXr0KPKnRCB8x61jAR9AyPUujx09ynOP9eA/d6bT/vZAT48FYRsbeeSc46YCCLnUkZRmPxw+5eKtqXFkFurAw31fxd8/BJPmyAlZe3PbeT2NBSAoMSJxRLrOiSP7+eGbcSSm/Mm9j7Skcq0Kqm21qir1CPsYY7peBvbyQnLiDB4bGeF9I0ngUYPUICvDQWZGFtmZLpzZ2TicmSoUL8BCmPMCeGRXZbNb8bPbCAjyVwJNFrtw/b0JB0+UQPlmmVu538K5lNa1ejdCaI07nsiEkd9SpXYZOj/YFps9QAFKVaEgZbXCydQg4eRZfp6xiLijOnd3fYJa9ZpitolcsdH4SRE+8yZEcN7jSk2BSqbI/BHmgYBfTWOdKCVOG0GHGiWZsymBGeNeokyYTRH+fpw8if0p/vR/8VlCtBRFMl63ch3jpy1kyKihlAm3YnI7mDh+Euvi3Xw2+DlCzS6y0Vk08ysW/R7DK0PfoFiwIaJmcTmY/eN8xi/YSJUyxalZqTQFI4JYOucXoms3YUDfHgTpGaRlpLL69z/5bfMuzp5N4kDCWSpWrcmLj3QiOjIU3engm0mT+P1kJsOHDiZESyMu4SxPv/UxCzbtYtnKlTRr1kSRj+UQp2wAhHmKAChHUlIiAySC8MwzKoLw448/Kg7Bt99+qzgJXnKgV27d++fVAgQhLUokQX2Rus769esVQBA+Q25Co9xfomoDBw70RRCu1Yd7k1zHBxA8L8JQo9MY98VYfp4+lImvlKFEmCzYViPFcNMChPNnklPEiEw6e4+6GfjxMYo3fpKuPZ/Ezy4VD06kQuJGqbTJbjk7PZ0fZkxgzapZdO/divota2L2ly28lPHltYzStfzqZG6cH1nyKmN473L+81xvEkiuZ9Vg/64jTP1sJr2feoAKtcsYESfFcnUpSsixPbF8PXYeJndBnnh2MNHlK2A22wyOiJehroiaeQ/eFCyQ1I+qGLJgcZs5fngP4z76Px5vXYvbKxXniQ8X8+WnAykbbsOuufhp8iT2pvrz9AsDFEAQsuW6lZsYP+1X3hw5lFIRNszuLMaPm8j6eI3PX88FEL79iiVbTvLSO69TJMR4r0nH9vPCCx9Qrs09DHzkXoLtImqSxbj3hpMVXpV+fXsSYMokW41TUiBWMjKz2brtd94f+SV33duFgb07Y3NlMWPSJDadyuD9d4cQ6Epjxq+rmPzrKjZt28mK5cto1qypwWkxmYiJiVGcAS9AkHUpMTFRcQAk7y8AQbgGjz32GGPHjlW8Au8hlQVCPFTdTP9HimHp0qWKg5A7grBt2zYVVRg9evR5EYTcAEGuJ/eVcQg/omhRo5JFxifERbGBRC98x61lAR9AuOB9Hj12lH59HqFduSM8cV8h/BW/SyoZci3wN4Dzd7nTThj2qiQKFyu3pvPutLNUbf0U7e59UHW2k12u9heEtcu9z5WfZ0Q3RIwmMy2FDasWsXThDCpUC6NVl0YUKlEIXcogPeI8V379G/WLXGVnFw3h2pZwXs0TOh1Ols5djy3YSsv2jVTEQ1IQ2amZ/Hf1LlbN/y9lSzXk7m59KFCkuLF7V1oS3g4KXnJsXgMEHU2piBraGTInDuzczozP36NtnVIM6NmOEzEneOz9+QoglAmzGABh0iT2pvnx9AvP5QIIG5kw7VfeGDmM0hE2TO5sxo+fwPo4N5+9/iwhFg2nrrNoxlcs3hbLS0PfoGiwpDU0Tu/bwcsvjuCegS9yX8vaWFwudu/eySsffMFtzdrxSt+eaKkn+OLn1RQoUYFuzavjb9LJPBPDwFc+pHDdxgzu9yB+WgYzJ3/JkkOJjB7xFqcOHeDlEZO5q9uDvPHWmyxavIimTZt7BM5QAKFr1658+eWXVK1aFUkbTJ06VaUTpkyZovgFAhjkHNnJv/LKKypqJUTr5557jnvvvVfxE7wAoUqVKrz//vvKeYszX7FihYoKCAehSJEiKmIxfPhwduzYwezZs/8SIBw7dkxxEJo0aaIqJgIDA1WpoxAcQ0NDefrpp9Xf+Y5bxwI+gHDBuxSy2YIFPzNqyFN89HQktcv5KSnkcwDB0EC4gfvBv5x9UgNvhK4duDTYtNPNkC/jqNVxAG07PojZZjdyo56rXKVK/uV/CSIk5el5L1EZk9PNwb1/MPPrz0jNOMgDj3eiYq2yWKxevYi8U+69/EFf2ZmGVXOpZHpEkK/sKtf4bG+TI02EmEAz69jtkh/XOHsmjbnTF7Nrw0m6PfgMjZvdiX9QuEr5GGobRsWGxBrUnPL0dbjGI7zgckbHSBmB8ESOHjnAtE/eoVm5MJ57tAcFgyzs2buPxz6Yx5efDqKMtFt3GxGEPak2nnlRAEIquu5k7Yp1TJy+iLdGDaNUpEQQPADhlJtPhzxDqEU3AMLXX7Jw+0leHvYmxaR8EXAkneaF//uQ/YQyqE9XshJjmCFVEZkJVKnTjCEDn8AvI5Y3R01nwdYDPPzg3bSoXIqFi5by89o/eOOl/rRrUAuL5uSnWT8weMYannmqN9s3rIOQKAa+/AqNmzZh0eIlNG/aVPXVkNyGRAHE8UvFwMMPP4xwBoREKCRDqVAQgCAbAKlgEPKhpCMkiiAgYt++faoEUbQPZEf//PPPs3LlSgUQypQpQ7ly5fjjjz+UPkLr1q2Vo//hhx+Ii4ujWLFiTJs27S8BgpAXRZ3x5ZdfVmMTsqLcb+7cuQwbNowePXrkkCHzdo74rn69LOADCJewdJYjm/974Tn8E+Yz+NEiBFqFbOchLHr4aDctRBDFOBUSloXOjVu3MXdNEiNmnaVRl5do0bYr/nYRVDFY/PIcqvNins84gwQn0RiDW2/CqTlJSohj/g/f8OfOZTS4oyKN7qhFWKFg6aljSPbk9G8wFB2Mceb9aC/PHOfvpg05478BCBdEn/IimONlO4hig+guqEZLqtpFCJE62RnZ7N12jIWz1+JnLsb9D/ajQtWaWMy2HEijZL9zWTvvAcI5qCrESolyxRw5yLcTP6JmERuv9e1BSEAgZlzEn4rj2yXbeKh7ayL9LUqfYstvvxGXqdOqTRv8cSgAdHDfAdZv3k3Hrp0ID5Dz3KxZs5ZjqTr3tWuGvzS2QufPDRvYeSyetvd0IkxChjLDNCdHjhxh3KxlnD2bTLC/ncZNm1K2gMaBE2dp3/4ugk0uks8kMvWnpeyOOY2fMxN7UAgNW7aifcNqBKoupjpxp04w5rslrNm6lwzNxJSvplG+Qnk+HPEhT/TtSzmpYJAIpUTYNI0lS5Ywffp0VR5btmxZBQJ2796tgEDJkiWV88/MzFRRgF9//VX9pnDhwtx///3qHAETck58fLxy3LGxsVSvXp0BAwaoHb6ACyEUiniS/L1EI7Zu3co999yj9BQECErpolyjbdu2530KUjq7YMECFW2Q6IZULwjYkHtLSaTvuLUs4AMIl3ifslRt27KZ/3uuDwM6ptOxXqSx61ZENFlkDQZ8/jg0MhywYGMao37MoMV9L9Hszq6YbbKLlC52Rt379X0atUX1VDmAO93Bts1r+HnuVCx+yXTs1oxqt5fBZDEUI3WsHnsbwkWGoM/NepynmHHRIFVlZa6//Tvho3/ylIaugYZFUSQM2WGDma9x5mQC82YtY8uKfTRp0pl7ezxOWKEoTBZJ7xhNjv5Xw6K8iyAYokPGpLDi0jVijh9g+hcjqBTq5tW+D1A8qoCnENMgvEoDJGl+5CXoSbtnIfqJuqFHX0qBBPl7aZym5rjZhFQryWy3ify050SX04lbpLZFzlr15/AKrbvJzMwiw2nCajarJlDCi5B2bhZPWapcVypf0rOzcGsuLFYbgf7SEEwInZ7pqsOpM/G88OGXNGrXhRdefEE5cdEbkDy/odB67k2LnUW9UJQ/JXQvKQTv+qPAiyfd6VU0FFuEhIbkKCnmnjNS/iiOXHgJUuYqv5X7SkpC/rdcX8bgVW/0jsWrpHieoqOHc+Adn4AF4Tx4r/tP5qrvNze3BXwA4RLvR75rId6M/GgEq2aPYcIrpShRQLTchLBoNFrJFwBBrTuyVGlkaVZmr0jgkzlp3NXzDRo0b6sWDWNdyuu88oVGNghZYkdj12TID6cmJzDn+y/ZtOYXmrSrQou2txFROEiR5RSTHgPQXGu9/Ov5iV4PgGDIKRneyeipAM4MN//9fS8/TV9GsF9xXE4ToRGFePrlNwkOjVQRBm/s40YBBKN1uI34uBimjhtOtCWZ957vQ4FwqbowqnW8Qt1Wj/c1BKXOCXbLXFLOW5VwGmDeqyhqJEsMfQ4vEFBgykO8VGBCgQYP70KqgoSYaREiErhVu2ijhbZqsy3VK+pW52alzGP599xfVLamM3XOIlZuPcSnEydRomSJnDbdfydP7B1bbmBw4XzNDR4u9W/ef7/wXsp28nweWWfvvS6sirjU93E547qe35XvXnljAR9AuOTsN5D/yZOx9O//OPUK7uD5blH42yy4VYtGJbabN28kj64qLiMjS+OnNWcZMy+bRh0H0KpjdwL8pJOSkMLOdTT0agDm0VByhIuUELRqfyALleHUsrOy2Ll1AyuWziEl4zC3N6lAw2a1CSkQjGY1Ug6WvIjL593Dnnfl6wEQFA/fIwKlZWns3X6YFUu2kBpvpkH9DjRp0Z6zSWcYN+Z9Wt7Vmvb3PAzSYthTqSN/XCitZVSinlN3vDpzeYgRuTtE69JOWuPwoT3MnDiSqgVMvNjnfkpGRSoy5fmAXBxybp1rg0x5bht+fvnqPxurUc1g9HD1VHJ4oIi0vs613/dmB6R9h7eiNwd0yyg379rPCx9N4uXB76pwvsV2bRtC/bPn8/3KZ4G/t4APIFzSRobzl1Dnxg3refv5h3jn0RBuryw5WpsS9zHn6qb392a+cWeong9q+yFrlkaGy8TybU6GfRXHbfcOok3H7vjZJHQqTsVQrPO0ccnTQXv1kYSIZmzqVBhB5Z5lx5uZkcam35Yx55svCCus06VXa8rULI3NbiGHx+hZpyXPnvOMeTrqq7/41QOEvwKmhh0k1uWW8rjTSSz4fjl//HaYBo3u5u77HiYyqphBJNNcbNuwjCUL5vHsi0MJDBHhKkPK2zNZlMPzukL5U3bGVx9tUq1QPWV9BuAwS2ROsxB74hBffPw6dYvaef3JBykYHuRx0cJZOf+5jY6I3iPvAIJxB69DN0CD+k48YX41rhxekqEkKVEbdaaukZaVyZDRUwgqWp73R4zGT0oQb4Cw6dXPXN8V/o0W8AGEv3jrRo1vFsOHDWXv6nF8OKA8xSLMKqwoYcv8dnidsVMz88vas4z8Lp46bZ6hzd0PEhhiSOkaLsHbkvrcouzV+M/LZ1buJ1d4VkBD3OlYFv36Azt2rKRI6UBub16V6jXL4Rco6R6VMVddIo2I+oVSwHk52htzbYPoKfc+l0LInSZyuYT5H8fmNX/w55bDFI6sSOs23alVt6HKj3udv3gypzNTifBEFS5q7MBVGarVCLBLGF7aK+d6zKvnIBjiU8Y8NHuiHBoWN+z5czvfTfmYemWCeemxBygYek4WWgCjMTc9h4oi3Rj7X3RXT7rC+0a8w1JkUIeDuYtX89NvO/j4i4mUKl1WpRZ8h88C+cUCPoBwGW/q0KGDPP7ow9xVOYYB9xch0OZ1pJfx45voFC9AkK1hlgO27Mpi+DdJFKx6P1179SdQafWbUP5W1z37Jo/78TQBysvH8QKE3PeQXazT5SQm5gi/rV7A1k2LiChioXnHulSuUY6goGBPO0Jvb62bxXPkjaW8AMEbMVEkU82E5nBxOjaelQs2s3PLCaKjq9Gizd1UrFSH0IAII8+cExo3iH5K6tntMtQsBfCaLLg9JD/VddJkdAPN8ctXG0G44NUofoBbY9vm1cyZOpq2tUvT94FOREWGedpTG3e+CCAIvFDlvDfBkQsgqNEoVq3R+XHH3gMMHD6OZ18ezAM9emKxGSRQ3+GzQH6xgA8gXMabkmjB8pUr+eC1PgzpFU7jKhLyzJ95RCNIKguZQeTavCeDtybGYinblgcefZEiUcXRRajGQ9zyNnq6HhGEi16FhGtFP0EEc1RTDDfHDu/llx9nsGf3eoqVDqHxHbWoUKUkYQXDMVuMNsyKPXaLHgpEmY0cvGS5stIyOXrwJNvW7WPbuv0Ui6pMm44PUKNhE9UXQnbaKuRtEoa+tzmWARAMgppJNZrasnkTkWFhlKlUQ1WXWIwuYOfrg10tQMhhuohzN+PIzmD9usX8OmMMj7SqxxPd7sHPZldAJjcwubkBwvkaamJXkd9OTMlgyNgpaGElGP3xx0SEe3pg+ADCLfpl3pqP5QMIl/FexTnKLvbDD4axb9Ukhj9diiJhHrU3FZr1lDRdxrVu9ClGjtpwGiLAL2v+nsNORn53hjhrA7oJSIiONqSPFbPdCIneEIDgMZZBCRX1BKeSWpIOkSeOHOK/W35jx/aVaFoS5auWpE7jqhQrWxi7v0Wx0b2V/OfiPZfavXl0I24Y6dQ7posjH+fY6cYTeM9wuzSSz6SxfcNOdm3ZT9IZN+XK16N+w9ZUKF+NoNAQnGZxwd7yQfm56AB4Suo8vTEU91/p85j46YcZ7Ni8jn6D3iCicBGRKTKaWeVSEL3aFINSwlCkGBOuzGwW/Pw1G1fO4pm7W3B3q+YEBQQYs+38qr+bOoKggKvZ0JtQETpJ3Whuvp+/nF827GbEp59TsUL5XJ+9L4Jwo9dA3/0v3wI+gHBZtjJEXERqtP9jvakdtZvBjxQjwGrFLYQvCcXmo8i2GqraVRrcb1nYTidbeGfSAZbtiWDAG6MoU7W2WqglVqI6Lt7wXbnBTJcQuwAGcWBSH5mZkcLmTWtZOH8WJ47toFLlojTtWI/y1UoRHBqE2Sa/E718UeaTfg8Gv0JKJiXcIIkU5X6VxHPul5ibFX9Zk+SyTtLOI7cajaCMYLmQ9zzeUeSylViQjNtD4DRZyM6SCEos21btZOX83wmPKEGT5p24s20HIgpGgdl+LoR9gR8y1BD/93E24TSjhr9B4aLRPPbUy/gF2FW+PHcg/58ABAOmGWWF8oBSqJp+9iyzZkzg8O+LGTboURrWqELu1Lw6NxcwUVUVN2HliorGSbTD5EapQ+tWVYa548ARnv9wHC+9/jadu3RRstb/+/ABhsv6cHwn3RAL+ADCZZnd2MFJnnblihW892pfnr3bwt2NQ1Sk3uCM5c+Ug/H4hi5/TKKTKT/FsvJAFI3veYrbm7bBX4m+mDFpwo2/uVCQCrcr42tkpSVzaN8utm/+nQMHt5HlSqBIyXAq1ixJ6fJFKVw4Apu/LZcUrAAfeSKjvl517DzvuB4AQZy/V8RIGiEZz6NcqmZCpG2TElOIORrLoZ2xHNwbizPTRrEilalzexMqVatFRKGiRq2/4vvLcel5+HcAQSJEu3ZsZcbkz3n4sWepVrNejpaA1yxXDhC8oMds6IdoOjHH9vPzNxNxndzHS493o16tcudFKdRsVGjhnOO8WQGC+uyVcJqOyW1SKZ8T8Wd4bfQkoms24M0331QCRl7NhUsvNT6AcFlLsO+kG2IBH0C4QrOLutk30ybz85Q3+ej5kpQs5FIKdLKg59/DA4B0yHBq/Lz2LJ/8kEKVZr2494En8A8OV+HqmxEgGGaXsRlRHM3pJjUtldiYo2zdso4/tqwlI+M0IZEW6tavTJW6FYiMCiUsLBSTKOdJfEER9CQyYThpY7eb9wBB3UczSkutFrNS/cvKdJB8Jplj+06xad0OThw5g0m3U7ZiHRo3aU3pUpUJjyioWkrrZouSUTae3wveLg0Q/lq4UDDrAAAgAElEQVQtU96uqBM6OB1zmNDwQoSGRHpM4KmWUCWwCpJd0TQ3NC5EVMjJ7v9uYtbET7i9TDiDHu9BkYLBqimUIfid6/vJsb8Hvt6kEQRvvEeBBJl7Lo0x02ax7lAcX0yaQvFi0R7J87+aS/l53biiqeA7OR9awAcQ/sFLSzyTwGsvDMQSv4i3+hWjQIglp1fDP7jcDf+JhEjRLIrIBg6yNVi99Sxjvk/DXqYtHXv0o2jREjdpI5bchERj56liAdLRUoes9HT27dvB3j1b2bN7O/GJRwgLtxMVFUaJskUpUbYIwQWDCArxJ9DfDz+7N7Tu0QT4y/X7wpTE37xKcSLKYaKiA6Knn5GWRfrZbE4fjefY4ZOcjEkiITEVqzmCiuVqULlaXapUq0XBQoWxWGweIOp1OFLyKIjGsIHhvq8UIBjXUhFyk45Vk74juXbvHmVBo6XxlQMEGVlmRiq/LfuFVb9M4576VXn8/nuILBSuSKdyZ+1CzJGvAIKhiSApoRUbtvPJtwsYMvwDmjRtavB3/jb36AMIN3wB9A3gf1rABxD+weSQqoYdO/5kwBMP0qVeKn3uDifQ7ufJFxv9GnJW7H9w/ev+E3Ewntp0495uXJrGgeNuPv8xjt9PlaB9t/7c3qA5Zru/oXnv3bWex7G73ovdpTkDBmNEeeMc3R8hmWZnp5GcGM+p2BOcPHGEg0f3cfz4Ydx6GkEBOkHBARQqFEaRogWJLBxBgSKRBATZsdhNSv1OJHetNisWs8H+z6UppJyqV7pW/hS9e5fTpXoGuLI1XA43iWeSSTiVTPzpJE7HJpCakk5aloY720bByGKUK1OJosXLUCy6BAULFycgIAS7X4CRw1YKPIb0rwmPnoECBuc7bW+i4cI59NfV94YuofzHqqobNM6ciScm5jhVa9TEbvUzHJ0CCH/xjlX0xZP3kZJJNGJPHOCXbyeSdmInj93XitYN6xHiZ0dT8sWS4DGe6TyMcAmAcL1n1uV/g8Yk277nEK+MmMD9/+lH36eexO5nPz8qcvkX9J3ps8BNYwEfQPgHr8IIm8Jva1bxzqBHGfJIME1rGAxs3WRTZWIS0s3Xh3I+GmkZVib+fIpvVzip3+lJWnZ4kKDQCMy601Mn73lK9bj5QwRG+VovcUwktWNOKP7Cwf1/cjLmqOowmZB8huTkBCx+TsIiAwkLCyI0NITgkGAVaZAQv9nibfpjUREB+Y8z2636eKSlp5OamkZKagZnz6aReVYjIDiUAqGFCI8sRFSh4pQtV1mVFZYsXQ4/Pz+P6zVcoTjpv9Ppz6v5JQ576+8b+WbqWJ55ZQilS1b2hMrlJf/FO84pS7WotM3+vX8wY/wHFNRSeHtgb6pXKqPwjGgY3BqHgCY3iWnpDB45BXdIUb6YMJ6gkHMiT7fGc/qe4t9qAR9A+IdvXpZK6QL32aiR/Db3Y955shiVowUcGI1yFcteRanzJ1CQgILsRmUf6HDoLNucyvi5iWQXbkm7+56gfPnKWG0ejXq1w81HAEG9F4+TUjtmY+xSNeB0ZpPlyMSRkY0jK4O01GSSU5LISEsmKy2VtLQ0srIycTiyVOmr7jaqH0wWi2qXbLf742f3U211A0PC8AsOUR3zwkLD8QsIwD8gGJs9QJE/zSZpQiWNf4yOgBfOlL9mv//DiXuZP3M4Mpk+cTRx8WfoP2AwoZEFFRHyr5qUqVSBycSZhJOsWjSHP1b/SodGNejVpTWFw4ORghIlxHQLAASjNkMnK9vBxO9/ZfvxJD4Y/TElS5X2iSFd5hzznXbzW8AHEK7yHSWcSeSFZ/qhx61gxICyFAg5v447fwME5TYxqdpujcR0KyO+jmHeZgudHnqeZnfdrdq9KmebjwDCpV/5hfl1Ke2U6g5xi3IYaRhJJSgNCQULcof4jVy+pw+gUT7qaQ8uNpTeHWJHKYU7r9LAkya4KMwukOUvy+OucuJexs9Pxh5j+Fsv0rRFWzp3f1RxUCyXCCB4IzLyDMePHmT6uA+wnD3M608/xO3VK6peH2Itb2LKJFKd+fwQMCmA6Mcla/hk5kI+GvMZLe9onm+iaPnc/L7hXycL+ADCVRpa5AEOHjzISwP60bDEfp65rwh+Fhcm1QdW6ti94dT8FVY1NoPKzakdtls66pl0UtJ05q1NY8qiJELLtqJt516UKF0Bq01SLEbJoEHFU/GTfKIbZ+hBeA/v2M/9hWEHg3AmwMHbNvhC7QT5twudn+SovURCD0DICRV4/oeiGFyQh88V5bhRM0eaM+38cxNZmU7q3tYMk0XesJAYjZ4KhsaBETFLTU5izfL5bFw0hyaVCtO3ewdKRhdSlSLCWTFmg0dQLB8DhBzxLR02/rmHt7+YTo/H+/OfRx/DbhcdCm+XjKtcWHw/91ngJrCADyBcg5cgUrVrf1vLm6/1p3fLFLq1KIifyP4KFyGnVt9oKHSjFvurfUyje50xeofbwsHYbKYsiGfpHzYatelJi3Y9iAgv5AlDOxWgEGd5fkX71Y7iZvm9BzBccjgXQ40rGbWCV7kjBzk9Ma7kKtfuXJENVtETs01FRBSdUSpEFFSS0kgXO3ds5ccZEwg1pdL//rY0ql2FYBVZ8laLGiRIQ3VC0in5N4Lg9vCLjscl8drHk6nVoi0Dnx9EYFDQX6Zfrt0b8V3JZ4HrZwEfQLgWtlZla25mfD2N0e+9xIdPFqFl7SBMFqOfvKqxN5kMfft8euQGCF7ifKbbwuKNiXw26yTOiHrc/WB/ylWtToDdrrLVlnzar+JGvqKbDSB4bSEEzLi4kxQoWBCbn58CBikJZ1ix8Cd+XzGX1reVo+8D91KicEGDd+Nt430JCYAbLsp5FS9YAMKZxBRe+3gKlshifDhyNFFRhT0Rkqu4sO+nPgvchBbwAYRr+FKEwDZx3Oes/2Usb/UpROWSxv5Z8thKCiZ/8hWVhc4HCF5paRNuzcyh2Cy+X5HEkj9tFK3akuYdu1GseHn8rVL6mX9B0TWcGpd9qZsRIMiYzsTHMXrEMNq1a0/teg3ZsnY5vy2eQ4lQnYc7taJx7SrY/fyUcLXxxj3/fQsBBLFDSlY2n02fw6ZDJ/nw40+pXrWqpwnWZb9i34k+C+QbC/gAwjV6VSqDrENKWgZDXhnIsS0zGf1KRUpEmnGLboCo5SmAIDlpz03zEWC4ECCYpQxPSHxI5YbBOdh1NJv3vzrCigPBdH/4KVq1uw+/AENq1qjjP0cENCSO82/K5RpNm4suc+MAgufdeHUMciapMVmlLfTShbP5ZfbXhIWHknnqEM8+fDf3t25OgJ/NEy3yck7OTewLJA0MsJnvmm3K/Ja5buHbX5YxbcEqxk75iurVqnk6aPtAcF59D77r3lgL+ADCNbO/sShquomjhw/yyqDnKGLaxsuPFKdopBC7pMGQIYtrKN+J08w/C8tFJXge0RzF1FfcCgMgJaaaWLY1kdmrUokzVaFJ6x7UqNOUsPBIsGjoZoP5L4ut6hWpxHJ8h9cCl8KMeT9LjH4CRj8HgzsiPSKEXKhpJrKzMjhxeB8rFn7P+lVzKRjkx7g3X6R6pVLYvX0TlHiWcv8Xv8zcobN8NOfV92ySTo0aGS4X81ZuZMoPSxnwymDu7dr1JlUW9X1LPgtcOwv4AMK1s2XOlaQpzZFDR3jhuSepG7WPFx4qip/Fea4EKh9GEC7PTKKKp+HSLcQnayxYncSsFZlkh9SkbZfeVKvTEHtQgAIJos8vsMLo8eA7bpwFvJEdQ0nRcO+eOg6XmVMxMSyZ9y37Ni6lYZVoWjSsya4/dvF0n55KNEqYiOfXquSjsNhlGN0gJcLa/+7m7c9n0OfpgfR88CH8/f0v49e+U3wWyN8W8AGEPHh/KlgrlQ3r1jH4lWfpUvcsj3WMJNAu6njSIOgWdYke9UVds6lqQJFZOhybwcxFJ5m/xUR4qSa0uuchSpStQnBQBFartDW+sFQwD16I75J/YQEjtaBC6OLsNR2nI4u40ydZv2op21fPp2Kklf/c15Z6tari729Hd2uYpdGVBBs0kZy+usqNm/n1OHWdA8diVcVCyw6dGTjoRcW18B0+C/wbLOADCHn0liVrme10sXzlckYMeZZHmmv0bheuxG8MgCAhdkMz4JY5VP7a0KaXlIp6Rt1BususyiIXrUtk4SYX1qi6NL7rPqrVup2wiAKedMs5TYDcgepbFErdgFfu3dlf2qLyrw6nixOH9qjGSvt2bKJ68TC6t21GnSplCA0OxCT9J6RtsyGzSWpqunKWAarvgDGTb510kVjExM5Dx3l55ARua9GGl195hYIFZL76Dp8F/h0W8AGEPHzPyv1rGgsXzOfdwf15pWcw7W8LwWbxUrtV38Fb7PCErHXhs3sEhXQXOg6cZhvH41zMWRLHjIVJ+BerTuvOfWjYuC12P3/MZgtu3YVLCJBmibT8r96Et5jJ8vBxjLSB7umlIFxR4cKoZg9owjUwWXG7sok5tpd5s75iz5bV3F6pKE/0vJfaFcsSYLOqSIH0XRQZRaUGiYnMtCzeGfk5JSuV4/GuHZRaolTxmnWjhXb+PQTgil0gOSWDZ4eNoUC5GgwbPpzw8HBD2+GiI38/cf59V76R57UFfAAhjy0sqYas7CxmzJjO+JGv8mrPKDo0jMDfKgQoCa/f+ofRPljHJQRFkzQzMnP0tM7yDQms2uYizVKasrXvpFa9lkSVLIk9INgjvufGms9IbTfb2zRElwwOvjeVYNItuF0aZxLj2fvnVravX0rW6QPUKRNF62b1qV25DJEhAUrLwihaNFoaG//L+G+ny82y9ZsZNfkbBj/dm+b1a3m0L/JzOa9XHVLnyMl43h/3Nfao0gx5512io6NzlEV9AOFmm+W+8eSVBXwAIa8s67muRBDMZjOZmZnMnDmDrz4ZzGuPFqZVTSn/c+bz3dblGc8LEIQpbxQ2WhVQ0FxS9WBhw5/JzFlxhg37zJSs04JmrbtSq14jrBarUeUgKYuc+vrLu6fvLMMCShZZpI5NJkQVUUihp2NPsGLpQjasWUyoKYV7m99GhxYNKV0sigC7TRFNLWYzbkkXqcyEiH151Q2MJIIEEhyazuczZrJl5yHGvDGQMKUmeL5sdX56D6oZla5zOjmVIZ9MJokgPv5kDGXKlM3Fs7gxdSb5yY6+sd46FvABhOv0LqW5i8Pp5IvPxjJvxihefTCSxjWC8bd5F+HrNJAbeRshMUrDI2yGkr+SonYpPYXkNJ3tB7OZuzaB/x424wouTY0G7ahSvSGFixUnICAQm1Wa/vjCuVfyCjVdw5GdTXJSIof3/ckfm9Zw8sguikX4c2eDWrSqX5OSUQVVyZ5Xz0IBOpOunKUqX72kYLbBOohJOsvYr2bRo0MLalaq7ElBXMkIb5ZzjV4YcUkpjJk+hxOZOu+PGEXp0qUvg4Tpm5M3y1v0jePaWsAHEK6tPf/n1bzlY8lnk5k84XMWzfyEFx6OomWdAJEa8orWX+AAb42SsUs/hbDmlc6kckRoYgWNTIebmAQTv+9LZ/m2VPYctWMvUIEa9RtRvXYjipcoj9UehFvKI5UT8zS7UOq+niZCOWI/uV7HLbCGX9jOybun96hQGNDJE6TRdTdnk86w989t/LFlA4f/3EKxCDsNa1agWf1aVCxZlNAAOzaLVVXcqB+aPekEb7NyD0gwQNnFBlQlrUB6eibB6lp2pMGT0cHUgBZKHEs6YF6n7+xKb6M6csqYdZ3YpFTenziDuCwLQ4e/T/Xq1S+hknjhbL5Zn+xKLeE732eBiy3gAwg3YFZkZWUy9pORLJn9Oa/9J4L6Ffzxt5nQNQ/zP2dMtzZHwZtwMB7X0x/Qyzkw6WQ6NY7FOFmyOYmfVieS6gqnYKka3NayM+Uq1yQ0IhQ/WwAWkw0zdnThdJhchp/z6Cx4Ln0D3vK1vaVASJHsPidEZMKsi46ECbfgK11DdzpIT0ki7tQJ1q1Zyr4/NqGnJ3B7tdLcf2czqlcqQ2R4hMc+RgWNglRCClXdIz2k0n8ydJOOy+nG5dII8JdGZWZ1Xa8Cp4z15jvk+ZXxSMnIYsSk79mTkMbIUZ9QqXJlT+TgZhz3zWdJ34huTQv4AMINeq9nk84yafxnzP9uDC8+EErremFYVItoQ0BIcseygBu7sX/LYagyKriglP2MNITTqZOcqnHgaAabDrjZsCeb+IxQLCHRlK5Qg7JVbqdIsXJEFojAFmD1KFaK6xRbGo4q37aEMDiGqJ6KUl0obbc1kyJvapqD5OSzxJ8+weH9uzi46w9SzxzH4kyjZoVoGtSoRLVypSgeVRB/KUUU3QJlXQOaiYUM/USDN2Aoff7zY93vm9nw3330fbAzwYE2z33kmpIaurkOeW6JQknNhXRmHDXlO85qfrz21tvUqJE7cuADCDfXm/ON5npawAcQrqe1z7uXTkZGJhMnjGPO5OEMfaIQjWpEoLudhlaCl33+rwIIuQ0kTsW7Yxb3aDg1l24mywUn4zLZvt/J4t/PsHJ7FuaAIhQtU5bKNetTt34rihUvjd3mpwiiyhl4GgAYO+Wbf9E3xmg4bGknboBFDbfmIj01k53bN7Nt0yoO7d1OwukYykWH07FVExrVqEzFEtGEBtoxWW0qwm/R3Z6d/NUBgL/7VP677yCPDx7BwN7d6dauOVart+7hKiITf3fTf/jvko5ymTRS0x289tEEjia7+GL8eCpVrHDB/Lj558o/NIHvZz4L/K0FfADhb02UlyfopKdl8NXE8Xz31Yf07xxO24YhBNs9+7vzQsp5OY6b5NretVhtc8Wxi2ORCny1fzbkmRXPwDhcOmQ6LSQkudl9KIVt+7PZF+vicIIZs38xooqUp3DRshSKLkXB6BKEhUUSEBiMn38gVosy8gXHuSy/Z+PuKRE8NzCjL6c3OXJxPlqu4KX1/TWh0rjmOfaJAYbUf+sazqwssrOzSElJJj7+FKePHyY+9hBxJ4+TnBBHoVA/yhYtQI2yxaldpSLRRQoRGBCAzWrEBUTQyOg07mk0JJEH0T3Ig1ftGTUOt8bsBcuZ+fNS3hz0OHUrlb/JwvTG+xIbuDWdgzGxjJ4+m2z/Arz5znuUL1sGs8pP5T7ywmJ58BJ8l/RZIA8s4AMIeWDUK71keloas76fycRP36RvJ3/ubxmBv6os8+6iPQ7TAxgMsZpb9DjnmT1qk+eLSamdtTpH96RhjMI6afnk0nVSMzQSU7OIPeXkwIkMDsa42XPSzaHTNtzWCAoWiaZgVDSFikYTXaIsRYuXplDR4tjtVtzioEXoRzbacn0lDCllqqKdYzQxyiG1mc0eGSj5jVFOqGFVgWssbsxuaUR1DgSYRWLb0CY2Sgal7FDup5p7aqScjScm5ignThzl1LGjxJ+KIfF0DKmJcRQM96didFEql4qiTIkilCxejMIFCih1Q3+7pFQMkp2heWAchhySt7uCYaO8dXXGnMzKzmbkpG8oFBnOEz3vw6S7jb5kN7x7p9jI6EAqdtgXe4rBH08htHhphrz9DuXKVzBasl/0WeWt1W7Rr9j3WLeIBXwA4SZ5kS6Xi5kzv2Hcx0Pp3UKj+x0hhAbYwCSELyF7yXIvTuff3dzoHEAwnPI5cV9DslpshSZe109VNWS7NNIzTSSm6hyNTWHnvrMcOOLi5FkTSf/f3pWAR1Wd7ffeO0sm+w6EnSTsq4oGpYhYcRfXolSrv7ZqW6XFSl2qiEUBt2J9ilK1iEAXUKsoBaGyC0ghskVAlhgC2cm+zsxd/uc79042URMIyWTmOz4ggTv3nvOeM/e851vez2tDpeqAinBExnZFXGJXxCYmITa+OyKiYhDicsHhcMFuD4Hd6YTN4YTNbofNZoOsyLALtUeLsIgYARmq7obm9YrANwrYUz11UL0eeDxe1NW5odbVobamAiXFuSg+lY+SokIUF+bD665EqE1BpENBnMuOfj26YmBKPwxMSUZUTAhiwsMRHhoi1oHFjyx7w+kXsKWX2K6rm2IkSD+hsroKXq+KmIhIYcGgDqs+iwYFVnYIvyWCQNobOg5m52H2m39HfPJgzPzjc+jSJbGRW4EtCO26aPhhfo0AEwQ/mp7a2jr8Z/WnWPDSM7hqeAXuvykBYU7LD2+dwjrm5eo/INUTBMEGfL81JgoyDM20KZh5/ZoZoEhES1eEm4IsDRVuN8rKdJRX6Sgqc6OkTEVJuRulVRqKyw1BKjy6DW7NjlrNCbdhh5sSUnUKDvRlm5i6DPXdEJu3ijrVJHRhTocgEXbZALnjHZIEl01GWIiCyAgnYqIiERcdhYSYGMRGhiMqKhIxUWGIiQiDU1GgyDZBQCiZkLIBLIkiMRmNrQWnm52zDTg8kxk3PUP0uyoIEs2CAsLcDLAUY+iwlEeSljawJX0fXlz4Hi64dCJ+M20akpKSfmCobEE4k7XAnwkMBJgg+NE8ilA03cCX6bvx+NT7MTIpC9Pv6oPECFW4Gyh1LNhbE4LQqFS0eSiljdtGDmYrZkGD7vMpN8KOzPGmgV+GpmuQZE1sZNBJLEgWegBezUCdR4PbC7jdBqrdErzCOGFA1wCvaghDhTCfG+Z2LCkyZN2L1z/KR05VN8yeejdcNgUOlxN2xQ6n3QFXiBOOEJuoiEhjMYsf6YBKEfVWBotlItCpK1YtL40KJVFUhrXx0r99X+sIC4IgLooBTdIh6RrctV6sXPMZrpxwGWLCwi0LT8esYY9mYGv6V3j+r0txze13YOrU3yIsLMxyKnyfSYMJQrC/c4J5/EwQ/Gb2zcA3QRI0DTt3/g8vzJqJnvJePHxrEpJ7kjwxHZpNlwOJC5nhep1X2vaMoW/0zm4S1+jzIFvve7HxNstYEDUFfPWkJBIepgAC2pwtL32TVEAze8AKFBDuDHE7wQysgEbzL6yhyOLk/Oy7JdiX0wuLZ/0WTrssTs7CB09FgCg9kfQB6D/rWSK+QadsA7qNGflvWgmsSgiN4gtE/Im43/e3cxOO+MMzRnGkZtEmHeUVVXhk9nwMSu6Fh356C0KdpFXRPgRBxIpYGgflbg8+WL0Jy1Ztwe0/vx/33HsfQkNDmw3muxBlgvDDs85XBCoCTBD8dGaphkN+Xj7mznwM2btX4ekHe2NkX9qgSIHQbhXfCe54hPafOgpCrHcqiBgHs/kYiSx87nOXFWDb112w6PnpCA9xtn83O/CJjfd/Mulv3JWBp56fhyd+cz+uG3dhk7oO57KbwjpjeFFaVYs3/vUJNu89gsdm/BHjxl8Gl8t1Lh/N92YEAgYBJgh+OJVmgR3zVJmfn4dXX34J+7e8hwduDsfE810iSI5U72SR3+6HAwjYLjUGmywAzU7DlEZoqJj3YQHW7U7AO8//HlFhwbUZNYfEU+fFgn98hKNZ2Zj1u18gMjzcsuqcw4Ur3D4Gsk7mCXJw7FQlHn3iaVw6foIILuXGCDACLUOACULLcOqYq6x0+4ryCixf9k+hlXDliDrcfW03xNG+4zOfN0kN7JiuBsVT6y0G5ubW4Nxp+JkIwoJPTmHl9ii8NfsxxEeYvvdgac0JAjlDKmvdOHI4C4MHpMLhcAhtC18T9TjIa9JGAJFrgXSlMo4cx8tvL0dCv8H49W+mYsCggYJYc2MEGIGWI8AEoeVYdciVPvkc1ati1aefYtaM3+OKARV46LZe6BKjQhGR82RtMM3cxreEXjqk24H50Ga7WFOvte9k6sWiT8vx/mdOLJjzBLrERDXB4nSe7rbaHP0B9OYEQTV0yBSQaZX5pvVpGBR0S1ESEjRZF9LRrcfAZMVCKlqibAmTTdd4VWzYlo45ry/G5TdOwe8fm464hDihZyGRoAU3RoARaDECTBBaDFXHX0g+3S93f4n5f5qDutzNeOCWBIzpTxHyFNFGQXAUHUb9bP3rtuNH1/l7YBYmUvGvDVVY8rGB1+c8iaT4uPqBiZDHZnmq9CMFLgZKa0IQKL1RBIFa2g0AtqfvRnx8Avr37i7WKVGH1m3bPopllqemJ9DvJFt1qrQSiz/6D7YdyMaNk+/C7ZNvR0RkeIPGQeDAHCjLhcfh5wgwQfDzCWrcPXo1Uk2BwoJ8/OnV2dixahmm3hyN634UDwdVMrRaZ6g10Ilgb3FXzX1exUdba/DXZW7Mn/MUenZJDF6CIJQofTYwM6X0lTcW4lRFHWY/ej/sgtmaBbVa10xKQOmUZpNx7EQBXnxjKfJqvHh2zlykpV0MRVHqy193gvIbrYOAr2YE2gEBJgjtAHLbPcL3spXg9brx7jvvYNm78zGhfxXumBiJnokk59tQPS+4KkG2Hcpneieh4ggdq3bU4s/vVuG1uU+hb1JSvT0n2CwIItHQOrULSwnVPzhZgD+8+DquuPwS3HHdeLjsdmH9asgOadkx30xV1UR8w+dffoWFK/6LpNShePTx36NfvxSzDgVNZGOfzrdu3bJnnel64M8xAp0dASYInWwGrUgDYZYm3fs9+9Lx2gtzIRVvx9Qp3TC8XwgcVhyCWTKZHQ7tNcU+grBhtxtzFxRj3tynkdKzV9ASBLH2xIJt0G4gwaIV67fjlbeW4C9P/QrnDx8qhKYouNCUETfFopq3JutY14VmxKmKcrz9wSqs/t8B/PQXD+C22yYjPi6+nhmIolVNbtT8vkwQ2uu7wc/pnAgwQeic89ZgtjZ0FBQWYN7Lc7H2P8vwq0mRmDQmFnER9J4l/6wMRYgqmdSCTnIB5PL2r9kThEzDtgMqnn05F/NemIHUvn39q48d3RsJqFM1/Ou9DzHuktHo3asnYCiCSVDarpCWJlZhNDgeNIlcBQqonBZt+nVuLw5mnsBrSz9AiWHDkzOeQdqYsVCUplkKrXVcdDQ0/HxGwN8QYILgbzPSqv5QNUAzAqysohyfrV2DJQvnI8mZjV9cH4Uh/UJEDQDSv6d0MjJ/KzpJNlsKga16Fl/8gwgIZUQDXx5V8aY0aXQAABV0SURBVPisb/DyCzMwKCX1Bz8WdBdIZC+wdEApu4BEjQQIiqi4SGShsWdA0AJL96OisgYfrP0cK7bswvljx+Gee+5FSmp/yLKpWNm4MUEIupXFA25jBJggtDGg7X07IaokSvyZL9UjxzLx7Iw/IDN9NR69szuuHxsNm6TBq2pQhJ6/1Fx9uL27HNDPo6k4cNyDh/+QiZdenIFh/QcE9HjPanASUFFVjarqGiQlJIg6DiZNMJuQyhbGBFOW+uiJIsx+YzGO5VfgqWefwbXXXS2sBpJhN+WsffEOZ9Up/jAjwAj4EGCC0MnXgqjIINRmzLoDuiGhrLQUHyz7O1a89w76xxXhnquiMKCnDJvNAZ1OYuL09kNq/p0cmA7qPiGbma/ivmmH8cJLz2DkoAGcdHrauTCrK67fsg1LP96Ap6bej359E4QrwYxC0IQaIhnIissrsXrT/7Bi004kDz0Pv3jgQQweMggKiYCIuF1FFNhqVBGjg2afH8sIBBYCTBA6/Xz6wrcawrjoxer1eHHw60N449WXkL13NX52TRyuTotEmEuHLNlE/rkkqSZRoBcstzZCQEJuCTD5gQOY89IMjB42sAlBEK6eekVGS0UwSINCyNFQXlWHJ1/+K7rEx+LxX02B3WYXVS1laPB4vTiQeRJvLPsYR3NK8ctpj+Dqa65DdHR0fbEs02jgU7LkgNw2WsR8G0bA/GYZtJtwC1gEamtr8Y+l72Lx2wswJKkI916bgKF9bLApVPjJsiRQCT5ubYSAhMJyCbfc9xWef+FpXDRyUFBlMbQWRDr1px84jFl/ehO/vPtWXDEuTWQzFJ0qxaotO/Demq0YdN5FmDZ9OpJTUqw03u96SvNXGWcptHY++HpGoDECTBACfT0YECexg0cPY/E7b+HQ1n9j7BAZk69IRPd4HYpVgpg1E9pqIUg4VS7hjgcz8MQzT+Di0cPrZYCCQQfhTFCs8ahY+dkmRITaccmY87Fj91dY9vEGeJyRmHLfz3HZ+AmIivZJVn/fps8E4Uzw588wAt+FABOEYFgbJHkrGYIorFmzGi8+9xzijaP47Z3dcUFqOELtBqRmEsDBAMu5GmNJhYy7Hs7Aw9Mfxfi088k9LhoThNMjTtoHXt2L3FNF+Nv7H+OTzbtxy+13YurUaYiPj4ckAPQRAyYI52rd8n0ZgeYIMEEImjVhgJxJFBiWk3MSy//1d2z86F0M7FqJmy+Pw4jUUITYVKr2JKRrTUVGqrrHHqiWLxHavDSUVCq4d3oG7rl/Gq4adyHkRul3ZrppA6aUgRKohnAzndbSSfLFCVBKIwkiWYNWqaR5YQk+/XwHVm7ZhW6pg3D5FVfghhtuQHhYhFnkSdynJQShKbYckdDylctXMgKnQ4AJQpCuC4/HgxPZx/GX117F9jXLcfVFdtx5XU/0ipcgi7oOVJaXXs5EGswXfaBuZG21BAzhrlFRUmXDA0/sxy13PYxJEy6GEqSFAEyLiUqBTvXJixRzQMJdNhkoq1WxZWcG3lryHoyYRPxy2nTERkVixtNPY/bs2UhLS7MKLfkIFa/AtlqrfB9GoCUIMEFoCUoBeg3Fp9bW1mDD+s+w+J2F0Ir24NqLgMtGx6N7rA2yTQjg+pRyRfAYt+9GwEcQyqpteGjmflx544O49cpLRUnuYKRXpjKHKoZuWOoGuqGhutaNfYey8O+1W3AwpxSTbrwZk386Gd2SuqG6qhbPPDMTuXl5eOWVV5CUlMRLjhFgBDoIASYIHQS83zyW3A6ajqKiQmzevBFLFy2AvfwQbh0fhrFpcYiNAOxCAlcxzb201TVK0/ObcfhBRwxyzUBFWY0Nv5uTgUsm3Is7rv8xbELEKvgyRSjuhdwMiqjaBNR4VWQcOYpln3yGPVmnMPGGG3HbLbchObkfnCF2k0xAQW5uAaZNewSjR4/G1KlTYbfbG0o2+8E8cxcYgWBBgAlCsMz094zTrKdjnvcqKyuwdNE7+Mff3kJSdCGmXBmJccMjEeFSzJOwqJIXfJtdy5YJ4aKios6Ox/+0D8Mu+Bn+76YrhYKlKSwcyCbyxjJFQr1IrCdNoiwaFceO5+L91Rvx2c79uHDsePx66m8wcOAggY1pXxHlGU2MDBnr1q/DihUr8NxzzyEyMrJl8PNVjAAj0KYIMEFoUzgD42YerwdZx7Ow+pOPsP7TDxAtZeP6i8JxyXmRiA1ToMik2iikliyrAsk9K0Ivn+o9BG9go1mVsNJjw9PzD6J36q349U+ugWz6GKwNU27CE2S98wYpUj0F0ngyE2A0c4OX7ZA0TdRaqKxz48CR41i58Qt8dTwfg4edjxtuvBHnXXghIiO+f9OnGJnqmmpERUaJOgvcGAFGoP0RYILQ/ph3iieK05+qorS0BEsWvYXlixcjVMrFQ7f2xo/PC4PLRZHolO1A7gfaG6hYDr3IzdNjcDYiCAZqvDL++HYmorpeg9/dcT1kisiTTOqkN9vsaHMVtTQ6WSPXAdUKNZmPzZLvVgFFgdvtweHME3j34/9i7Rf7kHbpZXjkkWkYMmQYbIrSyF3Q+cbdyaaJu8sInBUCTBDOCr5A/bBZblds8xLg1TRkZR7DJx9+iE1rP0aodhJXpUVg7BAHenSxw66QNYGu9Z30fC/+4CIKZpyBAbcXmL0kB3LEBDxx102QqaSmVTZAI4wa7YudlSAIFwLV/yDRbkOCpuooq6rC/iMnsPLznfg6uwCpQ4bj9tunYPSFo+FyhYj0WeFEEFkdjVMXv+t7ZMDtduPNN99EcnIKJk6cCJutaUnnQP0G8rgYAX9AgAmCP8yC3/XBrKInXujipCiJwjma14uiwkJs2rAWy5a+i4q8A7h6TCiuvyQafbu74FDI1SAS2Syfu2ldCI5GXnTavHR4VR0vLy9CFdIw896fQFYseQnhkydMGxDxZ4LQeAtv+DPNb4OlSJJMWeTNXx7AP1ZtRHmtjsuuuhq3Tr5dBB+6nE7IFGcgCBIFcbZuRaiqFwsXLsQbbyzAokWLMHz4cA5YDI4vFI/SDxBgguAHk+B/XfAJ3DScfE1TsiFezkQWSsvKsHHDOix563VU5B3GqFQJN43vgkG9gPAwFZIcAhIFUnSvKL3TcGw2rQxEOywDhf8N/4x6RNUETYKg61689u9y5FaNwnMPTIFihyAFQkapkxAEX4ChYmhmKWXIgvZReUUSN6p1e5BfXIZ1X6RjzdadKKvx4rY77sQNN92Mvn37QlbMeBRfCKI554RB6wgCfaqsrBwPP/wwIiIiMGfOHERF+WSXz2ii+EOMACPQQgSYILQQKL6sKQK6rguiUF5ehn1792Lj2pVI37oOkY4C/GikC2NHxqBfNxkhiibiEzTJBhHbCBk6mZglUmkkS0Xrtwx/nQuKwRARGIYXb35Si4P5A/DiQ3d3UoIgCXluEjUy8xHIBCChsKQMew5nYfWmbcjKK0aPfim4/NrrMfbiseiSmABHCLkS2rbROsvMzBTkgIjCiBEj2vYBfDdGgBE4LQJMEHhhtAkCJJZ3Mi8XK1Z8iGVLFqIm7xDGnR+FKVd2wZCe4XA6qkUqm6E7YMgyJGIL5IgIoDAFshKYPnYN76xRsfNwT/z5kZ9D6mQWBBIzkigjRSggatB1GSeKSrBy/Tb8Z8NWnCwqxy1TpmDyHT/F8OFDhLWgXkG6Pg6lTZZVk5tUVFQgLCxMZDWYcQzcGAFG4FwiwAThXKIbVPc2sxdUVUNRcRF27UrHurVrcHL/dkTK+Rg2MARjBruQ2sOJ8DAZ9vriUC3V2Pd/MCloj2I2SCxp6XoJm/Z0wV+m3w8lRBjnBRnSZH+MQWiQMhaUwNBRV1eH7IJiUYp5d8YRnCwoRpfeyRgzbgLGX3aZUD10uEKEo0gRrgT6RW6Fc5+SqGmasF5xwKL/fye4h50bASYInXv+/Kj3Qnm/vj+6IcFb50VhUQE+/3wTVq1cgWPpW9AtuhoTLk7E+POiMaBHCBTJI06pIgNAswl/t2xF8dGGq8vkgiA3BREJyq5vLjhE/+4fZgiz29RDD/6+WcLanXH4y2MPwOmwWxUJqaqm6YbwtfYp1nR6iWxfPAkMwlWGaigoLq/Ett0Z2PzFLuzKOIwuyakY/+OJuHriFejbpw9coeHCYmA6HhqJHNVHGJzuZN98fs7u9J+eno7s7GxMmjSJNRL86A3AXQk8BJggBN6cduCImmx99f0wDB1VVVU4dvQo1qxbj+2b/ou6osPol1CHtBERGNjXhR4JDkQ6gRC7DsUwo90pyFElczLo7xoCJut94tYTZKuYVAcO3NICJFO7Dkn3YPl24OMd4XjtsYcQ6rTXV3Q0UyHPboNs3ThNy45Pqql+hgwDqqahxq2hoLQUh7/JwbZdGThw9DiMsCgMHjEK199wHYYOHWaWXP7BehLflbZ4OvJ2duPfvHkzZs6ciVmzZmHMmDFMElq3IPhqRqDFCDBBaDFUfOHZImDoOlTNi/KKChw/nokvvtiBrZs3ovhEBiKNYowaZMcFQ6MwoFcokmJdUMj/baimXqNkg0GlqAVPIM1+/2u+IEVZd+OjnQbe3xyCPz85DRFOZ6POtgdB8FlZrHLdhg7KNDRIr0CSUV5VjcwTOdhz4Ci27spAYWUNohO6YtQFaRg7bhxS+qcKUkA1EM5exbDtCUJtbS3mzZuHtWvX4u2330ZKSor/LQbuESMQAAgwQQiASexcQ2i8YZAQjhfHj2fhix3b8cEH7+NgRjp6h3swtJcd49MiMWRAAqJCVUTaFSgKbXReSGRaECdxknem0dNG2PGN3AfCE2/UYtWXOv65zoF5jz+CqNDQdiYIZm0Dchyoqg6PqqKqzoPM7Bys//wLpGccw4nSMoQmJmHybbdh/LhLkZKSLNIISR3TbGd3ym8YcNsTBLp3UVER7rvvPowdOxbTpk0T8QgcuNjx3wHuQWAhwAQhsObTz0fzHWZoA/CqXlF6Oj8/F18f2Iv9ezKwb9+XKC48iq4h1UiOkTBkgB19kyOQGG1DXJgNLhsFxdFe5hbbmWHQzyJXwtrgrE3OF2JPAYS++IYzyMo3hX5Mk/23mwFdIpsHxVDUYd0+HUtWy3jlyemIbkIQzD4230DFHSmKkaSXT/PvjTdtc6wN/fBtjFSa26PpqKyqRHlJOTJP5mDvwcM4lluMgmoPZGcYBg0ZhFGjRmDg0CHo0zsZYWHhcNidJn6WHLQVUtlGa+ncEARKs83KyoKqqkhNTWVy0EazxbdhBBojwASB14MfImBA08xI+vz8PBzK2Iv0/+3E5k0bceRoBrrHAqO6h2NkqoyRI2PRv080XA6QJjTsigxK05MpjZJEfgQhsMGQzWJCoqgUBVNSFoVOwkbmpi/ppuqjME40j4MkhAy6ikoS65ANzVehqNE+bylOQoEsubF+v45FH+mY++TjiIsKbbTpN470Nzd5cwslgkH3pniBBjeERM+yTvSSqOPgC8kk+wCV6pagGzpO5hdh196vsHP/YRzIzEZmXj5i4rviR+PG4cK0izB42Aj07tMHYaGhsNsbk5S2shT4xzIi4sSWBP+YC+5F50eACULnn8OAHwG99EmTn/LgCwrycWD/bhzcswcnjmejoDgH7ppC9IjxIjnRjl4xNiR1kdEt0YbocAVOhwSXww6nAyJQ0Kw4Scd0U6RJHNwphl/IMtihy1RQyWOd4S1zu9jB6XM+dUBL5Mmne+CbAUE46Bk1+PyQhrfe82LOk08hPiqsvv6AGaRo3lfwEHFvs9SxQWRApEn6CIIB3TBEuWS3x4M6j4rSylrkFxehoLAYOYXl+CavACcKS6AZdsTEx6N7j+4YNHgIho0ciV69egvVQZfL1QaxBP67zKqrq7Fjxw6MGjUKMTEx/ttR7hkj0MkQYILQySaMu2ua1ykXnjIjSPK5oCAPx44cQtaxr5GTlYP8gmMoyMuG4a1AUoINKXGh6JlgR2KcjMQEG7omOJEQF4JQl7kVy7oMWTODIc2d2zzVU9ChSKI0aKOWTYJhUJQBbeSkeWARDBE4KYk0TSrfbMhu7PzGwKtLKzH3yWeQGBMOTZJELStREZliJ6hmhVW0yDz1muPyqBoKT5Xi1KliFBQWIq+oDNmFJTheVIzjuUXw6hK6JiagS7ckdO3eC/1SUtAvdQC6dU1CdEw0oqMjLX883V4W9wz0EzXFIzz44IOYdMMk/Ozun/FXhBFgBNoIASYIbQQk36Z9EPDFFzQ3jIu8fNpgPR6UlZWhtLQMuTk5+Prrr3DswH58c+QYqirKqRgzvJobbs2N2DAV3eNldI0OQc8YCYmxdsREOOCyS3DYZNjtEuw2GYpNgV2RYFdUKDLZAHTINkAmGen6MAfajO3k1YCuefDVSRnzlpbgsamPIj7CBbfI4FDh9urweLwiOLOyqgaFZeXILSpFTnEJCk6VoqSsUlg2FEWBIstwuELRo29v9B84WFgGevfug5hoIgLRCA0ly4RVHbK++qbpeiBq03aBhu0zt2f6FIpHWL58ORYsWID58+dj8ODBAU+KzhQr/hwj0BoEmCC0Bi2+tsMR+N5s+2anZUM3oOkkFayLYDZyUZSWlaK4pATFpWWoKC1GaXERyooLUVVciPLSYtRWe6GrtdC1Guh6rairQKd9TVdhCNlhHQbFK4iAvqbVKskeYfZPQkUdcOibSvTt3gtOhTZxCTbFhtCICDidIVBkG0JcoYiKjUVEDP2KQXx8AmJjY8XmT/8nczlZBSjdUJEV4SY4Xdph0zBA86fAqXDRsiVHpJB0EXJzc/H666+zq6FlsPFVjMD3IsAEgRdI0CNgZgSYJn5d01FbVysCJGvr6kTsg9vjRp3HA4/XK4gGNE24ODT6c6MmCiErCmzW6Z+up5O83WaDw+FASEiI2PgjIyNFXACn5rXt0svPzxexCBMnThRYB7prpW3R47sxAt9GgAkCr4qgRaA1/nnfKf07Y/6FiZ8CDK26zvXljb8Nb2ueG7STcwYDFwRP14V7hhsjwAicPQJMEM4eQ74DI2BaIILG688TzggwAsGAABOEYJhlHiMjwAgwAowAI9BKBJggtBIwvpwRYAQYAUaAEQgGBJggBMMs8xgZAUaAEWAEGIFWIsAEoZWA8eWMACPACDACjEAwIMAEIRhmmcfICDACjAAjwAi0EgEmCK0EjC9nBBgBRoARYASCAQEmCMEwyzxGRoARYAQYAUaglQgwQWglYHw5I8AIMAKMACMQDAgwQQiGWeYxMgKMACPACDACrUSACUIrAePLGQFGgBFgBBiBYECACUIwzDKPkRFgBBgBRoARaCUCTBBaCRhfzggwAowAI8AIBAMC/w9o/HuO84t5xwAAAABJRU5ErkJggg==;" vertex="1" parent="1">
                    <mxGeometry x="40" y="180" width="425" height="327.74" as="geometry"/>
                </mxCell>
            </root>
        </mxGraphModel>
    </diagram>
</mxfile>